<?xml version="1.0" standalone="no"?>
<!DOCTYPE svg PUBLIC "-//W3C//DTD SVG 1.1//EN" "http://www.w3.org/Graphics/SVG/1.1/DTD/svg11.dtd" >
<svg xmlns="http://www.w3.org/2000/svg">
<metadata>Generated by IcoMoon</metadata>
<defs>
<font id="icomoon" horiz-adv-x="1024">
<font-face units-per-em="1024" ascent="960" descent="-64" />
<missing-glyph horiz-adv-x="1024" />
<glyph unicode="&#x20;" horiz-adv-x="512" d="" />
<glyph unicode="&#xe900;" glyph-name="agency_icon" horiz-adv-x="1078" d="M875.789 466.863c-56.589 0-98.358 52.547-98.358 122.611 0 49.853 10.779 106.442 98.358 106.442s98.358-56.589 98.358-106.442c0-70.063-41.768-122.611-98.358-122.611zM875.789 662.232c-49.853 0-66.021-17.516-66.021-74.105 0-43.116 22.905-90.274 66.021-90.274s66.021 45.811 66.021 90.274c0 56.589-16.168 74.105-66.021 74.105zM745.095 449.347v0c-4.042 8.084-2.695 17.516 5.389 22.905l53.895 32.337c8.084 4.042 17.516 2.695 22.905-5.389v0c4.042-8.084 2.695-17.516-5.389-22.905l-53.895-32.337c-8.084-4.042-18.863-1.347-22.905 5.389zM1006.484 334.821h-82.189c-9.432 0-16.168 6.737-16.168 16.168v0c0 9.432 6.737 16.168 16.168 16.168h82.189c5.389 0 16.168 12.126 16.168 32.337v13.474c0 5.389-2.695 10.779-8.084 14.821l-83.537 48.505c-8.084 4.042-10.779 14.821-6.737 22.905v0c4.042 8.084 14.821 10.779 22.905 6.737l99.705-57.937c5.389-2.695 8.084-8.084 8.084-14.821v-32.337c1.347-35.032-21.558-66.021-48.505-66.021zM188.632 466.863c-56.589 0-98.358 52.547-98.358 122.611 0 49.853 10.779 106.442 98.358 106.442s98.358-56.589 98.358-106.442c0-70.063-43.116-122.611-98.358-122.611zM188.632 662.232c-49.853 0-66.021-17.516-66.021-74.105 0-43.116 22.905-90.274 66.021-90.274s66.021 45.811 66.021 90.274c-1.347 56.589-16.168 74.105-66.021 74.105zM296.421 443.958l-53.895 32.337c-8.084 4.042-10.779 14.821-5.389 22.905v0c4.042 8.084 14.821 10.779 22.905 5.389l53.895-32.337c8.084-4.042 10.779-14.821 5.389-22.905v0c-4.042-6.737-14.821-9.432-22.905-5.389zM156.295 350.989c0-9.432-6.737-16.168-16.168-16.168h-82.189c-26.947 0-48.505 29.642-48.505 66.021v32.337c0 5.389 2.695 10.779 8.084 14.821l99.705 57.937c8.084 4.042 17.516 1.347 22.905-6.737v0c4.042-8.084 1.347-17.516-6.737-22.905l-83.537-48.505c-5.389-2.695-8.084-8.084-8.084-14.821v-13.474c0-20.211 12.126-32.337 16.168-32.337h82.189c8.084 1.347 16.168-6.737 16.168-16.168v0zM172.463 57.263v0c-9.432 0-16.168 6.737-16.168 16.168v130.695c0 130.695 72.758 158.989 149.558 188.632 24.253 9.432 48.505 18.863 74.105 30.989 8.084 4.042 17.516 1.347 21.558-6.737v0c4.042-8.084 1.347-18.863-6.737-22.905-26.947-13.474-53.895-24.253-78.147-33.684-76.8-28.295-128-47.158-128-156.295v-130.695c0-9.432-8.084-16.168-16.168-16.168zM891.958 57.263v0c-9.432 0-16.168 6.737-16.168 16.168v130.695c0 109.137-51.2 128-129.347 157.642-24.253 9.432-51.2 18.863-78.147 33.684-8.084 4.042-10.779 14.821-6.737 22.905v0c4.042 8.084 13.474 10.779 21.558 6.737 24.253-13.474 49.853-21.558 74.105-30.989 76.8-29.642 149.558-56.589 149.558-188.632v-130.695c1.347-10.779-5.389-17.516-14.821-17.516zM586.105 338.863l-43.116 21.558c-6.737 2.695-14.821 2.695-21.558 0l-43.116-21.558c-9.432-4.042-20.211-2.695-26.947 4.042l-57.937 57.937c-8.084 8.084-9.432 20.211-2.695 29.642l26.947 40.421c5.389 8.084 14.821 12.126 24.253 10.779l86.232-14.821c2.695 0 5.389 0 8.084 0l86.232 14.821c9.432 1.347 18.863-2.695 24.253-10.779l26.947-40.421c6.737-9.432 5.389-21.558-2.695-29.642l-57.937-57.937c-6.737-6.737-18.863-8.084-26.947-4.042zM542.989 396.8l36.379-17.516c9.432-4.042 20.211-2.695 26.947 4.042l21.558 21.558c8.084 8.084 9.432 20.211 2.695 29.642v0c-5.389 8.084-14.821 12.126-24.253 10.779l-70.063-10.779c-2.695 0-5.389 0-8.084 0l-71.411 12.126c-9.432 1.347-18.863-2.695-24.253-10.779v0c-6.737-9.432-5.389-21.558 2.695-29.642l21.558-21.558c6.737-6.737 18.863-9.432 26.947-4.042l36.379 17.516c8.084 2.695 16.168 2.695 22.905-1.347zM598.232 531.537h32.337v-66.021h-32.337v66.021zM433.853 531.537h32.337v-66.021h-32.337v66.021zM532.211 499.2c-2.695 0-53.895 0-88.926 17.516l-1.347 1.347c-2.695 1.347-55.242 37.726-72.758 158.989v67.368h32.337v-64.674c13.474-97.011 52.547-130.695 57.937-134.737 28.295-13.474 72.758-13.474 72.758-13.474s44.463 0 72.758 13.474c5.389 4.042 43.116 37.726 57.937 134.737v64.674h32.337v-67.368c-17.516-119.916-70.063-157.642-72.758-158.989l-1.347-1.347c-35.032-17.516-86.232-17.516-88.926-17.516zM695.242 744.421h-32.337c0 90.274-40.421 130.695-130.695 130.695s-130.695-40.421-130.695-130.695h-32.337c0 109.137 55.242 163.032 163.032 163.032 109.137 1.347 163.032-53.895 163.032-163.032zM607.663 695.916l-149.558 60.632c-4.042 1.347-9.432 1.347-13.474 0l-37.726-18.863c-8.084-4.042-17.516-1.347-21.558 6.737v0c-4.042 8.084-1.347 17.516 6.737 21.558l51.2 25.6c4.042 2.695 9.432 2.695 13.474 0l149.558-59.284c4.042-1.347 9.432-1.347 13.474 0l37.726 18.863c8.084 4.042 17.516 1.347 21.558-6.737v0c4.042-8.084 1.347-17.516-6.737-21.558l-51.2-25.6c-4.042-2.695-9.432-2.695-13.474-1.347zM303.158 57.263v0c-9.432 0-16.168 6.737-16.168 16.168v98.358c0 9.432 6.737 16.168 16.168 16.168v0c9.432 0 16.168-6.737 16.168-16.168v-98.358c0-9.432-6.737-16.168-16.168-16.168zM761.263 57.263v0c-9.432 0-16.168 6.737-16.168 16.168v98.358c0 9.432 6.737 16.168 16.168 16.168v0c9.432 0 16.168-6.737 16.168-16.168v-98.358c0-9.432-6.737-16.168-16.168-16.168z" />
<glyph unicode="&#xe901;" glyph-name="software" horiz-adv-x="1615" d="M1454.080 471.368l77.982 428.242c0.525 2.888 0.525 6.039 0 8.927 0.788 9.19-1.838 18.117-7.877 25.469-6.564 7.877-16.279 12.341-26.519 12.341l-1076.775 1.313c0 0 0 0 0 0-10.24 0-19.955-4.464-26.519-12.341-6.039-7.089-8.665-16.016-7.877-25.206-0.525-2.888-0.788-6.039-0.263-8.927l76.669-428.505c0 0 0 0 0 0l3.676-21.53-421.941-111.065c-6.302-1.575-10.24-8.139-8.402-14.441l90.322-343.696c1.313-4.726 5.251-8.139 9.715-8.665 1.575-0.263 3.151 0 4.726 0.263l513.050 134.695c3.151 0.788 5.776 2.888 7.352 5.514s2.101 6.039 1.313 8.927l-66.691 252.849 234.207-0.263-8.139-75.356c-2.101-18.642 3.413-36.496 14.966-49.362 9.19-10.24 21.268-16.016 34.133-16.016l205.063-0.525c0 0 0 0 0 0 12.866 0 24.944 5.776 34.133 16.016 11.553 12.866 17.067 30.983 15.229 49.625l-8.139 75.356 295.647-0.525c0 0 0 0 0 0 13.391 0 24.944 9.977 27.569 23.631l13.391 73.255zM1101.982 257.641c-7.089-7.877-16.016-12.078-25.469-12.078 0 0 0 0 0 0l-205.063 0.525c-9.452 0-18.379 4.201-25.469 12.078-9.19 10.24-13.653 25.206-12.078 40.172l7.877 74.831 264.402-0.788 7.877-74.568c1.838-14.966-2.888-29.932-12.078-40.172zM574.49 375.532l65.116-247.598-5.514-1.575-65.378 248.911 5.776 0.263zM563.2 375.532l65.641-250.224-215.040-56.451-84.808 322.954 141.785 37.284 5.251-29.67c2.363-13.653 13.916-23.631 27.569-23.631l59.602-0.263zM382.556 60.455l-5.514-1.575-2.101 8.139c0 0 0 0 0 0 1.313 0.263 2.101 1.575 2.363 2.888l2.626 0.788 2.626-10.24zM266.765 29.998l-109.752-28.882-84.808 322.954 215.040 56.451 84.808-322.954-105.288-27.569zM67.479 322.757l84.808-322.954-5.514-1.575-84.808 322.954 5.514 1.575zM318.49 388.923l5.514 1.575 2.101-8.139c0 0-0.263 0-0.263 0-1.313-0.263-2.101-1.575-2.363-3.151l-2.363-0.525-2.626 10.24zM331.093 362.667c0 0 0.263 0 0.263 0l1.575-5.514c0 0-0.263 0-0.263 0-1.313-0.263-2.101-1.575-2.363-3.151l-2.363-0.525-2.626 9.977 2.363 0.525c0.788-1.050 2.101-1.838 3.413-1.313zM336.082 344.55c0 0-0.263 0-0.263 0-1.313-0.263-2.101-1.575-2.363-3.151l-2.363-0.525-2.626 9.977 2.363 0.525c0.788-1.050 2.101-1.838 3.676-1.575 0 0 0.263 0 0.263 0l1.313-5.251zM339.495 332.209c0 0-0.263 0-0.263 0-1.313-0.263-2.101-1.575-2.363-3.151l-2.363-0.525-2.626 9.977 2.363 0.525c0.788-1.050 2.101-1.838 3.676-1.575 0 0 0.263 0 0.263 0l1.313-5.251zM342.646 319.606c0 0-0.263 0-0.263 0-1.313-0.263-2.101-1.575-2.363-3.151l-2.363-0.525-2.626 9.977 2.363 0.525c0.788-1.050 2.101-1.838 3.676-1.575 0 0 0.263 0 0.263 0l1.313-5.251zM346.059 307.266c0 0-0.263 0-0.263 0-1.313-0.263-2.101-1.575-2.363-2.888l-2.363-0.525-2.626 9.977 2.363 0.525c0.788-1.050 2.101-1.838 3.676-1.575 0 0 0.263 0 0.263 0l1.313-5.514zM349.21 294.663c0 0-0.263 0-0.263 0-1.313-0.263-2.101-1.575-2.363-3.151l-2.363-0.525-2.626 9.977 2.363 0.525c0.788-1.050 2.101-1.838 3.676-1.575 0 0 0.263 0 0.263 0l1.313-5.251zM352.624 282.322c-1.313-0.525-1.838-1.575-2.101-2.888l-2.888-0.788-2.626 9.977 2.363 0.525c0.788-1.050 2.101-1.838 3.676-1.575 0 0 0.263 0 0.263 0l1.313-5.251zM398.572 107.454c-1.313-0.525-1.838-1.575-2.101-2.888l-2.888-0.788-2.626 9.977 2.888 0.788c0.788-1.050 1.838-1.575 3.151-1.575l1.575-5.514zM366.539 99.052c0 0 0 0 0 0l-1.575 5.514c0 0 0 0 0 0 1.313 0.263 2.101 1.575 2.363 3.151l2.626 0.788 2.626-9.977-2.626-0.788c-0.788 1.050-1.838 1.838-3.413 1.313zM361.813 117.169c0 0 0 0 0 0 1.575 0.263 2.363 1.575 2.363 3.151l2.626 0.788 2.626-9.977-2.626-0.788c-0.788 1.050-2.101 1.838-3.676 1.575 0 0 0 0 0 0l-1.313 5.251zM358.4 129.51c0 0 0 0 0 0 1.575 0.525 2.363 1.575 2.363 3.151l2.626 0.788 2.626-9.977-2.626-0.788c-0.788 1.050-2.101 1.838-3.676 1.575 0 0 0 0 0 0l-1.313 5.251zM355.249 142.113c0 0 0 0 0 0 1.575 0.525 2.363 1.575 2.363 3.151l2.626 0.788 2.626-9.977-2.626-0.788c-0.788 1.050-2.101 1.838-3.676 1.575 0 0 0 0 0 0l-1.313 5.251zM351.836 154.453c0 0 0.263 0 0 0 1.575 0.525 2.363 1.575 2.363 3.151l2.626 0.788 2.626-9.977-2.626-0.788c-0.788 1.050-2.101 1.838-3.676 1.575 0 0 0 0 0 0l-1.313 5.251zM348.685 167.056c0 0 0 0 0 0 1.575 0.263 2.363 1.575 2.363 3.151l2.626 0.788 2.626-9.977-2.626-0.788c-0.788 1.050-2.101 1.838-3.676 1.575 0 0 0 0 0 0l-1.313 5.251zM345.272 179.659c0 0 0.263 0 0 0 1.575 0.525 2.363 1.575 2.363 3.151l2.626 0.788 2.626-9.977-2.626-0.788c-0.788 1.050-2.101 1.838-3.676 1.575 0 0 0 0 0 0l-1.313 5.251zM342.121 192c0 0 0 0 0 0 1.575 0.263 2.363 1.575 2.363 3.151l2.626 0.788 2.626-9.977-2.626-0.788c-0.788 1.050-2.101 1.838-3.676 1.575 0 0 0 0 0 0l-1.313 5.251zM338.708 204.603c0 0 0.263 0 0 0 1.575 0.525 2.363 1.575 2.363 3.151l2.626 0.788 2.626-9.977-2.626-0.788c-0.788 1.050-2.101 1.838-3.676 1.575 0 0 0 0 0 0l-1.313 5.251zM335.557 216.944c0 0 0 0 0 0 1.575 0.525 2.363 1.575 2.363 3.151l2.626 0.788 2.626-9.977-2.626-0.788c-0.788 1.050-2.101 1.838-3.676 1.575 0 0 0 0 0 0l-1.313 5.251zM332.144 229.547c0 0 0.263 0 0 0 1.575 0.525 2.363 1.575 2.363 3.151l2.626 0.788 2.626-9.977-2.626-0.788c-0.788 1.050-2.101 1.838-3.676 1.575 0 0 0 0 0 0l-1.313 5.251zM328.993 241.887c0 0 0 0 0 0 1.575 0.263 2.363 1.575 2.363 3.151l2.626 0.788 2.626-9.977-2.626-0.788c-0.788 1.050-2.101 1.838-3.676 1.575 0 0 0 0 0 0l-1.313 5.251zM325.579 254.49c0 0 0.263 0 0 0 1.575 0.525 2.363 1.575 2.363 3.151l2.626 0.788 2.626-9.977-2.626-0.788c-0.788 1.050-2.101 1.838-3.676 1.575 0 0 0 0 0 0l-1.313 5.251zM322.429 266.831c0 0 0 0 0 0 1.575 0.263 2.363 1.575 2.363 3.151l2.626 0.788 2.626-9.977-2.626-0.788c-0.788 1.050-2.101 1.838-3.676 1.575 0 0 0 0 0 0l-1.313 5.251zM319.015 279.434c1.050 0.525 1.838 1.575 1.838 2.888l3.151 0.788 2.626-9.977-2.626-0.788c-0.788 1.050-2.101 1.838-3.676 1.575 0 0 0 0 0 0l-1.313 5.514zM302.736 341.924c1.050 0.525 1.575 1.575 1.838 2.888l3.151 0.788 2.626-9.977-3.151-0.788c-0.788 1.050-1.838 1.575-2.888 1.575l-1.575 5.514zM371.003 124.521l-2.626 9.977 11.028 2.888 2.626-9.977-11.028-2.888zM382.556 125.046l2.626-9.977-11.028-2.888-2.626 9.977 5.776 1.575 5.251 1.313zM367.59 137.124l-2.626 9.977 11.028 2.888 2.626-9.977-11.028-2.888zM364.439 149.465l-2.626 9.977 11.028 2.888 2.626-9.977-11.028-2.888zM366.802 163.643v0l-5.776-1.575-2.626 9.977 5.776 1.575 5.251 1.313 2.626-9.977-5.251-1.313zM363.651 175.984l-5.776-1.575-2.626 9.977 11.028 2.888 2.626-9.977-5.251-1.313zM360.238 188.587v0l-5.776-1.575-2.626 9.977 5.776 1.575 5.251 1.313 2.626-9.977-5.251-1.313zM357.087 200.927v0l-5.776-1.575-2.626 9.977 5.776 1.575 5.251 1.313 2.626-9.977-5.251-1.313zM348.16 211.955l-2.626 9.977 5.776 1.575 5.251 1.313 2.626-9.977-11.028-2.888zM344.747 224.558l-2.626 9.977 5.776 1.575 5.251 1.313 2.626-9.977-11.028-2.888zM341.596 236.898l-2.626 9.977 5.776 1.575 5.251 1.313 2.626-9.977-11.028-2.888zM338.183 249.502l-2.626 9.977 11.028 2.888 2.626-9.977-11.028-2.888zM335.032 261.842l-2.626 9.977 11.028 2.888 2.626-9.977-11.028-2.888zM331.618 274.445l-2.626 9.977 11.028 2.888 2.626-9.977-11.028-2.888zM333.456 288.098l-4.989-1.313-2.626 9.977 11.028 2.888 2.626-9.977-6.039-1.575zM325.054 299.389l-2.626 9.977 4.989 1.313 6.039 1.575 2.626-9.977-11.028-2.888zM321.904 311.729l-2.626 9.977 11.028 2.888 2.626-9.977-11.028-2.888zM318.49 324.332l-2.626 9.977 4.989 1.313 6.039 1.575 2.626-9.977-11.028-2.888zM315.339 336.673l-2.626 9.977 4.989 1.313 6.039 1.575 2.626-9.977-11.028-2.888zM305.887 329.321c1.050 0.525 1.575 1.575 1.838 2.888l3.151 0.788 2.626-9.977-3.151-0.788c-0.788 1.050-1.838 1.575-2.888 1.575l-1.575 5.514zM309.301 316.981c1.050 0.525 1.575 1.575 1.838 2.888l3.151 0.788 2.626-9.977-3.151-0.788c-0.788 1.050-1.838 1.575-2.888 1.575l-1.575 5.514zM312.451 304.377c1.050 0.525 1.838 1.575 1.838 2.888l3.151 0.788 2.626-9.977-3.151-0.788c-0.788 1.050-1.838 1.575-2.888 1.575l-1.575 5.514zM315.865 292.037c1.050 0.525 1.838 1.575 1.838 2.888l3.151 0.788 2.626-9.977-3.151-0.788c-0.788 1.050-1.838 1.575-2.888 1.575l-1.575 5.514zM374.942 109.555l5.776 1.575 5.251 1.313 2.626-9.977-5.251-1.313-5.776-1.575-2.626 9.977zM395.159 120.057c-1.313-0.525-1.838-1.575-2.101-2.888l-2.888-0.788-2.626 9.977 2.888 0.788c0.788-1.050 1.838-1.575 3.151-1.575l1.575-5.514zM392.008 132.398c-1.313-0.525-1.838-1.575-2.101-2.888l-2.888-0.788-2.626 9.977 2.888 0.788c0.788-1.050 1.838-1.575 3.151-1.575l1.575-5.514zM388.595 145.001c-1.313-0.525-1.838-1.575-2.101-2.888l-2.888-0.788-2.626 9.977 2.888 0.788c0.788-1.050 1.838-1.575 3.151-1.575l1.575-5.514zM385.444 157.342c-1.313-0.525-1.838-1.575-2.101-2.888l-2.888-0.788-2.626 9.977 2.888 0.788c0.788-1.050 1.838-1.575 3.151-1.575l1.575-5.514zM382.031 169.945c-1.313-0.525-1.838-1.575-2.101-2.888l-2.888-0.788-2.626 9.977 2.888 0.788c0.788-1.050 1.838-1.575 3.151-1.575l1.575-5.514zM378.88 182.285c-1.313-0.525-1.838-1.575-2.101-2.888l-2.888-0.788-2.626 9.977 2.888 0.788c0.788-1.050 1.838-1.575 3.151-1.575l1.575-5.514zM375.467 194.888c-1.313-0.525-1.838-1.575-2.101-2.888l-2.888-0.788-2.626 9.977 2.888 0.788c0.788-1.050 1.838-1.575 3.151-1.575l1.575-5.514zM372.316 207.229c-1.313-0.525-1.838-1.575-2.101-2.888l-2.888-0.788-2.626 9.977 2.888 0.788c0.788-1.050 1.838-1.575 3.151-1.575l1.575-5.514zM368.903 219.832c-1.313-0.525-1.838-1.575-2.101-2.888l-2.888-0.788-2.626 9.977 2.888 0.788c0.788-1.050 1.838-1.575 3.151-1.575l1.575-5.514zM365.752 232.172c-1.313-0.525-1.838-1.575-2.101-2.888l-2.888-0.788-2.626 9.977 2.888 0.788c0.788-1.050 1.838-1.575 3.151-1.575l1.575-5.514zM362.338 244.775c-1.313-0.525-1.838-1.575-2.101-2.888l-2.888-0.788-2.626 9.977 2.888 0.788c0.788-1.050 1.838-1.575 3.151-1.575l1.575-5.514zM359.188 257.378c-1.313-0.525-1.838-1.575-2.101-2.888l-2.888-0.788-2.626 9.977 2.888 0.788c0.788-1.050 1.838-1.575 3.151-1.575l1.575-5.514zM355.774 269.719c-1.313-0.525-1.838-1.575-2.101-2.888l-2.888-0.788-2.626 9.977 2.888 0.788c0.788-1.050 1.838-1.575 3.151-1.575l1.575-5.514zM322.954 352.164l-11.028-2.888-2.626 9.977 11.028 2.888 2.626-9.977zM307.2 347.963l-3.151-0.788c-0.788 1.050-1.838 1.575-2.888 1.575l-1.575 5.776c1.050 0.525 1.575 1.575 1.838 2.888l3.151 0.788 2.626-10.24zM369.953 86.712c0 0-0.263 0 0 0l-1.575 5.514c0 0 0 0 0 0 1.313 0.263 2.101 1.575 2.363 2.888l2.626 0.788 2.626-9.977-2.626-0.788c-0.788 1.050-2.101 1.838-3.413 1.575zM378.092 97.214l5.776 1.575 5.251 1.313 2.626-9.977-5.251-1.313-5.776-1.575-2.626 9.977zM394.109 101.415l2.888 0.788c0.788-1.050 1.838-1.575 3.151-1.575l1.575-5.514c-1.313-0.525-1.838-1.575-2.101-2.888l-2.888-0.788-2.626 9.977zM324.267 376.583c0.788-1.050 2.101-1.838 3.676-1.575 0 0 0.263 0 0.263 0l1.575-5.514c0 0-0.263 0-0.263 0-1.313-0.263-2.101-1.575-2.363-3.151l-2.363-0.525-2.626 9.977 2.101 0.788zM319.803 364.767l-6.039-1.575-4.989-1.313-2.626 9.977 11.028 2.888 2.626-9.977zM303.787 360.566l-3.151-0.788c-0.788 1.050-1.838 1.575-2.888 1.575l-1.575 5.776c1.050 0.525 1.575 1.575 1.838 2.888l3.151 0.788 2.626-10.24zM297.485 372.119c-0.788 1.050-1.838 1.575-2.888 1.575l-2.101 8.402 5.514 1.575 2.626-10.503-3.151-1.050zM376.779 72.796c-0.788 1.050-2.101 1.838-3.676 1.575 0 0 0 0 0 0l-1.575 5.514c0 0 0 0 0 0 1.313 0.263 2.101 1.575 2.363 2.888l2.626 0.788 2.626-9.977-2.363-0.788zM381.506 84.611l5.776 1.575 5.251 1.313 2.626-9.977-11.028-2.888-2.626 9.977zM397.259 88.812l2.888 0.788c0.788-1.050 1.838-1.575 3.151-1.575l1.575-5.514c-1.313-0.525-1.838-1.575-2.101-2.888l-2.888-0.788-2.626 9.977zM403.561 76.997c0.788-1.050 1.838-1.575 3.151-1.575l2.101-8.139-5.514-1.575-2.626 10.503 2.888 0.788zM1517.883 911.688c1.050-1.313 1.575-2.626 2.101-3.938l-74.306-417.477c-0.525-2.101-2.363-3.676-4.464-3.676l-964.923 1.313c-2.101 0-3.938 1.575-4.464 3.676l-73.255 417.739c0 0 0 0 0 0 0.525 1.313 1.050 2.626 2.101 3.938 2.101 2.626 5.251 4.201 8.665 4.201v0l1099.618-1.575c3.413 0 6.827-1.575 8.927-4.201zM420.89 935.844v0l1076.775-1.575c6.564 0 12.603-2.888 16.804-7.614-1.838 0.525-3.676 0.788-5.514 0.788l-1099.618 1.575c-1.838 0-3.676-0.263-5.251-0.525 4.201 4.726 10.24 7.352 16.804 7.352zM657.461 121.633c0.525-1.838 0.263-3.676-0.788-5.251s-2.363-2.626-4.201-3.151l-513.050-134.695c-3.676-1.050-7.352 1.313-8.402 4.989l-90.059 343.434c-1.050 3.676 1.313 7.352 4.989 8.402l421.941 110.802 2.101-12.341-144.41-38.072c0 0 0 0 0 0l-10.503-2.626c-0.525-0.263-1.313-0.525-1.575-1.050s-0.525-1.313-0.263-1.838l3.413-12.866-6.039-1.575-4.989-1.313-3.413 12.866c-0.263 1.313-1.838 2.101-3.151 1.838l-10.503-2.626c0 0 0 0 0 0l-230.531-60.652c-0.525-0.263-1.313-0.525-1.575-1.050s-0.525-1.313-0.263-1.838l86.121-327.943c0.263-1.050 1.050-1.838 2.101-1.838 0.263 0 0.788 0 1.050 0l10.503 2.626c0 0 0 0 0 0l220.029 57.764c0 0 0 0 0 0l10.503 2.626c1.313 0.263 2.101 1.838 1.838 3.151l-3.413 12.866 5.776 1.575 5.251 1.313 3.413-12.866c0.263-0.525 0.525-1.313 1.050-1.575 0.263-0.263 0.525-0.263 0.788-0.263s0.788 0 1.050 0l240.771 63.278c0.525 0.263 1.313 0.525 1.575 1.050s0.525 1.313 0.263 1.838l-65.378 248.648h11.29l66.691-253.637zM1429.399 399.951c-1.575-8.139-8.139-13.916-15.754-13.916 0 0 0 0 0 0l-910.047 1.313c-7.877 0-14.441 5.776-16.016 13.916l-11.815 66.691 965.448-1.575-11.815-66.429zM1469.834 894.359l-1025.838 1.313c-1.838 0-3.413-0.788-4.464-2.101s-1.575-3.151-1.313-4.726l66.691-379.668c0.525-2.888 2.888-4.989 5.776-4.989l891.405-1.050c2.888 0 5.251 2.101 5.776 4.989l67.742 379.405c0.263 1.838-0.263 3.413-1.313 4.726s-2.888 2.101-4.464 2.101zM1397.366 514.954l-881.69 1.050-64.591 367.852 1011.659-1.313-65.378-367.59zM1268.185 196.201c0 6.039-4.989 11.29-11.29 11.29l-544.821 0.263c-6.302 0-11.29-4.989-11.29-11.29v-6.827c0-0.263 0-0.525 0-0.788l-0.263-231.056c0-6.302 4.989-11.29 11.29-11.29l544.821-0.263c6.039 0 11.29 4.989 11.29 11.29l0.263 232.107c0 0.263 0 0.525 0 0.525v6.039zM708.923 196.464c0 1.838 1.575 3.151 3.151 3.151l544.821-0.263c1.838 0 3.151-1.575 3.151-3.151v-2.363h-551.122v2.626zM1260.045-42.207c0-1.838-1.313-3.151-3.151-3.151l-544.821 0.263c-1.838 0-3.151 1.575-3.151 3.151l0.263 227.643h551.385l-0.525-227.906zM712.862 159.967c0.525-0.525 1.050-0.788 1.575-0.788h30.983c1.313 0 2.363 1.050 2.363 2.363v15.754c0 0.525-0.263 1.313-0.788 1.575-0.525 0.525-1.050 0.788-1.575 0.788h-30.983c-1.313 0-2.363-1.050-2.363-2.363v-15.754c0.263-0.525 0.525-1.313 0.788-1.575zM717.063 174.933h25.994v-11.028h-25.994v11.028zM753.822 159.179h30.983c1.313 0 2.363 1.050 2.363 2.363v15.754c0 0.525-0.263 1.313-0.788 1.575-0.525 0.525-1.050 0.788-1.575 0.788h-30.983c-0.525 0-1.313-0.263-1.575-0.788-0.525-0.525-0.788-1.050-0.788-1.575v-15.754c0-1.313 1.050-2.363 2.363-2.363zM782.178 174.933v-11.028h-25.994v11.028h25.994zM791.106 159.967c0.525-0.525 1.050-0.788 1.575-0.788h30.983c1.313 0 2.363 1.050 2.363 2.363v15.754c0 0.525-0.263 1.313-0.788 1.575-0.525 0.525-1.050 0.788-1.575 0.788h-30.983c-1.313 0-2.363-1.050-2.363-2.363v-15.754c0.263-0.525 0.525-1.050 0.788-1.575zM795.307 174.933h25.994v-11.028h-25.994v11.028zM830.228 159.967c0.525-0.525 1.050-0.788 1.575-0.788h30.983c1.313 0 2.363 1.050 2.363 2.363v15.754c0 0.525-0.263 1.313-0.788 1.575-0.525 0.525-1.050 0.788-1.575 0.788h-30.983c-1.313 0-2.363-1.050-2.363-2.363v-15.754c0.263-0.525 0.525-1.050 0.788-1.575zM834.429 175.196h25.994v-11.028h-26.256v11.028zM869.612 160.23c0.525-0.525 1.050-0.788 1.575-0.788h30.983c0.525 0 1.313 0.263 1.575 0.788 0.525 0.525 0.788 1.050 0.788 1.575v15.754c0 1.313-1.050 2.363-2.363 2.363h-30.983c-1.313 0-2.363-1.050-2.363-2.363v-15.754c0-0.525 0.263-1.313 0.788-1.575zM873.551 175.196h25.994v-11.028h-25.994v11.028zM910.31 159.442h30.983c0.525 0 1.313 0.263 1.575 0.788 0.525 0.525 0.788 1.050 0.788 1.575v15.754c0 1.313-1.050 2.363-2.363 2.363h-30.983c-0.525 0-1.313-0.263-1.575-0.788-0.525-0.525-0.788-1.050-0.788-1.575v-15.754c0-1.313 1.050-2.363 2.363-2.363zM938.929 175.196v-11.028h-25.994v11.028h25.994zM947.856 160.23c0.525-0.525 1.050-0.788 1.575-0.788h30.983c1.313 0 2.363 1.050 2.363 2.363v15.754c0 0.525-0.263 1.313-0.788 1.575-0.525 0.525-1.050 0.788-1.575 0.788h-30.983c-1.313 0-2.363-1.050-2.363-2.363v-15.754c0-0.525 0.263-1.050 0.788-1.575zM951.795 175.196h25.994v-11.028h-25.994v11.028zM986.978 160.23c0.525-0.525 1.050-0.788 1.575-0.788h30.983c1.313 0 2.363 1.050 2.363 2.363v15.754c0 0.788-0.263 1.313-0.788 1.575-0.525 0.525-1.050 0.788-1.575 0.788h-30.983c-1.313 0-2.363-1.050-2.363-2.363v-15.754c0-0.525 0.263-1.050 0.788-1.575zM990.917 175.196h25.994v-11.028h-26.256v11.028zM1026.101 160.23c0.525-0.525 1.050-0.788 1.575-0.788h30.983c1.313 0 2.363 1.050 2.363 2.363v15.754c0 0.525-0.263 1.313-0.788 1.575-0.525 0.525-1.050 0.788-1.575 0.788h-30.983c-0.525 0-1.313-0.263-1.575-0.788-0.525-0.525-0.788-1.050-0.788-1.575v-15.754c0-0.525 0.263-1.050 0.788-1.575zM1056.295 175.458v-11.028h-25.994v11.028h25.994zM1066.798 159.705h30.983c1.313 0 2.363 1.050 2.363 2.363v15.754c0 0.525-0.263 1.313-0.788 1.575-0.525 0.525-1.050 0.788-1.575 0.788h-30.983c-1.313 0-2.363-1.050-2.363-2.363v-15.754c0-0.525 0.263-1.313 0.788-1.575 0.263-0.525 1.050-0.788 1.575-0.788zM1069.161 175.458h25.994v-11.028h-25.994v11.028zM1104.345 160.492c0.525-0.525 1.050-0.788 1.575-0.788h30.983c1.313 0 2.363 1.050 2.363 2.363v15.754c0 0.525-0.263 1.313-0.788 1.575-0.525 0.525-1.050 0.788-1.575 0.788h-30.983c-1.313 0-2.363-1.050-2.363-2.363v-15.754c0-0.525 0.263-1.313 0.788-1.575zM1134.539 175.458v-11.028h-25.994v11.028h25.994zM1145.042 159.705h30.983c1.313 0 2.363 1.050 2.363 2.363v15.754c0 1.313-1.050 2.363-2.363 2.363h-30.983c-1.313 0-2.363-1.050-2.363-2.363v-15.754c0-0.525 0.263-1.313 0.788-1.575 0.263-0.525 1.050-0.788 1.575-0.788zM1147.405 175.458h25.994v-11.028h-26.256v11.028zM1179.175-19.889h-30.983c-0.525 0-1.313-0.263-1.575-0.788-0.525-0.525-0.788-1.050-0.788-1.575v-14.966c0-1.313 1.050-2.363 2.363-2.363h30.983c0.525 0 1.313 0.263 1.575 0.788 0.525 0.525 0.788 1.050 0.788 1.575v14.966c0 1.313-1.050 2.363-2.363 2.363zM1150.556-34.855v9.977h25.994v-9.977h-25.994zM1219.61-5.711c0 1.313-1.050 2.363-2.363 2.363h-30.983c-1.313 0-2.363-1.050-2.363-2.363v-14.966c0-0.263 0-0.525 0.263-0.788 0-0.263-0.263-0.525-0.263-0.788v-14.966c0-0.525 0.263-1.313 0.788-1.575 0.525-0.525 1.050-0.788 1.575-0.788h30.983c1.313 0 2.363 1.050 2.363 2.363v14.966c0 0.263 0 0.525-0.263 0.788 0 0.263 0.263 0.525 0.263 0.788v14.966zM1188.628-8.074h25.994v-10.24h-26.256v10.24zM1214.622-34.593h-25.994v9.977h25.994v-9.977zM1254.531-19.889h-30.983c-0.525 0-1.313-0.263-1.575-0.788-0.525-0.525-0.788-1.050-0.788-1.575v-14.966c0-1.313 1.050-2.363 2.363-2.363h30.983c0.525 0 1.313 0.263 1.575 0.788 0.525 0.525 0.788 1.050 0.788 1.575v14.966c0 1.313-1.050 2.363-2.363 2.363zM1225.912-34.593v9.977h25.994v-9.977h-25.994zM1184.164 159.967h30.983c0.525 0 1.313 0.263 1.575 0.788 0.525 0.525 0.788 1.050 0.788 1.575v15.754c0 1.313-1.050 2.363-2.363 2.363h-30.983c-0.525 0-1.313-0.263-1.575-0.788-0.525-0.525-0.788-1.050-0.788-1.575v-15.754c0-1.313 1.050-2.363 2.363-2.363zM1212.784 175.721v-11.028h-25.994v11.028h25.994zM1223.286 159.967h30.983c1.313 0 2.363 1.050 2.363 2.363v15.754c0 0.525-0.263 1.313-0.788 1.575-0.525 0.525-1.050 0.788-1.575 0.788h-30.983c-1.313 0-2.363-1.050-2.363-2.363v-15.754c0-0.525 0.263-1.313 0.788-1.575 0.525-0.525 1.050-0.788 1.575-0.788zM1225.649 175.721h25.994v-11.028h-25.994v11.028zM713.124 119.795c0.525-0.525 1.050-0.788 1.575-0.788h30.983c1.313 0 2.363 1.050 2.363 2.363v31.508c0 1.313-1.050 2.363-2.363 2.363h-30.983c-0.525 0-1.313-0.263-1.575-0.788-0.525-0.525-0.788-1.050-0.788-1.575v-31.508c0-0.263 0.263-1.050 0.788-1.575zM743.056 150.777v-26.519h-25.994v26.782l25.994-0.263zM750.933 120.057c0.525-0.525 1.050-0.788 1.575-0.788h30.983c1.313 0 2.363 1.050 2.363 2.363v31.508c0 0.525-0.263 1.313-0.788 1.575-0.525 0.525-1.050 0.788-1.575 0.788h-30.983c-1.313 0-2.363-1.050-2.363-2.363v-31.508c0-0.525 0.263-1.313 0.788-1.575zM781.128 150.777v-26.782h-25.994v26.782h25.994zM788.743 120.057c0.525-0.525 1.050-0.788 1.575-0.788h30.983c1.313 0 2.363 1.050 2.363 2.363v31.508c0 0.525-0.263 1.313-0.788 1.575-0.525 0.525-1.050 0.788-1.575 0.788h-30.983c-1.313 0-2.363-1.050-2.363-2.363v-31.508c0-0.525 0.263-1.050 0.788-1.575zM818.937 150.777v-26.782h-25.994v26.519l25.994 0.263zM825.502 153.141v-31.508c0-0.525 0.263-1.313 0.788-1.575 0.525-0.525 1.050-0.788 1.575-0.788h30.983c1.313 0 2.363 1.050 2.363 2.363v31.508c0 0.525-0.263 1.313-0.788 1.575-0.525 0.525-1.050 0.788-1.575 0.788h-30.983c-1.313 0-2.363-1.050-2.363-2.363zM856.484 150.777v-26.519h-25.994v26.782l25.994-0.263zM863.048 153.403v-31.508c0-1.313 1.050-2.363 2.363-2.363h30.983c0.525 0 1.313 0.263 1.575 0.788 0.525 0.525 0.788 1.050 0.788 1.575v31.508c0 1.313-1.050 2.363-2.363 2.363h-30.983c-0.525 0-1.313-0.263-1.575-0.788-0.525-0.525-0.788-1.050-0.788-1.575zM894.031 151.040v-26.782h-25.994v26.782h25.994zM935.778 154.978c-0.525 0.525-1.050 0.788-1.575 0.788h-30.983c-0.525 0-1.313-0.263-1.575-0.788-0.525-0.525-0.788-1.050-0.788-1.575v-31.508c0-0.525 0.263-1.313 0.788-1.575 0.525-0.525 1.050-0.788 1.575-0.788h30.983c1.313 0 2.363 1.050 2.363 2.363v31.508c0 0.525-0.263 1.313-0.788 1.575zM905.584 124.258v26.782h25.994v-26.519l-25.994-0.263zM972.012 155.766h-30.983c-0.525 0-1.313-0.263-1.575-0.788-0.525-0.525-0.788-1.050-0.788-1.575v-31.508c0-0.525 0.263-1.313 0.788-1.575 0.525-0.525 1.050-0.788 1.575-0.788h30.983c1.313 0 2.363 1.050 2.363 2.363v31.508c0.263 1.313-1.050 2.363-2.363 2.363zM943.655 124.258v26.782h25.994v-26.519l-25.994-0.263zM1011.397 155.241c-0.525 0.525-1.050 0.788-1.575 0.788h-30.983c-1.313 0-2.363-1.050-2.363-2.363v-31.508c0-1.313 1.050-2.363 2.363-2.363h30.983c0.525 0 1.313 0.263 1.575 0.788 0.525 0.525 0.788 1.050 0.788 1.575v31.508c0 0.525-0.263 1.050-0.788 1.575zM981.202 124.258v26.519h25.994v-26.782l-25.994 0.263zM1047.368 156.029h-30.983c-0.525 0-1.313-0.263-1.575-0.788-0.525-0.525-0.788-1.050-0.788-1.575v-31.508c0-0.525 0.263-1.313 0.788-1.575 0.525-0.525 1.050-0.788 1.575-0.788h30.983c1.313 0 2.363 1.050 2.363 2.363v31.508c0.263 1.050-1.050 2.363-2.363 2.363zM1019.011 124.521v26.782h25.994v-26.519l-25.994-0.263zM1085.44 156.029h-30.983c-1.313 0-2.363-1.050-2.363-2.363v-31.508c0-0.525 0.263-1.313 0.788-1.575 0.525-0.525 1.050-0.788 1.575-0.788h30.983c1.313 0 2.363 1.050 2.363 2.363v31.508c0 1.313-1.050 2.363-2.363 2.363zM1056.821 124.521v26.782h25.994v-26.519l-25.994-0.263zM1124.037 155.241c-0.525 0.525-1.050 0.788-1.575 0.788h-30.983c-1.313 0-2.363-1.050-2.363-2.363v-31.508c0-1.313 1.050-2.363 2.363-2.363h30.983c1.313 0 2.363 1.050 2.363 2.363v31.508c0 0.525-0.263 1.313-0.788 1.575zM1093.842 124.521v26.519h26.256v-26.782l-26.256 0.263zM1161.058 155.241c-0.525 0.525-1.050 0.788-1.575 0.788h-30.983c-1.313 0-2.363-1.050-2.363-2.363v-31.508c0-0.525 0.263-1.313 0.788-1.575 0.525-0.525 1.050-0.788 1.575-0.788h30.983c1.313 0 2.363 1.050 2.363 2.363v31.508c-0.263 0.525-0.525 1.313-0.788 1.575zM1130.864 124.521v26.782h25.994v-26.519l-25.994-0.263zM1198.343 155.504c-0.525 0.525-1.050 0.788-1.575 0.788h-30.983c-1.313 0-2.363-1.050-2.363-2.363v-31.508c0-0.525 0.263-1.313 0.788-1.575 0.525-0.525 1.050-0.788 1.575-0.788h30.983c1.313 0 2.363 1.050 2.363 2.363v31.508c0 0.525-0.263 1.050-0.788 1.575zM1168.148 124.521v26.782h25.994v-26.782h-25.994zM1254.269 156.291h-49.887c-1.313 0-2.363-1.050-2.363-2.363v-31.508c0-0.525 0.263-1.313 0.788-1.575 0.525-0.525 1.050-0.788 1.575-0.788h49.625c0.525 0 1.313 0.263 1.575 0.788 0.525 0.525 0.788 1.050 0.788 1.575v31.508c0.263 1.050-0.788 2.363-2.101 2.363zM1207.007 124.784v26.519h44.898v-26.519h-44.898zM1218.035 115.331c-0.525 0.525-1.050 0.788-1.575 0.788h-30.983c-1.313 0-2.363-1.050-2.363-2.363v-31.508c0-0.525 0.263-1.313 0.788-1.575 0.525-0.525 1.050-0.788 1.575-0.788h30.983c1.313 0 2.363 1.050 2.363 2.363v31.508c0 0.525-0.263 1.313-0.788 1.575zM1188.103 84.611v26.519h25.994v-26.782l-25.994 0.263zM1145.305 113.756v-31.508c0-0.525 0.263-1.313 0.788-1.575 0.525-0.525 1.050-0.788 1.575-0.788h30.983c1.313 0 2.363 1.050 2.363 2.363v31.508c0 1.313-1.050 2.363-2.363 2.363h-30.983c-1.313 0-2.363-1.050-2.363-2.363zM1176.025 111.393v-26.519h-25.994v26.782l25.994-0.263zM1107.758 113.493v-31.508c0-0.525 0.263-1.313 0.788-1.575 0.525-0.525 1.050-0.788 1.575-0.788h30.983c1.313 0 2.363 1.050 2.363 2.363v31.508c0 1.313-1.050 2.363-2.363 2.363h-30.983c-1.313 0.263-2.363-1.050-2.363-2.363zM1138.741 111.13v-26.519h-26.256v26.782l26.256-0.263zM1070.211 113.493v-31.508c0-0.525 0.263-1.313 0.788-1.575 0.525-0.525 1.050-0.788 1.575-0.788h30.983c1.313 0 2.363 1.050 2.363 2.363v31.508c0 0.525-0.263 1.313-0.788 1.575-0.525 0.525-1.050 0.788-1.575 0.788h-30.983c-1.313 0-2.363-1.050-2.363-2.363zM1101.194 111.13v-26.782h-25.994v26.519l25.994 0.263zM1032.402 113.493v-31.508c0-0.525 0.263-1.313 0.788-1.575 0.525-0.525 1.050-0.788 1.575-0.788h30.983c1.313 0 2.363 1.050 2.363 2.363v31.508c0 0.525-0.263 1.313-0.788 1.575-0.525 0.525-1.050 0.788-1.575 0.788h-30.983c-1.050 0-2.363-1.050-2.363-2.363zM1063.385 111.13v-26.782h-25.994v26.782h25.994zM994.33 113.493v-31.508c0-0.525 0.263-1.313 0.788-1.575 0.525-0.525 1.050-0.788 1.575-0.788h30.983c1.313 0 2.363 1.050 2.363 2.363v31.508c0 0.525-0.263 1.313-0.788 1.575-0.525 0.525-1.050 0.788-1.575 0.788h-30.983c-1.313 0-2.363-1.050-2.363-2.363zM1025.313 111.13v-26.782h-26.256v26.519l26.256 0.263zM956.784 113.493v-31.508c0-1.313 1.050-2.363 2.363-2.363h30.983c0.525 0 1.313 0.263 1.575 0.788 0.525 0.525 0.788 1.050 0.788 1.575v31.508c0 0.525-0.263 1.313-0.788 1.575-0.525 0.525-1.050 0.788-1.575 0.788h-30.983c-1.313 0-2.363-1.050-2.363-2.363zM987.766 111.13v-26.782h-26.256v26.519l26.256 0.263zM918.974 113.231v-31.508c0-0.525 0.263-1.313 0.788-1.575 0.525-0.525 1.050-0.788 1.575-0.788h30.983c1.313 0 2.363 1.050 2.363 2.363v31.508c0 1.313-1.050 2.363-2.363 2.363h-30.983c-1.050 0.263-2.363-1.050-2.363-2.363zM949.957 110.868v-26.519h-25.994v26.782l25.994-0.263zM881.165 113.231v-31.508c0-1.313 1.050-2.363 2.363-2.363h30.983c0.525 0 1.313 0.263 1.575 0.788 0.525 0.525 0.788 1.050 0.788 1.575v31.508c0 0.525-0.263 1.313-0.788 1.575-0.525 0.525-1.050 0.788-1.575 0.788h-30.983c-1.313 0-2.363-1.050-2.363-2.363zM912.148 110.868v-26.782h-25.994v26.519l25.994 0.263zM877.489 115.594h-30.983c-1.313 0-2.363-1.050-2.363-2.363v-31.508c0-0.525 0.263-1.313 0.788-1.575 0.525-0.525 1.050-0.788 1.575-0.788h30.983c0.525 0 1.313 0.263 1.575 0.788 0.525 0.525 0.788 1.050 0.788 1.575v31.508c0 1.313-1.050 2.363-2.363 2.363zM848.87 84.086v26.782h25.994v-26.782h-25.994zM840.468 115.594h-30.983c-0.525 0-1.313-0.263-1.575-0.788-0.525-0.525-0.788-1.050-0.788-1.575v-31.508c0-0.525 0.263-1.313 0.788-1.575 0.525-0.525 1.050-0.788 1.575-0.788h30.983c1.313 0 2.363 1.050 2.363 2.363v31.508c0.263 1.313-0.788 2.363-2.363 2.363zM812.111 84.086v26.782h25.994v-26.519l-25.994-0.263zM804.759 114.806c-0.525 0.525-1.050 0.788-1.575 0.788h-30.983c-1.313 0-2.363-1.050-2.363-2.363v-31.508c0-0.525 0.263-1.313 0.788-1.575 0.525-0.525 1.050-0.788 1.575-0.788h30.983c1.313 0 2.363 1.050 2.363 2.363v31.508c0 0.525-0.263 1.313-0.788 1.575zM774.827 84.086v26.519h25.994v-26.782l-25.994 0.263zM714.699 79.097v0h49.625c1.313 0 2.363 1.050 2.363 2.363v31.508c0 0.525-0.263 1.313-0.788 1.575-0.525 0.525-1.050 0.788-1.575 0.788h-49.625c-0.525 0-1.313-0.263-1.575-0.788-0.525-0.525-0.788-1.050-0.788-1.575v-31.508c0-0.525 0.263-1.313 0.788-1.575 0.263-0.525 1.050-0.788 1.575-0.788zM721.001 110.605h40.96v-26.782h-44.898v26.782h3.938zM1256.107 35.512c-0.525 0.525-1.050 0.788-1.575 0.788h-75.618c-1.313 0-2.363-1.050-2.363-2.363v-31.508c0-0.525 0.263-1.313 0.788-1.575 0.525-0.525 1.050-0.788 1.575-0.788h75.618c1.313 0 2.363 1.050 2.363 2.363v31.508c0 0.525-0.263 1.050-0.788 1.575zM1181.276 4.529v26.782h70.892v-26.519l-70.892-0.263zM1136.115 0.591c0.525-0.525 1.050-0.788 1.575-0.788h30.983c1.313 0 2.363 1.050 2.363 2.363v31.508c0 0.525-0.263 1.313-0.788 1.575-0.525 0.525-1.050 0.788-1.575 0.788h-30.983c-1.313 0-2.363-1.050-2.363-2.363v-31.508c0.263-0.525 0.263-1.313 0.788-1.575zM1166.31 31.311v-26.782h-25.994v26.782h25.994zM1098.568 0.328c0.525-0.525 1.050-0.788 1.575-0.788h30.983c1.313 0 2.363 1.050 2.363 2.363v31.508c0 0.525-0.263 1.313-0.788 1.575-0.525 0.525-1.050 0.788-1.575 0.788h-30.983c-1.313 0-2.363-1.050-2.363-2.363v-31.508c0.263-0.263 0.525-1.050 0.788-1.575zM1128.763 31.311v-26.782h-25.994v26.519l25.994 0.263zM1061.022 0.328c0.525-0.525 1.050-0.788 1.575-0.788h30.983c1.313 0 2.363 1.050 2.363 2.363v31.508c0 0.525-0.263 1.313-0.788 1.575-0.525 0.525-1.050 0.788-1.575 0.788h-30.983c-1.313 0-2.363-1.050-2.363-2.363v-31.508c0.263-0.525 0.525-1.050 0.788-1.575zM1091.216 31.048v-26.519h-25.994v26.782l25.994-0.263zM1023.475 0.328c0.525-0.525 1.050-0.788 1.575-0.788h30.983c1.313 0 2.363 1.050 2.363 2.363v31.508c0 0.525-0.263 1.313-0.788 1.575-0.525 0.525-1.050 0.788-1.575 0.788h-30.983c-1.313 0-2.363-1.050-2.363-2.363v-31.508c0-0.525 0.263-1.050 0.788-1.575zM1053.67 31.048v-26.782h-25.994v26.519l25.994 0.263zM986.978-0.459h30.983c0.525 0 1.313 0.263 1.575 0.788 0.525 0.525 0.788 1.050 0.788 1.575v31.508c0 1.313-1.050 2.363-2.363 2.363h-30.983c-0.525 0-1.313-0.263-1.575-0.788-0.525-0.525-0.788-1.050-0.788-1.575v-31.508c0-1.313 1.050-2.363 2.363-2.363zM1015.598 31.048v-26.782h-26.256v26.782h26.256zM947.856 0.328c0.525-0.525 1.050-0.788 1.575-0.788h30.983c1.313 0 2.363 1.050 2.363 2.363v31.508c0 1.313-1.050 2.363-2.363 2.363h-30.983c-0.525 0-1.313-0.263-1.575-0.788-0.525-0.525-0.788-1.050-0.788-1.575v-31.508c0-0.525 0.263-1.313 0.788-1.575zM978.051 31.048v-26.519h-25.994v26.782l25.994-0.263zM910.047 0.328c0.525-0.525 1.050-0.788 1.575-0.788h30.983c1.313 0 2.363 1.050 2.363 2.363v31.508c0 0.525-0.263 1.313-0.788 1.575-0.525 0.525-1.050 0.788-1.575 0.788h-30.983c-1.313 0-2.363-1.050-2.363-2.363v-31.508c0-0.525 0.263-1.313 0.788-1.575zM940.242 31.048v-26.782h-25.994v26.519l25.994 0.263zM871.975 0.066c0.525-0.525 1.050-0.788 1.575-0.788h30.983c0.525 0 1.313 0.263 1.575 0.788 0.525 0.525 0.788 1.050 0.788 1.575v31.508c0 1.313-1.050 2.363-2.363 2.363h-30.983c-1.313 0-2.363-1.050-2.363-2.363v-31.508c0.263-0.525 0.525-1.050 0.788-1.575zM902.17 31.048v-26.782h-25.994v26.782h25.994zM867.512 35.774h-30.983c-0.525 0-1.313-0.263-1.575-0.788-0.525-0.525-0.788-1.050-0.788-1.575v-31.508c0-1.313 1.050-2.363 2.363-2.363h30.983c1.313 0 2.363 1.050 2.363 2.363v31.508c0 0.525-0.263 1.313-0.788 1.575-0.263 0.525-0.788 0.788-1.575 0.788zM839.155 4.267v26.519h26.256v-26.519h-26.256zM830.753 35.512h-30.983c-1.313 0-2.363-1.050-2.363-2.363v-31.508c0-1.313 1.050-2.363 2.363-2.363h30.983c0.525 0 1.313 0.263 1.575 0.788 0.525 0.525 0.788 1.050 0.788 1.575v31.508c0 0.525-0.263 1.313-0.788 1.575-0.263 0.525-1.050 0.788-1.575 0.788zM802.133 4.004v26.519h26.256v-26.782l-26.256 0.263zM793.206 35.512h-30.983c-1.313 0-2.363-1.050-2.363-2.363v-31.508c0-0.525 0.263-1.313 0.788-1.575 0.525-0.525 1.050-0.788 1.575-0.788h30.983c0.525 0 1.313 0.263 1.575 0.788 0.525 0.525 0.788 1.050 0.788 1.575v31.508c0.263 1.313-0.788 2.363-2.363 2.363zM764.849 4.004v26.782h25.994v-26.782h-25.994zM714.962-0.722h40.172c1.313 0 2.363 1.050 2.363 2.363v31.508c0 0.525-0.263 1.313-0.788 1.575-0.525 0.525-1.050 0.788-1.575 0.788h-40.172c-0.525 0-1.313-0.263-1.575-0.788-0.525-0.525-0.788-1.050-0.788-1.575v-31.508c-0.263-1.313 0.788-2.363 2.363-2.363zM719.951 30.786h32.558v-26.782h-35.446v26.782h2.888zM747.52-4.661c-0.525 0.525-1.050 0.788-1.575 0.788h-30.983c-0.525 0-1.313-0.263-1.575-0.788-0.525-0.525-0.788-1.050-0.788-1.575v-31.508c0-0.525 0.263-1.313 0.788-1.575 0.525-0.525 1.050-0.788 1.575-0.788h30.983c1.313 0 2.363 1.050 2.363 2.363v31.508c0 0.525-0.263 1.050-0.788 1.575zM717.325-35.381v26.782h26.256v-26.519l-26.256-0.263zM784.279-4.661c-0.525 0.525-1.050 0.788-1.575 0.788h-30.983c-0.525 0-1.313-0.263-1.575-0.788-0.525-0.525-0.788-1.050-0.788-1.575v-31.508c0-1.313 1.050-2.363 2.363-2.363h30.983c1.313 0 2.363 1.050 2.363 2.363v31.508c0 0.525-0.263 1.313-0.788 1.575zM754.084-35.381v26.519h25.994v-26.519h-25.994zM819.988-3.873h-30.983c-1.313 0-2.363-1.050-2.363-2.363v-31.508c0-0.525 0.263-1.313 0.788-1.575 0.525-0.525 1.050-0.788 1.575-0.788h30.983c1.313 0 2.363 1.050 2.363 2.363v31.508c0 1.313-1.050 2.363-2.363 2.363zM791.631-35.381v26.782h25.994v-26.519l-25.994-0.263zM867.774-3.873h-40.172c-0.525 0-1.313-0.263-1.575-0.788-0.525-0.525-0.788-1.050-0.788-1.575v-31.508c0-0.525 0.263-1.313 0.788-1.575 0.525-0.525 1.050-0.788 1.575-0.788h40.172c1.313 0 2.363 1.050 2.363 2.363v31.508c0 1.313-1.050 2.363-2.363 2.363zM829.965-35.118v26.782h35.446v-26.782h-35.446zM1141.104-3.348h-30.983c-1.313 0-2.363-1.050-2.363-2.363v-31.508c0-0.525 0.263-1.313 0.788-1.575 0.525-0.525 1.050-0.788 1.575-0.788h30.983c1.313 0 2.363 1.050 2.363 2.363v31.508c0 1.313-1.050 2.363-2.363 2.363zM1112.484-34.855v26.782h25.994v-26.519l-25.994-0.263zM1104.607-4.135c-0.525 0.525-1.050 0.788-1.575 0.788h-40.172c-0.525 0-1.313-0.263-1.575-0.788-0.525-0.525-0.788-1.050-0.788-1.575v-31.508c0-1.313 1.050-2.363 2.363-2.363h40.172c1.313 0 2.363 1.050 2.363 2.363v31.508c0 0.525-0.263 1.050-0.788 1.575zM1065.223-34.855v26.782h35.446v-26.782h-35.446zM1056.295-3.348l-182.745-0.263c-1.313 0-2.363-1.050-2.363-2.363v-31.508c0-1.313 1.050-2.363 2.363-2.363l182.745 0.263c0.525 0 1.313 0.263 1.575 0.788 0.525 0.525 0.788 1.050 0.788 1.575v31.508c0.263 1.313-1.050 2.363-2.363 2.363zM1032.665-34.855l-156.488-0.263v26.519l177.756 0.263v-26.782l-21.268 0.263zM1256.107 115.594c-0.525 0.525-1.050 0.788-1.575 0.788h-30.983c-0.525 0-1.313-0.263-1.575-0.788-0.525-0.525-0.788-1.050-0.788-1.575v-31.508c0-0.525 0.263-1.313 0.788-1.575 0.525-0.525 1.050-0.788 1.575-0.788h7.352v-37.547c0-1.313 1.050-2.363 2.363-2.363h21.268c1.313 0 2.363 1.050 2.363 2.363v47.787c0 0 0 0.263 0 0.263v23.368c-0.263 0.263-0.525 1.050-0.788 1.575zM1235.627 44.702v37.547c0 0.525-0.263 1.313-0.788 1.575-0.525 0.525-1.050 0.788-1.575 0.788h-7.352v26.782h26.256v-21.268c0 0 0-0.263 0-0.263v-44.898l-16.542-0.263zM1192.829 73.846v-31.508c0-0.525 0.263-1.313 0.788-1.575 0.525-0.525 1.050-0.788 1.575-0.788h30.983c1.313 0 2.363 1.050 2.363 2.363v31.508c0 0.525-0.263 1.313-0.788 1.575-0.525 0.525-1.050 0.788-1.575 0.788h-30.983c-1.050 0-2.363-1.050-2.363-2.363zM1223.811 71.483v-26.782h-25.994v26.782h25.994zM1190.728 42.338v31.508c0 0.525-0.263 1.313-0.788 1.575-0.525 0.525-1.050 0.788-1.575 0.788h-30.983c-1.313 0-2.363-1.050-2.363-2.363v-31.508c0-0.525 0.263-1.313 0.788-1.575 0.525-0.525 1.050-0.788 1.575-0.788h30.983c1.313 0 2.363 1.050 2.363 2.363zM1160.008 44.702v26.782h25.994v-26.782h-25.994zM1152.656 40.501c0.525 0.525 0.788 1.050 0.788 1.575v31.508c0 0.525-0.263 1.313-0.788 1.575-0.525 0.525-1.050 0.788-1.575 0.788h-30.983c-1.313 0-2.363-1.050-2.363-2.363v-31.508c0-0.525 0.263-1.313 0.788-1.575 0.525-0.525 1.050-0.788 1.575-0.788h30.983c0.525 0 1.050 0.263 1.575 0.788zM1122.462 44.439v26.519h25.994v-26.782l-25.994 0.263zM1115.635 42.076v31.508c0 0.525-0.263 1.313-0.788 1.575-0.525 0.525-1.050 0.788-1.575 0.788h-30.983c-1.313 0-2.363-1.050-2.363-2.363v-31.508c0-0.525 0.263-1.313 0.788-1.575 0.525-0.525 1.050-0.788 1.575-0.788h30.983c1.313 0 2.363 1.050 2.363 2.363zM1084.915 44.439v26.782h25.994v-26.782h-25.994zM1078.088 42.076v31.508c0 0.525-0.263 1.313-0.788 1.575-0.525 0.525-1.050 0.788-1.575 0.788h-30.983c-1.313 0-2.363-1.050-2.363-2.363v-31.508c0-0.525 0.263-1.313 0.788-1.575 0.525-0.525 1.050-0.788 1.575-0.788h30.983c1.313 0 2.363 1.050 2.363 2.363zM1047.106 44.439v26.519h25.994v-26.782l-25.994 0.263zM1039.229 40.238c0.525 0.525 0.788 1.050 0.788 1.575v31.508c0 1.313-1.050 2.363-2.363 2.363h-30.983c-0.525 0-1.313-0.263-1.575-0.788-0.525-0.525-0.788-1.050-0.788-1.575v-31.508c0-1.313 1.050-2.363 2.363-2.363h30.983c0.525 0.263 1.050 0.525 1.575 0.788zM1009.034 44.439v26.782h25.994v-26.782h-25.994zM1002.47 42.076v31.508c0 1.313-1.050 2.363-2.363 2.363h-30.983c-1.313 0-2.363-1.050-2.363-2.363v-31.508c0-0.525 0.263-1.313 0.788-1.575 0.525-0.525 1.050-0.788 1.575-0.788h30.983c1.313 0 2.363 1.050 2.363 2.363zM971.487 44.439v26.782h25.994v-26.519l-25.994-0.263zM964.661 42.076v31.508c0 0.525-0.263 1.313-0.788 1.575-0.525 0.525-1.050 0.788-1.575 0.788h-30.983c-1.313 0-2.363-1.050-2.363-2.363v-31.508c0-0.525 0.263-1.313 0.788-1.575 0.525-0.525 1.050-0.788 1.575-0.788h30.983c1.313-0.263 2.363 1.050 2.363 2.363zM933.678 44.176v26.782h25.994v-26.782h-25.994zM926.064 40.238c0.525 0.525 0.788 1.050 0.788 1.575v31.508c0 0.525-0.263 1.313-0.788 1.575-0.525 0.525-1.050 0.788-1.575 0.788h-30.983c-1.313 0-2.363-1.050-2.363-2.363v-31.508c0-1.313 1.050-2.363 2.363-2.363h30.983c0.525 0 1.050 0.263 1.575 0.788zM895.869 44.176v26.519h25.994v-26.782l-25.994 0.263zM854.646 74.896c-0.525-0.525-0.788-1.050-0.788-1.575v-31.508c0-0.525 0.263-1.313 0.788-1.575 0.525-0.525 1.050-0.788 1.575-0.788h30.983c1.313 0 2.363 1.050 2.363 2.363v31.508c0 1.313-1.050 2.363-2.363 2.363h-30.983c-0.525 0-1.050-0.263-1.575-0.788zM884.841 70.958v-26.519h-25.994v26.782l25.994-0.263zM817.099 73.321v-31.508c0-1.313 1.050-2.363 2.363-2.363h30.983c0.525 0 1.313 0.263 1.575 0.788 0.525 0.525 0.788 1.050 0.788 1.575v31.508c0 0.525-0.263 1.313-0.788 1.575-0.525 0.525-1.050 0.788-1.575 0.788h-30.983c-1.313 0-2.363-1.313-2.363-2.363zM848.082 70.958v-26.782h-25.994v26.519l25.994 0.263zM779.553 73.058v-31.508c0-1.313 1.050-2.363 2.363-2.363h30.983c1.313 0 2.363 1.050 2.363 2.363v31.508c0 0.525-0.263 1.313-0.788 1.575-0.525 0.525-1.050 0.788-1.575 0.788h-30.983c-1.313 0-2.363-1.050-2.363-2.363zM810.535 70.695v-26.782h-25.994v26.519l25.994 0.263zM713.124 39.975c0.525-0.525 1.050-0.788 1.575-0.788v0h59.339c0.525 0 1.313 0.263 1.575 0.788 0.525 0.525 0.788 1.050 0.788 1.575v31.508c0 1.313-1.050 2.363-2.363 2.363h-59.339c-0.525 0-1.313-0.263-1.575-0.788-0.525-0.525-0.788-1.050-0.788-1.575v-31.508c0-0.525 0.263-1.313 0.788-1.575zM722.576 70.695h49.362v-26.519h-54.613v26.782h5.251zM473.666 858.65c14.966 0 29.932 0 45.161 0-0.525 2.363-1.050 4.726-1.575 7.352-14.966 0-30.195 0-45.161 0 0.525-2.363 1.050-4.989 1.575-7.352zM632.517 634.421c-12.866 0-25.469 0-38.334 0 0.525-2.363 1.050-4.726 1.575-7.352 12.866 0 25.469 0 38.334 0-0.788 2.626-1.313 4.989-1.575 7.352zM615.45 705.575c-13.128 0-26.256 0-39.385 0 0.525-2.363 1.050-4.726 1.575-7.352 13.128 0 26.256 0 39.385 0-0.525 2.626-1.050 4.989-1.575 7.352zM755.922 671.179c-14.966 0-29.932 0-44.636 0 0.525-2.363 0.788-4.726 1.313-7.352 14.966 0 29.67 0 44.636 0-0.525 2.626-1.050 4.989-1.313 7.352zM698.421 671.179c-10.765 0-21.53 0-32.558 0 0.525-2.363 1.050-4.726 1.313-7.352 10.765 0 21.53 0 32.295 0-0.263 2.626-0.788 4.989-1.050 7.352zM654.047 664.090c-0.525 2.363-1.050 4.726-1.575 7.352-13.916 0-27.569 0-41.485 0 0.525-2.363 1.050-4.726 1.575-7.352 13.916 0 27.832 0 41.485 0zM667.963 644.923c-0.525 2.363-1.050 4.726-1.313 7.352-17.067 0-34.396 0-51.463 0 0.525-2.363 1.050-4.726 1.575-7.352 17.067 0 34.133 0 51.2 0zM682.667 644.923c12.341 0 24.681 0 37.284 0-0.525 2.363-0.788 4.726-1.313 7.352-12.341 0-24.944 0-37.284 0 0.525-2.626 0.788-4.989 1.313-7.352zM781.653 652.012c-15.754 0-31.77 0-47.524 0 0.525-2.363 0.788-4.726 1.313-7.352 15.754 0 31.77 0 47.524 0-0.788 2.626-1.050 4.989-1.313 7.352zM797.67 644.923c10.24 0 20.217 0 30.457 0-0.263 2.363-0.525 4.726-1.050 7.352-10.24 0-20.217 0-30.457 0 0.525-2.626 0.788-4.989 1.050-7.352zM608.886 682.207c12.603 0 25.206 0 37.809 0-0.525 2.363-1.050 4.726-1.575 7.352-12.603 0-25.206 0-37.809 0 0.525-2.363 1.050-4.989 1.575-7.352zM662.187 682.207c16.016 0 32.033 0 48.312 0-0.525 2.363-0.788 4.726-1.313 7.352-16.016 0-32.295 0-48.312 0 0.263-2.363 0.788-4.989 1.313-7.352zM756.447 682.207c-0.263 2.363-0.788 4.726-1.050 7.352-10.24 0-20.48 0-30.983 0 0.525-2.363 0.788-4.726 1.313-7.352 10.24 0 20.48 0 30.72 0zM617.026 546.199c0.525-2.363 1.050-4.726 1.575-7.352 12.341 0 24.681 0 37.022 0-0.525 2.363-1.050 4.726-1.575 7.352-12.341 0-24.681 0-37.022 0zM637.243 617.354c-12.603 0-25.469 0-38.072 0 0.525-2.363 1.050-4.726 1.575-7.352 12.603 0 25.469 0 38.072 0-0.525 2.363-1.050 4.989-1.575 7.352zM731.241 575.869c14.441 0 28.619 0 43.061 0-0.263 2.363-0.788 4.726-1.050 7.352-14.441 0-28.882 0-43.323 0 0.525-2.626 0.788-4.989 1.313-7.352zM687.655 575.869c10.503 0 20.743 0 31.245 0-0.525 2.363-0.788 4.726-1.313 7.352-10.503 0-21.005 0-31.245 0 0.263-2.626 0.788-4.989 1.313-7.352zM674.79 575.869c-0.525 2.363-1.050 4.726-1.313 7.352-13.391 0-26.782 0-39.91 0 0.525-2.363 1.050-4.726 1.575-7.352 13.128 0 26.519 0 39.647 0zM637.243 563.791c0.525-2.363 1.050-4.726 1.575-7.352 16.542 0 33.083 0 49.625 0-0.525 2.363-1.050 4.726-1.313 7.352-16.804 0-33.346 0-49.887 0zM701.309 563.791c0.525-2.363 1.050-4.726 1.313-7.352 12.078 0 23.893 0 35.971 0-0.525 2.363-0.788 4.726-1.313 7.352-12.078 0-23.893 0-35.971 0zM751.984 563.791c0.525-2.363 0.788-4.726 1.313-7.352 15.229 0 30.457 0 45.949 0-0.263 2.363-0.788 4.726-1.050 7.352-15.491 0-30.72 0-46.211 0zM812.636 563.791c0.263-2.363 0.788-4.726 1.050-7.352 9.715 0 19.43 0 29.407 0-0.263 2.363-0.525 4.726-1.050 7.352-9.715 0-19.43 0-29.407 0zM631.204 593.986c12.078 0 24.418 0 36.496 0-0.525 2.363-1.050 4.726-1.575 7.352-12.078 0-24.418 0-36.496 0 0.525-2.626 1.050-4.989 1.575-7.352zM727.828 601.075c-15.491 0-31.245 0-46.736 0 0.525-2.363 1.050-4.726 1.313-7.352 15.491 0 30.983 0 46.474 0-0.263 2.626-0.525 4.989-1.050 7.352zM772.464 601.075c-9.977 0-19.955 0-29.932 0 0.525-2.363 0.788-4.726 1.313-7.352 9.977 0 19.955 0 29.67 0-0.263 2.626-0.525 4.989-1.050 7.352zM590.244 783.032c-18.117 0-35.971 0-54.088 0 0.525-2.363 1.050-4.726 1.575-7.352 17.854 0 35.971 0 53.826 0-0.263 2.363-0.788 4.726-1.313 7.352zM866.462 782.769c-12.866 0-25.731 0-38.597 0 0.263-2.363 0.525-4.726 1.050-7.352 12.866 0 25.731 0 38.334 0-0.263 2.626-0.525 4.989-0.788 7.352zM605.735 783.032c0.525-2.363 1.050-4.726 1.575-7.352 13.128 0 25.994 0 39.122 0-0.525 2.363-1.050 4.726-1.313 7.352-13.128 0-26.256 0-39.385 0zM662.449 775.68c16.542 0 33.346 0 49.887 0-0.525 2.363-0.788 4.726-1.313 7.352-16.804 0-33.346 0-50.15 0 0.525-2.626 1.050-4.989 1.575-7.352zM727.040 782.769c0.525-2.363 0.788-4.726 1.313-7.352 10.503 0 21.268 0 31.77 0-0.263 2.363-0.788 4.726-1.050 7.352-10.765 0-21.53 0-32.033 0zM771.938 782.769c0.263-2.363 0.788-4.726 1.050-7.352 13.653 0 27.044 0 40.697 0-0.263 2.363-0.525 4.726-1.050 7.352-13.391 0-27.044 0-40.697 0zM813.949 795.897c16.016 0 32.033 0 48.049 0-0.263 2.363-0.525 4.726-0.788 7.352-16.016 0-32.033 0-48.049 0 0-2.363 0.525-4.989 0.788-7.352zM568.976 795.897c11.29 0 22.843 0 34.133 0-0.525 2.363-1.050 4.726-1.575 7.352-11.553 0-22.843 0-34.396 0 0.788-2.363 1.313-4.726 1.838-7.352zM764.324 803.249c0.263-2.363 0.788-4.726 1.050-7.352 11.553 0 23.106 0 34.921 0-0.263 2.363-0.525 4.726-1.050 7.352-11.815 0-23.368 0-34.921 0zM705.51 803.249c0.525-2.363 0.788-4.726 1.313-7.352 14.704 0 29.67 0 44.373 0-0.263 2.363-0.788 4.726-1.050 7.352-14.966 0-29.932 0-44.636 0zM664.287 795.897c9.452 0 18.905 0 28.357 0-0.525 2.363-0.788 4.726-1.313 7.352-9.452 0-18.905 0-28.357 0 0.263-2.363 0.788-4.726 1.313-7.352zM614.925 803.249c0.525-2.363 1.050-4.726 1.575-7.352 12.078 0 24.156 0 36.234 0-0.525 2.363-0.788 4.726-1.313 7.352-12.341 0-24.418 0-36.496 0zM906.371 795.897c-0.263 2.363-0.525 4.726-0.788 7.352-12.078 0-23.893 0-35.971 0 0.263-2.363 0.525-4.726 0.788-7.352 12.078 0 24.156 0 35.971 0zM920.55 803.249c0.263-2.363 0.525-4.726 0.788-7.352 15.229 0 30.457 0 45.686 0-0.263 2.363-0.263 4.726-0.525 7.352-15.491 0-30.72 0-45.949 0zM605.473 837.908c-0.525 2.363-1.050 4.726-1.575 7.352-18.379 0-37.022 0-55.401 0 0.525-2.363 1.050-4.726 1.575-7.352 18.642 0 37.022 0 55.401 0zM887.204 837.908c-0.263 2.363-0.525 4.726-0.788 7.352-13.128 0-26.256 0-39.385 0 0.263-2.363 0.525-4.726 0.788-7.352 13.128 0 26.256 0 39.385 0zM661.136 837.908c-0.525 2.363-0.788 4.726-1.313 7.352-13.391 0-26.782 0-40.172 0 0.525-2.363 1.050-4.726 1.313-7.352 13.653 0 27.044 0 40.172 0zM728.615 837.908c-0.263 2.363-0.788 4.726-1.050 7.352-17.067 0-34.133 0-51.2 0 0.525-2.363 0.788-4.726 1.313-7.352 17.067 0 33.871 0 50.937 0zM777.715 837.908c-0.263 2.363-0.788 4.726-1.050 7.352-11.028 0-21.793 0-32.821 0 0.263-2.363 0.788-4.726 1.050-7.352 11.028 0 21.793 0 32.821 0zM832.591 837.908c-0.263 2.363-0.525 4.726-0.788 7.352-13.916 0-27.832 0-41.748 0 0.263-2.363 0.788-4.726 1.050-7.352 13.653 0 27.569 0 41.485 0zM820.25 825.042c0.263-2.363 0.525-4.726 1.050-7.352 19.43 0 38.859 0 58.289 0-0.263 2.363-0.525 4.726-0.788 7.352-19.692 0-39.122 0-58.552 0zM565.563 817.953c-0.525 2.363-1.050 4.726-1.575 7.352-13.916 0-27.832 0-41.485 0 0.525-2.363 1.050-4.726 1.838-7.352 13.391 0 27.307 0 41.223 0zM761.173 825.305c0.263-2.363 0.788-4.726 1.050-7.352 14.178 0 28.094 0 42.273 0-0.263 2.363-0.525 4.726-1.050 7.352-14.178 0-28.094 0-42.273 0zM689.756 825.305c0.525-2.363 0.788-4.726 1.313-7.352 17.854 0 35.971 0 53.826 0-0.263 2.363-0.788 4.726-1.050 7.352-17.854 0-35.971 0-54.088 0zM639.606 817.953c11.553 0 22.843 0 34.396 0-0.525 2.363-0.788 4.726-1.313 7.352-11.553 0-23.106 0-34.396 0 0.263-2.626 0.788-4.989 1.313-7.352zM580.004 825.305c0.525-2.363 1.050-4.726 1.575-7.352 14.704 0 29.407 0 43.848 0-0.525 2.363-1.050 4.726-1.575 7.352-14.441 0-29.145 0-43.848 0zM1004.833 817.953c-0.263 2.363-0.263 4.726-0.525 7.352-14.178 0-28.094 0-42.273 0 0.263-2.363 0.263-4.726 0.525-7.352 14.178 0 28.357 0 42.273 0zM1075.988 817.953c0 2.363-0.263 4.726-0.263 7.352-18.117 0-35.971 0-54.088 0 0-2.363 0.263-4.726 0.263-7.352 18.379 0 36.234 0 54.088 0zM1127.713 817.953c0 2.363 0 4.726 0 7.352-11.553 0-23.106 0-34.396 0 0-2.363 0.263-4.726 0.263-7.352 11.028 0 22.581 0 34.133 0zM1185.739 817.953c0 2.363 0 4.726 0 7.352-14.704 0-29.407 0-44.111 0 0-2.363 0-4.726 0-7.352 14.704 0 29.407 0 44.111 0zM942.343 817.953c-0.263 2.363-0.525 4.726-0.525 7.352-17.592 0-35.184 0-52.513 0 0.263-2.363 0.525-4.726 0.788-7.352 17.329 0 34.921 0 52.25 0zM617.288 746.010c0.525-2.363 1.050-4.726 1.575-7.352 16.016 0 32.295 0 48.312 0-0.525 2.363-0.788 4.726-1.313 7.352-16.279 0-32.295 0-48.574 0zM878.539 746.010c0.263-2.363 0.525-4.726 0.788-7.352 11.553 0 22.843 0 34.396 0-0.263 2.363-0.525 4.726-0.788 7.352-11.553 0-23.106 0-34.396 0zM681.091 738.921c11.553 0 23.368 0 34.921 0-0.525 2.363-0.788 4.726-1.313 7.352-11.815 0-23.368 0-35.184 0 0.525-2.626 1.050-4.989 1.575-7.352zM773.776 746.010c-14.966 0-29.932 0-44.898 0 0.525-2.363 0.788-4.726 1.313-7.352 14.966 0 29.67 0 44.636 0-0.263 2.626-0.525 4.989-1.050 7.352zM816.837 746.010c-9.452 0-19.167 0-28.619 0 0.263-2.363 0.788-4.726 1.050-7.352 9.452 0 18.905 0 28.619 0-0.525 2.626-0.788 4.989-1.050 7.352zM864.886 746.010c-12.078 0-24.418 0-36.496 0 0.263-2.363 0.525-4.726 1.050-7.352 12.078 0 24.418 0 36.496 0-0.263 2.626-0.525 4.989-1.050 7.352zM650.896 756.775c11.553 0 23.106 0 34.658 0-0.525 2.363-0.788 4.726-1.313 7.352-11.553 0-23.106 0-34.658 0 0.263-2.363 0.788-4.726 1.313-7.352zM747.257 756.775c9.452 0 19.167 0 28.619 0-0.263 2.363-0.788 4.726-1.050 7.352-9.715 0-19.167 0-28.882 0 0.525-2.363 1.050-4.726 1.313-7.352zM697.633 764.127c0.525-2.363 0.788-4.726 1.313-7.352 12.341 0 24.418 0 36.759 0-0.263 2.363-0.788 4.726-1.050 7.352-12.603 0-24.681 0-37.022 0zM855.171 726.055c0.263-2.363 0.525-4.726 0.788-7.352 17.067 0 33.871 0 50.937 0-0.263 2.363-0.525 4.726-0.788 7.352-17.067 0-33.871 0-50.937 0zM596.021 718.704c12.078 0 24.156 0 36.234 0-0.525 2.363-1.050 4.726-1.575 7.352-12.078 0-24.156 0-36.496 0 0.788-2.363 1.313-4.726 1.838-7.352zM840.468 726.055c-12.341 0-24.681 0-37.022 0 0.263-2.363 0.788-4.726 1.050-7.352 12.341 0 24.681 0 37.022 0-0.525 2.363-0.788 4.989-1.050 7.352zM788.217 726.055c-15.754 0-31.508 0-47.262 0 0.263-2.363 0.788-4.726 1.050-7.352 15.754 0 31.508 0 46.999 0 0 2.363-0.263 4.989-0.788 7.352zM725.99 726.055c-9.977 0-20.217 0-30.195 0 0.525-2.363 0.788-4.726 1.313-7.352 9.977 0 19.955 0 30.195 0-0.525 2.626-0.788 4.989-1.313 7.352zM646.433 718.704c12.866 0 25.731 0 38.334 0-0.525 2.363-0.788 4.726-1.313 7.352-12.866 0-25.731 0-38.597 0 0.525-2.363 1.050-4.726 1.575-7.352zM915.298 726.055c0.263-2.363 0.525-4.726 0.788-7.352 15.229 0 30.457 0 45.949 0-0.263 2.363-0.263 4.726-0.525 7.352-15.491 0-30.72 0-46.211 0zM1596.915 42.601l-46.736 85.596c-15.491 28.357-50.937 38.859-79.557 23.368-0.263-0.263-0.525-0.263-0.788-0.525-27.569-15.754-37.809-50.937-22.581-79.032l46.736-85.596c6.827-12.866 18.117-22.318 31.77-27.044 0.525-0.263 1.050-0.263 1.575-0.525s1.050-0.263 1.575-0.525c0.525-0.263 1.050-0.263 1.575-0.263 1.050-0.263 1.838-0.525 2.888-0.788 0.788-0.263 1.575-0.263 2.101-0.525 1.313-0.263 2.363-0.263 3.676-0.525 0.525 0 1.313-0.263 1.838-0.263 1.313 0 2.626-0.263 3.938-0.263 0.525 0 1.050 0 1.575 0 1.313 0 2.626 0 3.938 0.263 0.525 0 1.050 0 1.575 0 1.313 0.263 2.626 0.263 4.201 0.525 0.525 0 1.050 0.263 1.313 0.263 1.313 0.263 2.888 0.788 4.201 1.050 0.525 0 0.788 0.263 1.313 0.263 1.575 0.525 2.888 1.050 4.464 1.575 0.263 0 0.525 0.263 1.050 0.263 1.838 0.788 3.413 1.575 5.251 2.626 0.263 0.263 0.525 0.263 1.050 0.525 13.128 7.352 22.843 19.692 27.044 34.396 4.201 15.754 2.626 31.508-4.989 45.161zM1474.297 143.426c0.263 0.263 0.525 0.263 0.788 0.525 22.843 12.341 51.2 4.989 65.378-16.542-1.838-0.788-3.938-1.575-5.776-2.626-36.234-20.48-54.351-61.965-49.099-103.975l-30.457 55.664c-12.866 23.631-4.201 53.563 19.167 66.954zM1593.239 0.591c-3.676-12.866-12.341-22.843-23.893-29.67-1.313-0.788-2.888-1.313-4.201-2.101-21.268-8.927-46.999-1.838-60.39 17.854-23.631 49.099-8.665 105.813 34.396 130.232 1.838 1.050 3.676 1.838 5.776 2.626l44.373-81.395c6.302-11.29 7.614-24.681 3.938-37.547zM145.173 98.314l17.274 4.514 1.726-6.605-17.274-4.514-1.726 6.605zM88.931 313.836l17.278 4.503 1.722-6.606-17.278-4.503-1.722 6.606zM132.773 250.972l16.006 4.177 1.724-6.605-16.006-4.177-1.724 6.605zM176.671 295.818l18.294 4.764 1.72-6.606-18.294-4.764-1.72 6.606zM158.258 290.982l13.211 3.447 1.724-6.605-13.211-3.447-1.724 6.605zM135.945 285.291l17.022 4.44 1.723-6.605-17.022-4.44-1.723 6.605zM131.234 302.851l21.341 5.565 1.722-6.605-21.341-5.565-1.722 6.605zM158.484 309.877l15.497 4.043 1.723-6.605-15.497-4.043-1.723 6.605zM180.147 315.32l19.564 5.099 1.722-6.606-19.564-5.099-1.722 6.606zM206.226 322.376l12.45 3.242 1.72-6.606-12.45-3.242-1.72 6.606zM140.133 268.618l15.497 4.044 1.724-6.605-15.497-4.044-1.724 6.605zM161.953 274.404l19.564 5.097 1.721-6.606-19.564-5.097-1.721 6.606zM187.851 281.116l12.449 3.247 1.723-6.605-12.449-3.247-1.723 6.605zM142.335 178.314l21.341 5.571 1.724-6.605-21.341-5.571-1.724 6.605zM256.927 208.266l15.243 3.979 1.724-6.605-15.243-3.979-1.724 6.605zM169.78 185.427l15.499 4.038 1.721-6.606-15.499-4.038-1.721 6.606zM191.421 191.134l19.564 5.101 1.722-6.606-19.564-5.101-1.722 6.606zM217.251 197.834l12.449 3.249 1.724-6.605-12.449-3.249-1.724 6.605zM234.975 202.42l16.006 4.175 1.723-6.605-16.006-4.175-1.723 6.605zM257.041 188.419l18.8 4.906 1.724-6.605-18.8-4.906-1.724 6.605zM161.145 163.367l13.465 3.512 1.723-6.605-13.465-3.512-1.723 6.605zM238.025 183.558l13.468 3.504 1.719-6.607-13.468-3.504-1.719 6.607zM214.969 177.499l17.278 4.503 1.722-6.606-17.278-4.503-1.722 6.606zM198.375 173.115l11.179 2.916 1.723-6.605-11.179-2.916-1.723 6.605zM179.782 168.252l14.227 3.713 1.724-6.605-14.227-3.713-1.724 6.605zM279.026 194.23l13.973 3.648 1.724-6.605-13.973-3.648-1.724 6.605zM298.765 199.259l17.784 4.639 1.723-6.605-17.784-4.639-1.723 6.605zM167.558 124.268l21.343 5.56 1.721-6.606-21.343-5.56-1.721 6.606zM282.122 154.223l15.243 3.976 1.723-6.605-15.243-3.976-1.723 6.605zM195.005 131.35l15.499 4.038 1.721-6.606-15.499-4.038-1.721 6.606zM216.613 137.036l19.564 5.101 1.722-6.606-19.564-5.101-1.722 6.606zM242.516 143.764l12.45 3.245 1.722-6.606-12.45-3.245-1.722 6.606zM260.137 148.255l16.006 4.178 1.724-6.605-16.006-4.178-1.724 6.605zM266.026 169.522l22.613 5.891 1.721-6.606-22.613-5.891-1.721 6.606zM150.945 139.392l16.006 4.177 1.724-6.605-16.006-4.177-1.724 6.605zM243.299 163.548l16.26 4.24 1.722-6.605-16.26-4.24-1.722 6.605zM215.552 156.326l20.833 5.434 1.723-6.605-20.833-5.434-1.723 6.605zM195.775 151.070l13.212 3.441 1.72-6.606-13.212-3.441-1.72 6.606zM173.205 145.265l17.024 4.437 1.722-6.606-17.024-4.437-1.722 6.606zM321.101 183.711l16.26 4.246 1.725-6.605-16.26-4.246-1.725 6.605zM292.75 176.362l20.325 5.304 1.724-6.605-20.325-5.304-1.724 6.605zM162.562 219.329l19.31 5.031 1.721-6.606-19.31-5.031-1.721 6.606zM266.359 246.534l13.718 3.584 1.726-6.605-13.718-3.584-1.726 6.605zM187.39 225.774l13.975 3.642 1.722-6.606-13.975-3.642-1.722 6.606zM207.101 231.049l17.784 4.643 1.724-6.605-17.784-4.643-1.724 6.605zM230.389 237.091l11.434 2.98 1.722-6.606-11.434-2.98-1.722 6.606zM246.517 241.164l14.481 3.78 1.724-6.605-14.481-3.78-1.724 6.605zM181.059 206.695l13.716 3.589 1.728-6.604-13.716-3.589-1.728 6.604zM219.098 216.649l11.433 2.982 1.723-6.605-11.433-2.982-1.723 6.605zM200.005 211.516l14.483 3.773 1.721-6.606-14.483-3.773-1.721 6.606zM251.509 262.254l20.579 5.368 1.723-6.605-20.579-5.368-1.723 6.605zM146.939 234.914l14.483 3.771 1.72-6.606-14.483-3.771-1.72 6.606zM230.745 256.661l14.737 3.839 1.721-6.606-14.737-3.839-1.721 6.606zM205.824 250.119l19.058 4.955 1.718-6.607-19.058-4.955-1.718 6.607zM187.578 245.46l12.195 3.181 1.723-6.605-12.195-3.181-1.723 6.605zM167.174 240.048l15.497 4.041 1.722-6.605-15.497-4.041-1.722 6.605zM275.633 268.554l18.544 4.844 1.725-6.605-18.544-4.844-1.725 6.605zM169.011 88.482l16.004 4.182 1.726-6.605-16.004-4.182-1.726 6.605zM198.683 56.753l19.308 5.039 1.724-6.605-19.308-5.039-1.724 6.605zM302.651 83.764l13.72 3.574 1.721-6.606-13.72-3.574-1.721 6.606zM223.577 63.237l13.975 3.642 1.722-6.606-13.975-3.642-1.722 6.606zM243.109 68.205l17.786 4.635 1.722-6.606-17.786-4.635-1.722 6.606zM266.676 74.348l11.434 2.979 1.721-6.606-11.434-2.979-1.721 6.606zM282.651 78.59l14.481 3.78 1.724-6.605-14.481-3.78-1.724 6.605zM217.326 43.882l13.719 3.58 1.724-6.605-13.719-3.58-1.724 6.605zM255.348 53.886l11.431 2.986 1.725-6.605-11.431-2.986-1.725 6.605zM236.166 48.961l14.481 3.779 1.724-6.605-14.481-3.779-1.724 6.605zM287.768 99.427l20.581 5.364 1.722-6.606-20.581-5.364-1.722 6.606zM183.203 72.078l14.481 3.78 1.724-6.605-14.481-3.78-1.724 6.605zM266.922 94.121l14.737 3.839 1.721-6.606-14.737-3.839-1.721 6.606zM242.073 87.612l19.054 4.97 1.723-6.605-19.054-4.97-1.723 6.605zM223.857 82.645l12.196 3.178 1.722-6.606-12.196-3.178-1.722 6.606zM203.423 77.459l15.499 4.041 1.722-6.606-15.499-4.041-1.722 6.606zM311.866 105.742l18.546 4.838 1.723-6.605-18.546-4.838-1.723 6.605z" />
<glyph unicode="&#xe902;" horiz-adv-x="2028" d="M826.683 81.329h-227.446c-3.348 0-6.302 1.378-8.665 3.545-2.363 2.363-3.545 5.711-3.545 9.058 0.985 47.458-16.738 92.751-50.018 127.212-31.705 32.886-72.665 51.397-115.791 51.988-41.157 0.591-81.526-15.163-113.625-44.702-0.197 0-0.197-0.197-0.394-0.197-37.415-34.462-58.289-83.102-57.502-133.514 0-3.348-1.378-6.695-3.742-9.058s-5.514-3.545-8.862-3.348c-35.249 1.772-70.498 3.545-105.748 5.317-33.477 1.772-66.954 3.348-100.431 5.12-3.545 0.197-6.695 1.772-8.862 4.529-2.757 3.151-6.105 8.665-7.877 16.148s-0.788 13.982 0.197 18.117c1.182 4.923 5.317 8.468 10.437 8.862 0.197 0 0.394 0 0.394 0 4.529 0.394 8.468 2.56 11.225 6.105 2.954 3.545 4.135 8.074 3.545 12.603-11.225 96.295-14.572 194.363-9.649 291.643 0.788 13.785 1.575 27.175 2.363 37.612l9.058-0.197c0.985 0 1.969 0.591 2.363 1.575 16.738 51.397 25.206 78.178 25.206 79.36 0.197 2.56 11.422 67.938 17.526 103.188 2.757 16.345 5.12 29.932 6.695 38.991 0.197 0.591 0 1.378-0.394 1.772s-0.985 0.788-1.575 0.985c-7.089 0.788-13.982 0.197-20.48-1.969 10.043 12.997 24.222 21.858 40.172 25.009 3.545 0.788 7.089 1.182 11.028 1.182 253.637 7.877 545.871 13.982 710.892 14.769 52.185 0.394 126.622 0 202.831-0.788-0.985 1.182-0.788 3.151 0 4.726-76.209 0.788-150.843 1.182-203.028 0.788-165.022-0.985-457.452-6.892-711.089-14.769-4.135-0.197-8.074-0.591-11.815-1.378-19.889-3.938-37.415-16.345-47.852-33.871-0.591-0.985-0.394-1.969 0.197-2.757 0.788-0.788 1.772-0.985 2.757-0.591 0.394 0.197 0.788 0.394 1.182 0.591 0.788 0.394 1.575 0.788 2.363 1.182 5.908 2.56 12.603 3.545 19.298 3.151-1.575-9.058-3.742-21.662-6.302-36.431-14.178-82.314-17.329-100.825-17.526-103.582v0c-0.591-2.757-14.769-46.868-24.418-76.8l-9.452 0.197c-1.182 0-2.166-0.985-2.363-2.166-0.788-10.831-1.772-25.009-2.56-39.975-4.923-97.477-1.575-195.938 9.649-292.431 0.394-3.348-0.591-6.498-2.56-9.058s-4.923-4.135-8.271-4.332c-0.197 0-0.394 0-0.591-0.197-6.892-0.788-12.603-5.711-14.375-12.406-1.182-4.726-2.166-12.012-0.197-20.283 1.772-8.271 5.711-14.375 8.665-18.117s7.483-6.105 12.406-6.302c33.477-1.575 66.954-3.348 100.431-5.12 35.249-1.772 70.498-3.545 105.748-5.317 4.726-0.197 9.058 1.378 12.406 4.726s5.317 7.877 5.12 12.603c-0.788 49.034 19.495 96.295 55.729 129.772 0.197 0 0.197 0.197 0.394 0.197 31.311 28.751 70.498 44.308 110.671 43.717 41.748-0.788 81.723-18.708 112.443-50.609 32.295-33.674 49.625-77.588 48.64-123.865-0.197-4.726 1.575-9.058 4.923-12.406 3.151-3.151 7.483-5.12 12.012-5.12h227.446c0.394 2.166 0.394 3.742 0.591 5.317z" />
<glyph unicode="&#xe903;" horiz-adv-x="2028" d="M969.452 81.329c0.197-1.575 0.394-3.151 0.197-4.726h65.575c0.197 1.575 0.591 3.151 0.985 4.726h-66.757z" />
<glyph unicode="&#xe904;" horiz-adv-x="2028" d="M1618.117 275.102c-42.732 2.954-87.040-13.982-121.305-46.080-37.415-35.052-58.683-84.48-58.486-135.483 0-6.695-5.514-12.209-12.209-12.209h-98.265c0-1.575-0.394-3.151-0.788-4.726h99.052c9.255 0 16.935 7.68 16.935 16.935-0.197 49.822 20.677 98.068 57.108 132.135 33.28 31.311 76.209 47.655 117.76 44.702 27.175-1.772 54.154-12.012 77.982-29.342l2.757 3.742c-24.615 18.117-52.382 28.554-80.542 30.326z" />
<glyph unicode="&#xe905;" horiz-adv-x="2028" d="M2008.025 221.342c-2.56 5.711-5.514 10.634-9.255 15.36-0.985 1.378-1.772 2.954-2.166 4.332s-0.591 2.954-0.394 4.529c2.56 18.117 2.954 35.84 1.575 52.775-2.363 25.994-5.908 49.822-25.009 76.209-21.268 29.342-54.942 51.988-81.92 68.529-28.357 17.329-58.486 31.508-89.994 42.732l-0.394 0.197c-0.591 0.197-1.182 0.394-1.772 0.394l-61.243 11.618c-2.166 0.394-4.135 1.378-5.711 2.757-0.197 0.197-0.394 0.394-0.788 0.394-14.572 5.514-29.145 11.028-43.52 16.345s-28.751 10.831-43.126 16.345c-4.923 4.135-69.908 57.502-111.458 90.388l-1.182 0.788c-8.271 6.498-19.692 15.557-34.855 26.585-10.634 7.68-18.905 13.194-30.917 21.465-20.874 13.982-31.311 21.071-41.157 26.585-13.391 7.286-25.009 12.209-32.492 15.163-2.56 1.772-3.742 4.726-3.151 7.089 0.394 1.378 1.378 2.363 2.757 3.151 1.969 0.985 4.332 1.182 6.498 0.394 1.182-0.394 2.56 0.197 2.954 1.378s-0.197 2.56-1.378 2.954c-25.6 8.862-50.609 14.375-72.468 17.723v-4.726c18.708-2.954 39.778-7.483 61.243-14.375-2.166-1.378-3.742-3.348-4.332-5.514-1.182-4.332 0.788-9.452 5.12-12.406 0.197-0.197 0.394-0.197 0.394-0.197 7.286-2.757 18.905-7.68 32.098-14.966 9.846-5.317 20.283-12.406 40.96-26.388 12.012-8.074 20.086-13.588 30.72-21.465 15.163-11.028 26.585-19.889 34.658-26.388l1.182-0.788c42.929-34.068 111.065-89.994 111.655-90.585 0.197-0.197 0.394-0.197 0.591-0.394 14.572-5.514 29.145-11.028 43.52-16.345s28.751-10.831 43.126-16.148c2.166-1.772 4.726-2.954 7.68-3.545l61.046-11.618c0.394 0 0.985-0.197 1.575-0.394h0.394c30.917-11.028 60.849-25.206 88.812-42.142 39.385-24.222 64.394-44.898 80.542-67.151 18.511-25.403 21.858-47.655 24.222-73.846 1.378-16.542 0.985-33.871-1.575-51.791-0.197-2.363 0-4.726 0.394-6.498 0.591-1.969 1.575-4.135 2.954-6.105 3.545-4.332 6.302-9.058 8.665-14.375 4.923-11.225 6.498-23.631 4.923-37.218-0.985-9.452-3.742-19.298-7.877-29.145-3.545-8.862-8.074-17.329-13.785-25.797-0.985-1.378-1.969-2.363-3.348-3.348-11.422-7.68-22.646-15.163-34.068-22.646-0.788-0.394-1.378-0.788-2.166-1.182l-43.914-17.723c-1.575-0.591-3.151-0.985-4.529-0.985h-113.034c-3.151 0-6.302 1.182-8.468 3.545-2.363 2.363-3.545 5.514-3.545 8.862 0.591 60.062-27.372 116.775-75.225 151.434l-2.757-3.742c46.474-33.674 73.846-89.009 73.255-147.495 0-4.529 1.772-8.862 4.923-12.209 3.151-3.151 7.286-4.923 11.815-4.923h113.034c2.166 0 4.332 0.394 6.302 1.182l43.914 17.723c0.985 0.394 1.969 0.985 3.151 1.575 11.422 7.483 22.646 15.163 34.068 22.646 1.969 1.182 3.348 2.757 4.726 4.726 5.711 8.468 10.437 17.526 14.178 26.585 4.332 10.24 7.089 20.48 8.271 30.523 2.166 14.178 0.394 27.569-4.923 39.582z" />
<glyph unicode="&#xe906;" horiz-adv-x="2028" d="M26.585 140.8v0 0z" />
<glyph unicode="&#xe907;" horiz-adv-x="2028" d="M1036.8 729.6c-34.265 0.591-68.529 1.182-102.597 1.575-96.295 1.378-193.772 1.969-290.068 1.969-19.298 0-38.597 0-58.092 0v-2.56c19.298 0 38.794 0 58.092 0 96.098 0 193.772-0.591 290.068-1.969 33.871-0.394 67.742-0.985 101.612-1.575 0 0.985 0.394 1.969 0.985 2.56z" />
<glyph unicode="&#xe908;" horiz-adv-x="2028" d="M1561.009 577.378c0 0.394-0.197 0.591-0.394 0.985-2.954 2.56-5.908 5.12-8.862 7.68-28.16 24.418-57.305 48.443-86.843 71.089-40.172 30.917-86.449 51.594-136.074 61.243 0.197-0.985 0.197-1.772 0.197-2.757 48.837-9.452 94.523-29.932 134.105-60.455 29.342-22.646 58.486-46.474 86.646-70.892 2.757-2.363 5.514-4.923 8.468-7.286 1.969-33.477 2.56-67.348 1.575-100.628-0.985-31.311-2.56-78.572-11.028-125.44l-0.197-1.378c-1.182-6.105-3.151-17.526-4.923-32.886-2.166-19.495-2.757-39.188-2.166-58.486h2.56c-0.591 19.298 0 38.794 2.166 58.092 1.575 15.36 3.742 26.782 4.923 32.689l0.197 1.378c8.665 47.065 10.043 94.523 11.225 125.834 0.985 33.28 0.591 67.545-1.575 101.218z" />
<glyph unicode="&#xe909;" horiz-adv-x="2028" d="M1670.302 445.834c-41.551 43.717-85.662 86.055-131.151 125.44-27.766 24.222-56.714 47.852-85.858 70.302-36.825 28.357-78.966 47.655-124.062 56.714 0-0.985 0-1.772 0-2.757 44.505-9.255 86.055-28.16 122.486-56.123 29.145-22.449 57.895-46.080 85.662-70.302 44.505-38.794 87.828-80.148 128.788-122.88l-338.314 20.283c0.197-0.985 0.197-1.772 0.197-2.757l341.268-20.48c0 0 0 0 0 0 0.591 0 0.985 0.394 1.182 0.788 0.197 0.788 0 1.378-0.197 1.772z" />
<glyph unicode="&#xe90a;" horiz-adv-x="2028" d="M587.422 458.24v290.658h-2.56v-293.809c0.591 1.182 1.378 2.363 2.56 3.151z" />
<glyph unicode="&#xe90b;" horiz-adv-x="2028" d="M632.911 107.52c-5.711 55.926-13.785 112.443-23.828 167.582-6.302 34.855-13.588 69.908-21.662 104.172v23.434c-0.985 0.394-1.772 0.788-2.56 1.378v-24.812c0-0.197 0-0.197 0-0.394 8.074-34.462 15.36-69.514 21.662-104.172 10.043-55.532 18.117-112.443 24.025-168.566 0-0.591 0.591-1.182 1.378-1.182l195.151-1.969c0.197 0.985 0.394 1.772 0.591 2.56l-194.757 1.969z" />
<glyph unicode="&#xe90c;" horiz-adv-x="2028" d="M967.877 104.369c0-0.788-0.197-1.772-0.197-2.56l67.742-0.591c0 0.985 0.197 1.772 0.394 2.56l-67.938 0.591z" />
<glyph unicode="&#xe90d;" horiz-adv-x="2028" d="M1327.655 100.825c0.197-0.788 0.197-1.772 0.197-2.757l112.837-1.182v2.56l-113.034 1.378z" />
<glyph unicode="&#xe90e;" horiz-adv-x="2028" d="M1399.532 726.449c0 0-0.197 0-0.197 0-0.197 0-0.197 0-0.394 0.197l0.591 1.772h0.197c0.197 0 0.394-0.197 0.591-0.197l-0.788-1.772z" />
<glyph unicode="&#xe90f;" horiz-adv-x="2028" d="M1730.166 497.822c-0.197 0-0.197 0-0.394 0l-87.040 32.689c-0.197 0-0.197 0.197-0.394 0.197-0.591 0.591-68.923 56.517-111.655 90.585-6.695 5.317-19.102 15.163-35.84 27.372-10.634 7.68-18.708 13.194-30.72 21.268-19.889 13.391-30.72 20.874-40.96 26.388-10.437 5.711-21.268 10.831-32.295 14.966 0 0-0.197 0-0.197 0.197-3.938 2.56-5.711 7.089-4.726 10.831 0.591 2.166 2.363 4.135 4.726 5.317 2.757 1.378 6.105 1.575 9.058 0.591 0 0 0 0 0 0 21.268-7.483 40.369-16.345 56.32-26.585 42.535-27.175 84.677-56.123 125.046-86.252 8.074-6.105 16.345-12.209 24.615-18.117 43.717-32.295 89.009-65.772 125.243-97.871 0.394-0.394 0.394-0.985 0.197-1.378-0.197 0-0.591-0.197-0.985-0.197zM1643.52 532.48l81.526-30.72c-35.446 30.72-78.769 62.818-120.714 93.932-8.271 6.105-16.345 12.209-24.615 18.117-40.369 30.129-82.511 59.077-125.046 86.055-15.951 10.24-34.658 19.102-55.926 26.388-2.56 0.788-5.12 0.788-7.483-0.394-1.772-0.985-3.151-2.363-3.545-4.135-0.788-2.954 0.788-6.498 3.742-8.468 11.028-4.332 22.055-9.255 32.492-15.163 10.24-5.711 21.268-12.997 41.157-26.585 12.209-8.271 20.283-13.785 30.72-21.465 16.935-12.209 29.342-22.055 36.037-27.372 41.945-32.886 108.308-87.237 111.655-90.191z" />
<glyph unicode="&#xe910;" horiz-adv-x="2028" d="M1962.535 315.077c-0.197 0-0.197 0-0.394 0-16.345 2.166-32.886 5.317-49.034 9.452-50.215 12.603-100.234 34.068-149.071 64.197-2.757 1.575-3.545 5.908-2.954 9.255 0.394 2.954 1.772 4.923 3.742 5.514l67.938 17.92c0 0 0 0 0 0 0.394 0 0.591 0.197 0.985 0.197 0.591 0 0.985-0.197 0.985-0.197 0.197 0 0.591-0.197 1.182-0.197 3.348-0.591 11.815-2.363 24.615-6.892 17.723-6.302 32.098-13.785 32.098-13.982 47.262-25.206 71.089-59.865 72.862-72.074 1.182-8.862 0.197-11.225-0.985-12.209-0.394-0.788-1.182-0.985-1.969-0.985zM1833.157 419.84l0.394-1.378-67.938-17.92c-0.788-0.197-1.378-1.378-1.575-3.151-0.394-2.757 0.394-5.514 1.772-6.302 48.443-29.932 98.265-51.397 148.283-64 16.148-3.938 32.492-7.089 48.837-9.255 0.197 0 1.575 0.985 0.197 9.846-1.378 10.24-24.025 44.702-71.483 69.908-0.197 0-14.178 7.483-31.705 13.785-12.603 4.529-21.071 6.105-24.222 6.695-0.788 0.197-1.378 0.197-1.378 0.394 0 0-0.197 0-0.197 0l-0.985 1.378z" />
<glyph unicode="&#xe911;" horiz-adv-x="2028" d="M620.308 489.945c-168.369 10.634-336.738 20.086-503.926 28.16l-0.197-2.954c166.794-8.074 334.375-17.329 501.957-27.963 0.788 0.985 1.378 1.969 2.166 2.757z" />
<glyph unicode="&#xe912;" horiz-adv-x="2028" d="M1327.852 437.563c0-0.985 0-1.969 0-2.954 144.738-12.209 290.265-25.6 434.215-39.778l0.197 2.757c-143.951 14.375-289.674 27.766-434.412 39.975z" />
<glyph unicode="&#xe913;" horiz-adv-x="2028" d="M1867.618 262.892c-14.178 23.237-30.326 45.686-47.458 66.757-19.102 23.237-39.975 45.489-62.228 65.772l1.969 2.166c22.449-20.283 43.52-42.535 62.622-65.969 17.329-21.268 33.28-43.717 47.655-67.151l-2.56-1.575z" />
<glyph unicode="&#xe914;" horiz-adv-x="2028" d="M821.76 191.606l-178.806 2.757c-12.209 31.705-48.837 106.535-131.545 140.209-47.262 19.298-99.84 21.465-152.615 6.302-52.972-15.163-101.022-46.474-138.634-90.585l2.166-1.772c37.218 43.717 84.677 74.634 137.255 89.6 51.988 14.769 104.172 12.603 150.646-6.302 82.511-33.674 118.548-108.702 130.363-139.422 0.197-0.591 0.788-0.985 1.378-0.985l179.594-2.757c0 1.182 0.197 2.166 0.197 2.954z" />
<glyph unicode="&#xe915;" horiz-adv-x="2028" d="M967.68 189.44c0.197-0.985 0.197-1.969 0.394-2.954l69.12-0.985c0 0.985 0.197 1.969 0.394 2.954l-69.908 0.985z" />
<glyph unicode="&#xe916;" horiz-adv-x="2028" d="M1591.532 338.117c-92.948-5.317-177.034-65.969-214.449-154.782l-49.034 0.788c0.197-0.985 0.394-1.969 0.591-2.954l49.625-0.788c0.591 0 1.182 0.394 1.378 0.788 36.628 88.222 119.926 148.677 212.283 153.994 122.092 7.089 197.711-84.677 205.982-95.114l2.166 1.772c-8.271 10.634-84.874 103.188-208.542 96.295z" />
<glyph unicode="&#xe917;" horiz-adv-x="2028" d="M24.856 140.991l0.054 2.953 232.126-4.27-0.054-2.953-232.126 4.27z" />
<glyph unicode="&#xe918;" horiz-adv-x="2028" d="M64.394 286.917c-0.197 0-0.394 0-0.394 0-0.591 0.197-0.788 0.788-0.788 1.182 0 65.575 1.182 145.132 11.422 239.262v0c4.923 44.505 11.028 86.843 18.708 129.575 0 0.591 0.394 0.985 0.985 0.985 0.394 0.197 0.985 0 1.378-0.394 5.12-5.317 11.225-11.422 17.132-17.526 6.105-6.105 12.012-12.406 17.329-17.723 0.197-0.197 0.394-0.788 0.394-1.182-5.908-45.686-10.437-92.554-13.588-139.618s-5.12-94.72-5.514-141.785c0-0.394-0.197-0.591-0.394-0.788l-45.292-51.791c-0.591 0-0.985-0.197-1.378-0.197zM77.194 527.163c-9.846-92.16-11.422-170.535-11.422-235.323l42.535 48.64c0.394 47.065 2.363 94.523 5.514 141.588 3.151 46.868 7.877 93.735 13.588 139.225-5.12 5.12-10.831 11.225-16.738 17.132-5.317 5.514-10.634 10.831-15.36 15.754-7.483-41.945-13.391-83.495-18.117-127.015v0z" />
<glyph unicode="&#xe919;" horiz-adv-x="2028" d="M308.972 225.083v0c-0.197 0-0.197 0-0.394 0l-181.366 42.732c-11.028 2.56-18.905 12.406-18.905 23.631-0.197 14.966-0.197 30.917 0 48.64 0.394 47.065 2.363 94.917 5.514 141.982 3.151 46.868 7.877 93.735 13.588 139.028-5.12 5.12-10.831 11.225-16.738 17.132-6.105 6.105-12.012 12.209-17.132 17.526l1.969 1.969c5.12-5.317 11.225-11.422 17.132-17.526 6.105-6.105 12.012-12.406 17.329-17.723 0.394-0.394 0.394-0.788 0.394-1.182-5.908-45.686-10.437-92.554-13.588-139.618s-5.12-94.72-5.514-141.785c-0.197-17.723-0.197-33.674 0-48.64 0.197-10.043 7.089-18.511 16.738-20.874l181.366-42.732-0.394-1.182v-1.378z" />
<glyph unicode="&#xe91a;" horiz-adv-x="2028" d="M65.969 142.375c-0.985 23.237-2.166 60.258-2.56 105.354v12.012c0 9.058-0.197 18.708-0.197 28.554 0 65.575 1.182 145.132 11.422 239.262 4.923 44.505 11.028 86.843 18.708 129.575 4.923 27.963 10.634 55.729 16.738 82.708l2.56-0.591c-6.105-26.978-11.618-54.745-16.738-82.511-7.68-42.732-13.785-85.071-18.511-129.575-10.043-93.932-11.422-173.489-11.422-238.868 0-9.846 0-19.298 0.197-28.554v-12.012c0.394-45.095 1.575-82.117 2.56-105.157l-2.757-0.197z" />
<glyph unicode="&#xe91b;" horiz-adv-x="2028" d="M63.531 289.242l45.229 51.744 2.076-1.814-45.229-51.744-2.076 1.814z" />
<glyph unicode="&#xe91c;" horiz-adv-x="2028" d="M63.409 704.788l-0.985 1.772c0.394 0.197 0.788 0.394 1.182 0.591 0.197 0.197 0.591 0.197 0.788 0.394l0.985-1.772c-0.197-0.197-0.591-0.197-0.788-0.394-0.591-0.197-0.788-0.394-1.182-0.591z" />
<glyph unicode="&#xe91d;" horiz-adv-x="2028" d="M30.917 489.551v0 1.969z" />
<glyph unicode="&#xe91e;" horiz-adv-x="2028" d="M42.142 489.354c0 0 0 0 0 0l-11.225 0.197c-0.197 0-0.591 0.197-0.788 0.394s-0.394 0.591-0.197 0.788c4.726 64.788 13.194 129.772 25.009 192.985 1.575 8.271 4.529 16.148 8.862 23.434 0 0.197 0.197 0.197 0.394 0.394l0.591 0.197c0.985 0.591 2.166 1.182 3.545 1.772 7.286 3.151 15.163 4.135 23.434 3.151 0.197 0 0.591-0.197 0.788-0.394s0.197-0.591 0.197-0.788c-1.182-6.105-2.56-14.375-4.135-24.025l-2.56-14.966c-15.163-87.828-17.526-102.4-17.526-103.385 0-1.772-19.298-61.046-25.009-79.163-0.394-0.394-0.788-0.591-1.378-0.591zM32.098 491.52l9.255-0.197c9.846 30.523 24.418 75.815 24.812 77.982 0 0.197 0 1.378 17.526 103.582l2.56 14.966c1.575 9.255 2.954 16.935 3.938 23.040-7.483 0.788-14.769-0.394-21.268-3.151-1.182-0.591-2.166-0.985-3.348-1.575l-0.197-0.197c-4.135-7.089-7.089-14.572-8.468-22.646-11.618-62.818-19.889-127.409-24.812-191.803z" />
<glyph unicode="&#xe91f;" horiz-adv-x="2028" d="M1832.763 418.462c-19.102 5.514-38.203 11.028-56.517 16.148-12.8 3.545-25.403 7.089-37.809 10.24-19.298 5.12-35.052 21.465-39.385 40.763v0.394c-1.772 8.271-2.954 16.738-3.545 25.206l2.954 0.197c0.591-8.271 1.575-16.738 3.348-24.812v-0.394c3.938-18.314 18.905-33.674 37.218-38.597 12.406-3.348 25.009-6.695 37.809-10.24 18.511-5.12 37.415-10.437 56.714-16.148l-0.788-2.757z" />
<glyph unicode="&#xe920;" horiz-adv-x="2028" d="M1928.862 371.988c-27.766 26.191-58.289 49.822-90.585 70.302-32.098 20.48-66.56 37.809-101.809 51.988l0.985 2.757c35.643-14.178 70.105-31.705 102.4-52.185 32.492-20.48 63.015-44.308 90.978-70.498l-1.969-2.363z" />
<glyph unicode="&#xe921;" horiz-adv-x="2028" d="M1973.957 136.862c-0.197 0-0.197 0-0.394 0l-64.788 2.363c-9.649 0.394-17.329 12.997-17.329 28.948 0 10.437 0 22.449 0 32.689v0c0 9.058 3.151 17.329 8.271 20.874 2.757 1.969 5.711 2.363 8.468 1.182 15.951-5.711 31.508-14.572 46.277-26.191 8.862-6.892 17.526-14.966 25.797-23.828 6.695-7.286 6.892-20.283 3.151-28.554-2.166-4.923-5.514-7.483-9.452-7.483zM1905.034 220.948c-1.378 0-2.757-0.394-3.938-1.378-4.332-3.151-7.286-10.437-7.286-18.708v0c0-10.24 0-22.252 0-32.689 0-14.375 6.695-26.191 14.966-26.388l64.788-2.363c0 0 0.197 0 0.197 0 3.938 0 6.105 3.742 7.089 5.908 3.348 7.483 3.151 19.495-2.757 25.797-8.074 8.862-16.738 16.738-25.403 23.631-14.572 11.422-29.932 20.086-45.489 25.797-0.591 0.197-1.378 0.394-2.166 0.394z" />
<glyph unicode="&#xe922;" horiz-adv-x="2028" d="M1920.788 150.646c-6.498 0-11.225 11.618-11.225 26.978v0 0c0 7.089 0.985 13.588 2.954 18.708 2.166 5.514 5.12 8.468 8.271 8.468 6.498 0 11.225-11.618 11.225-26.978 0-7.089-0.985-13.588-2.954-18.708-2.166-5.514-5.12-8.468-8.271-8.468zM1920.788 202.043c-1.969 0-4.135-2.56-5.711-6.695-1.772-4.726-2.757-11.028-2.757-17.723v0c0-14.375 4.529-24.222 8.468-24.222 1.969 0 4.135 2.56 5.711 6.695 1.772 4.726 2.757 11.028 2.757 17.723 0 14.178-4.529 24.222-8.468 24.222z" />
<glyph unicode="&#xe923;" horiz-adv-x="2028" d="M1487.951 469.465h-9.058c-3.938 0-7.877 1.772-10.634 4.923-3.938 4.135-5.908 10.437-5.317 16.935l6.892 88.222c0.394 3.938 2.166 7.483 4.923 10.043 2.757 2.363 6.302 3.545 9.846 3.151l6.892-0.591c7.483-0.591 13.391-7.286 13.391-15.163v-49.428l56.32-9.058 38.203-42.338-94.72 16.935v-2.363c0.394-11.815-7.286-21.268-16.738-21.268zM1483.618 590.178c-2.56 0-5.12-0.985-7.089-2.56-2.363-1.969-3.742-4.923-4.135-8.074l-6.892-88.222c-0.394-5.711 1.378-11.422 4.726-14.966 2.363-2.56 5.514-3.938 8.665-3.938h9.058c7.877 0 14.375 8.271 14.375 18.511v5.514l89.994-16.148-32.492 35.84-55.729 9.058c-0.197 0-0.394 0-0.788 0h-1.182v51.988c0 6.498-4.726 12.012-11.028 12.406l-6.892 0.591c0 0-0.394 0-0.591 0z" />
<glyph unicode="&#xe924;" horiz-adv-x="2028" d="M1606.498-47.262c-79.754 0-144.542 64.788-144.542 144.542s64.788 144.542 144.542 144.542 144.542-64.788 144.542-144.542-64.788-144.542-144.542-144.542zM1606.498 236.898c-76.997 0-139.618-62.622-139.618-139.618s62.622-139.618 139.618-139.618 139.618 62.622 139.618 139.618-62.622 139.618-139.618 139.618z" />
<glyph unicode="&#xe925;" horiz-adv-x="2028" d="M1606.498 3.348c-51.791 0-93.932 42.142-93.932 93.932s42.142 93.932 93.932 93.932c51.791 0 93.932-42.142 93.932-93.932s-42.142-93.932-93.932-93.932zM1606.498 188.652c-50.412 0-91.372-40.96-91.372-91.372s40.96-91.372 91.372-91.372 91.372 40.96 91.372 91.372-40.96 91.372-91.372 91.372z" />
<glyph unicode="&#xe926;" horiz-adv-x="2028" d="M1606.695 86.646c-0.985 0-1.772 0.197-2.757 0.394-5.908 1.575-9.452 7.483-7.877 13.194s7.483 9.058 13.194 7.68c5.908-1.575 9.452-7.483 7.877-13.194-1.378-4.923-5.711-8.074-10.437-8.074zM1606.302 105.551c-3.742 0-7.089-2.363-8.074-6.105-1.182-4.332 1.575-9.058 6.105-10.24s9.255 1.378 10.24 5.908c1.182 4.332-1.575 9.058-6.105 10.24-0.591 0.197-1.378 0.197-2.166 0.197z" />
<glyph unicode="&#xe927;" horiz-adv-x="2028" d="M1618.117 133.711c-0.591 0-1.378 0-1.969 0.197-2.363 0.591-4.332 2.166-5.317 4.529l-11.618 26.191c-1.575 3.348-0.591 7.483 2.56 9.649l6.498 4.923c1.378 1.182 3.151 1.575 5.12 1.575 1.378 0 2.757-0.197 3.938-0.197 3.545-0.394 7.089-0.985 10.437-1.969 3.545-0.788 6.892-1.969 10.043-3.348 1.182-0.591 2.363-1.182 3.545-1.772 1.575-0.788 2.954-2.166 3.742-3.938l3.348-7.483c1.575-3.348 0.394-7.483-2.56-9.649l-22.843-17.132c-1.575-0.985-3.348-1.575-4.923-1.575zM1612.997 178.412c-1.182 0-2.56-0.394-3.348-1.182l-6.695-4.923c-2.166-1.575-2.757-4.332-1.772-6.695l11.618-26.191c0.788-1.575 1.969-2.757 3.742-3.151 1.575-0.394 3.348 0 4.726 0.985l22.843 17.132c2.166 1.575 2.757 4.332 1.772 6.695l-3.348 7.483c-0.591 1.182-1.378 2.166-2.56 2.757s-2.363 1.182-3.545 1.575c-3.151 1.378-6.302 2.363-9.649 3.151 0 0 0 0 0 0-3.348 0.985-6.695 1.575-10.043 1.969-1.182 0.394-2.363 0.394-3.742 0.394 0 0 0 0 0 0z" />
<glyph unicode="&#xe928;" horiz-adv-x="2028" d="M1675.225 76.012c-1.575 0-3.151 0.394-4.726 1.575l-23.434 16.542c-1.969 1.378-3.151 3.545-3.348 6.105-0.197 2.363 0.788 4.726 2.56 6.498l21.268 19.102c2.757 2.56 6.892 2.757 10.043 0.591l6.695-4.726c1.575-0.985 2.56-2.56 3.151-4.332 0.394-1.182 0.788-2.56 0.985-3.938 0.788-3.545 1.182-7.089 1.378-10.634 0.394-3.545 0.197-7.089 0-10.634-0.197-1.378-0.394-2.56-0.591-3.938-0.394-1.772-1.182-3.545-2.56-4.726l-6.105-5.514c-1.575-1.378-3.348-1.969-5.317-1.969zM1673.058 125.44c-1.378 0-2.757-0.394-3.742-1.378l-21.268-19.102c-1.378-1.182-1.969-2.757-1.772-4.529s0.985-3.348 2.363-4.332l23.434-16.542c2.166-1.575 4.923-1.378 6.892 0.394l6.105 5.514c0.985 0.788 1.575 1.969 1.772 3.348 0.197 1.182 0.394 2.56 0.591 3.742 0.394 3.348 0.394 6.892 0 10.24 0 0 0 0 0 0-0.197 3.348-0.591 6.892-1.182 10.043-0.197 1.182-0.591 2.56-0.985 3.742s-1.182 2.363-2.166 3.151l-6.695 4.726c-0.985 0.591-2.166 0.985-3.348 0.985z" />
<glyph unicode="&#xe929;" horiz-adv-x="2028" d="M1623.434 16.345c-1.378 0-2.757 0.394-3.938 0.985l-7.286 3.938c-3.348 1.772-4.923 5.711-3.742 9.255l8.074 27.569c0.591 2.363 2.363 4.332 4.726 5.12 2.363 0.985 4.726 0.788 6.892-0.394l25.009-13.982c3.348-1.772 4.923-5.711 3.742-9.255l-2.363-7.877c-0.591-1.772-1.575-3.348-3.151-4.332-0.985-0.788-2.166-1.575-3.348-2.166-2.954-1.772-6.302-3.348-9.452-4.726-3.348-1.378-6.695-2.56-10.043-3.348-1.378-0.394-2.56-0.591-3.938-0.788-0.394 0-0.788 0-1.182 0zM1624.222 61.44c-0.788 0-1.378-0.197-2.166-0.394-1.575-0.591-2.757-1.969-3.348-3.545l-8.074-27.569c-0.788-2.56 0.394-5.12 2.56-6.498l7.286-3.938c1.182-0.591 2.363-0.788 3.742-0.591 1.182 0.197 2.56 0.394 3.742 0.788 3.348 0.788 6.498 1.772 9.649 3.348 0 0 0 0 0 0 3.151 1.182 6.302 2.757 9.255 4.529 1.182 0.591 2.166 1.378 3.151 2.166s1.772 1.772 2.166 3.151l2.363 7.877c0.788 2.56-0.394 5.12-2.757 6.498l-25.009 13.982c-0.788 0-1.772 0.197-2.56 0.197z" />
<glyph unicode="&#xe92a;" horiz-adv-x="2028" d="M1556.677 33.871c-1.772 0-3.545 0.591-4.923 1.772-0.985 0.788-2.166 1.772-2.954 2.56-2.56 2.363-5.12 5.12-7.089 7.877-2.363 2.757-4.332 5.711-6.105 8.665-0.591 1.182-1.182 2.363-1.772 3.545-0.788 1.575-0.985 3.545-0.591 5.317l1.969 8.074c0.788 3.742 4.135 6.105 7.877 6.105 0 0 0 0 0 0h28.751c2.363 0 4.726-1.182 6.302-2.954 1.575-1.969 2.166-4.332 1.575-6.892l-6.498-27.963c-0.788-3.742-4.135-6.302-7.877-6.302l-8.665 0.197c0 0 0 0 0 0zM1542.695 75.422c-2.56 0-4.923-1.772-5.514-4.332l-1.969-8.074c-0.197-1.182-0.197-2.56 0.394-3.742s1.182-2.363 1.772-3.348c1.575-2.954 3.545-5.711 5.908-8.468 0 0 0 0 0 0 1.969-2.757 4.332-5.317 6.892-7.483 0.985-0.788 1.969-1.772 2.954-2.56s2.166-1.182 3.545-1.182c0 0 0 0 0 0h8.271c2.56 0 4.923 1.772 5.514 4.332l6.498 27.963c0.394 1.772 0 3.348-0.985 4.726s-2.757 2.166-4.332 2.166h-28.948c0 0 0 0 0 0z" />
<glyph unicode="&#xe92b;" horiz-adv-x="2028" d="M1539.742 111.262c-3.348 0-6.498 2.166-7.483 5.317l-2.757 7.877c-0.591 1.772-0.591 3.545 0 5.317 0.394 1.182 0.985 2.56 1.378 3.742 1.378 3.151 3.151 6.302 5.12 9.255 1.772 2.954 3.938 5.908 6.302 8.665 0.788 0.985 1.772 1.969 2.757 2.954 1.378 1.378 2.954 2.166 4.923 2.363l8.271 0.788c3.742 0.394 7.286-1.772 8.468-5.317l9.255-27.175c0.788-2.363 0.591-4.923-0.788-6.892s-3.545-3.348-5.908-3.742l-28.554-2.954c-0.591-0.197-0.788-0.197-0.985-0.197zM1558.843 154.978c-0.197 0-0.394 0-0.591 0l-8.271-0.788c-1.182-0.197-2.56-0.788-3.348-1.575-0.985-0.985-1.772-1.772-2.56-2.757-2.166-2.56-4.332-5.317-6.105-8.271 0 0 0 0 0 0-1.969-2.757-3.545-5.908-4.923-9.058-0.591-1.182-0.985-2.363-1.378-3.545s-0.394-2.56 0-3.742l2.757-7.877c0.788-2.56 3.348-3.938 5.908-3.742l28.554 2.954c1.772 0.197 3.151 1.182 4.135 2.56s1.182 3.151 0.591 4.923l-9.255 27.175c-0.985 2.363-3.151 3.742-5.514 3.742z" />
<glyph unicode="&#xe92c;" horiz-adv-x="2028" d="M422.991-47.262c-79.754 0-144.542 64.788-144.542 144.542s64.788 144.542 144.542 144.542 144.542-64.788 144.542-144.542-64.788-144.542-144.542-144.542zM422.991 236.898c-76.997 0-139.618-62.622-139.618-139.618s62.622-139.618 139.618-139.618 139.618 62.622 139.618 139.618-62.622 139.618-139.618 139.618z" />
<glyph unicode="&#xe92d;" horiz-adv-x="2028" d="M422.991 3.348c-51.791 0-93.932 42.142-93.932 93.932s42.142 93.932 93.932 93.932 93.932-42.142 93.932-93.932-42.142-93.932-93.932-93.932zM422.991 188.652c-50.412 0-91.372-40.96-91.372-91.372s40.96-91.372 91.372-91.372 91.372 40.96 91.372 91.372-40.96 91.372-91.372 91.372z" />
<glyph unicode="&#xe92e;" horiz-adv-x="2028" d="M423.188 86.646c-0.985 0-1.772 0.197-2.757 0.394-2.757 0.788-5.12 2.56-6.695 4.923-1.575 2.56-1.969 5.317-1.182 8.074s2.56 5.12 4.923 6.498c2.56 1.378 5.514 1.772 8.271 1.182 5.908-1.575 9.452-7.483 7.877-13.194v0c-1.182-4.726-5.514-7.877-10.437-7.877zM422.991 105.551c-1.575 0-2.954-0.394-4.332-1.182-1.969-1.182-3.348-2.954-3.938-5.12s-0.197-4.332 0.985-6.302c1.182-1.969 2.954-3.348 5.317-3.938 4.529-1.182 9.255 1.378 10.24 5.908v0c1.182 4.332-1.575 9.058-6.105 10.24-0.788 0.394-1.575 0.394-2.166 0.394zM432.443 94.917v0 0z" />
<glyph unicode="&#xe92f;" horiz-adv-x="2028" d="M434.609 133.711c-0.591 0-1.378 0-1.969 0.197-2.363 0.591-4.332 2.166-5.317 4.529l-11.618 26.191c-1.575 3.348-0.591 7.483 2.56 9.649l6.498 4.923c1.378 1.182 3.348 1.772 5.12 1.575 1.378 0 2.757-0.197 3.938-0.197 3.545-0.394 7.089-0.985 10.437-1.969 3.545-0.788 6.892-1.969 10.043-3.348 1.182-0.591 2.363-1.182 3.545-1.772 1.575-0.788 2.954-2.166 3.742-3.938l3.348-7.483c1.575-3.348 0.394-7.483-2.56-9.649l-22.843-17.132c-1.575-0.985-3.151-1.575-4.923-1.575zM429.489 178.412c-1.182 0-2.363-0.394-3.348-1.182l-6.695-4.923c-2.166-1.575-2.757-4.332-1.772-6.695l11.618-26.191c0.788-1.575 1.969-2.757 3.742-3.151 1.575-0.394 3.348 0 4.726 0.985l22.843 17.132c2.166 1.575 2.757 4.332 1.772 6.695l-3.348 7.483c-0.591 1.182-1.378 2.166-2.56 2.757s-2.363 1.182-3.545 1.575c-3.151 1.378-6.302 2.363-9.649 3.151 0 0 0 0 0 0-3.348 0.985-6.695 1.575-10.043 1.969-0.985 0.394-2.363 0.394-3.742 0.394 0.197 0 0 0 0 0z" />
<glyph unicode="&#xe930;" horiz-adv-x="2028" d="M491.717 76.012c-1.575 0-3.151 0.394-4.726 1.575l-23.434 16.542c-1.969 1.378-3.151 3.545-3.348 6.105s0.788 4.726 2.56 6.498l21.268 19.102c2.757 2.56 6.892 2.757 10.043 0.591l6.695-4.726c1.575-0.985 2.56-2.56 3.151-4.332 0.394-1.182 0.788-2.56 0.985-3.938 0.788-3.545 1.182-7.089 1.378-10.634 0.394-3.545 0.197-7.089 0-10.634-0.197-1.378-0.394-2.56-0.591-3.938-0.394-1.772-1.182-3.545-2.56-4.726l-6.105-5.514c-1.378-1.378-3.348-1.969-5.317-1.969zM489.748 125.44c-1.378 0-2.757-0.394-3.742-1.378l-21.268-19.102c-1.378-1.182-1.969-2.757-1.772-4.529s0.985-3.348 2.363-4.332l23.434-16.542c2.166-1.575 4.923-1.378 6.892 0.394l6.105 5.514c0.985 0.788 1.575 1.969 1.772 3.348 0.197 1.182 0.394 2.56 0.591 3.742 0.394 3.348 0.394 6.892 0 10.24 0 0 0 0 0 0-0.197 3.348-0.591 6.892-1.182 10.043-0.197 1.182-0.591 2.56-0.985 3.742s-1.182 2.363-2.166 3.151l-6.695 4.726c-1.182 0.591-2.166 0.985-3.348 0.985z" />
<glyph unicode="&#xe931;" horiz-adv-x="2028" d="M439.926 16.345c-1.378 0-2.757 0.394-3.938 0.985l-7.286 3.938c-3.348 1.772-4.923 5.711-3.742 9.255l8.074 27.569c0.591 2.363 2.363 4.332 4.726 5.12 2.363 0.985 4.726 0.788 6.892-0.394l25.009-13.982c3.348-1.772 4.923-5.711 3.742-9.255l-2.363-7.877c-0.591-1.772-1.575-3.348-3.151-4.332-0.985-0.788-2.166-1.575-3.348-2.166-2.954-1.772-6.302-3.348-9.452-4.726-3.348-1.378-6.695-2.56-10.043-3.348-1.378-0.394-2.56-0.591-3.938-0.788-0.197 0-0.788 0-1.182 0zM440.714 61.44c-0.788 0-1.378-0.197-2.166-0.394-1.575-0.591-2.757-1.969-3.348-3.545l-8.074-27.569c-0.788-2.56 0.394-5.12 2.56-6.498l7.286-3.938c1.182-0.591 2.363-0.788 3.742-0.591 1.182 0.197 2.56 0.394 3.742 0.788 3.348 0.788 6.498 1.772 9.649 3.348 0 0 0 0 0 0 3.151 1.182 6.302 2.757 9.255 4.529 1.182 0.591 2.166 1.378 3.151 2.166s1.772 1.772 2.166 3.151l2.363 7.877c0.788 2.56-0.394 5.12-2.757 6.498l-25.009 13.982c-0.591 0-1.575 0.197-2.56 0.197z" />
<glyph unicode="&#xe932;" horiz-adv-x="2028" d="M373.169 33.871c-1.772 0-3.545 0.591-4.923 1.772-0.985 0.788-2.166 1.772-2.954 2.56-2.56 2.363-5.12 4.923-7.089 7.877-2.363 2.757-4.332 5.711-6.105 8.665-0.591 1.182-1.182 2.363-1.772 3.545-0.788 1.575-0.985 3.545-0.591 5.317l1.969 8.074c0.788 3.742 4.135 6.105 7.877 6.105 0 0 0 0 0 0h28.751c2.363 0 4.726-1.182 6.302-2.954s2.166-4.332 1.575-6.892l-6.498-27.963c-0.788-3.742-4.135-6.302-7.877-6.302l-8.665 0.197c0.197 0 0.197 0 0 0zM359.188 75.422c-2.56 0-4.923-1.772-5.514-4.332l-1.969-8.074c-0.197-1.182-0.197-2.56 0.394-3.742s1.182-2.363 1.772-3.348c1.575-2.954 3.545-5.711 5.908-8.468 0 0 0 0 0 0 1.969-2.757 4.332-5.317 6.892-7.483 0.985-0.788 1.969-1.772 2.954-2.56s2.363-1.378 3.545-1.182h8.271c2.56 0 4.923 1.772 5.514 4.332l6.498 27.963c0.394 1.772 0 3.348-0.985 4.726s-2.757 2.166-4.332 2.166h-28.948c0 0 0 0 0 0z" />
<glyph unicode="&#xe933;" horiz-adv-x="2028" d="M356.234 111.262c-3.348 0-6.498 2.166-7.483 5.317l-2.757 7.877c-0.591 1.772-0.591 3.545 0 5.317 0.394 1.182 0.985 2.56 1.378 3.742 1.378 3.348 3.151 6.302 5.12 9.255 1.772 2.954 3.938 5.908 6.302 8.665 0.788 0.985 1.772 1.969 2.757 2.954 1.378 1.378 2.954 2.166 4.923 2.363l8.271 0.788c3.742 0.394 7.286-1.772 8.468-5.317l9.255-27.175c0.788-2.363 0.591-4.923-0.788-6.892-1.378-2.166-3.545-3.348-5.908-3.742l-28.554-2.954c-0.394-0.197-0.788-0.197-0.985-0.197zM375.335 154.978c-0.197 0-0.394 0-0.591 0l-8.271-0.788c-1.182-0.197-2.363-0.591-3.348-1.575s-1.772-1.772-2.56-2.757c-2.166-2.56-4.332-5.317-6.105-8.271 0 0 0 0 0 0-1.969-2.757-3.545-5.908-4.923-9.058-0.591-1.182-0.985-2.363-1.378-3.545s-0.394-2.56 0-3.742l2.757-7.877c0.788-2.56 3.348-3.938 5.908-3.742l28.554 2.954c1.772 0.197 3.151 1.182 4.135 2.56s1.182 3.151 0.591 4.923l-9.255 27.175c-0.985 2.363-2.954 3.742-5.514 3.742z" />
<glyph unicode="&#xe934;" horiz-adv-x="2028" d="M2003.102 151.040c0 0 0 0 0 0-0.394 0-0.788 0.394-0.985 0.788-2.166 6.498-5.711 17.132-9.452 29.735-0.197 0.591 0.197 1.182 0.788 1.378l0.591 0.197c0 0 0.197 0 0.394 0h16.738c0.394 0 0.591-0.197 0.788-0.394s0.394-0.591 0.197-0.788c-1.182-9.846-3.938-19.889-8.074-30.129-0.197-0.591-0.591-0.788-0.985-0.788zM1995.028 180.775c3.151-10.437 5.908-19.298 8.074-25.797 3.348 8.665 5.711 17.329 6.695 25.797h-14.769z" />
<glyph unicode="&#xe935;" horiz-adv-x="2028" d="M1993.649 180.185c-0.591 0-1.182 0.394-1.378 0.985-7.089 23.631-12.012 44.308-14.769 61.637 0 0.394 0 0.985 0.394 1.378s0.788 0.394 1.378 0.394l15.557-2.954c0.591-0.197 0.985-0.591 1.182-1.182 0.394-1.575 1.182-3.151 2.363-4.529 3.742-4.529 6.695-9.452 9.255-15.163 5.12-11.815 6.892-25.009 5.317-39.188 0-0.788-0.788-1.378-1.575-1.378h-16.542l-0.394-0.197c-0.394 0.197-0.591 0.197-0.788 0.197zM1994.634 183.335h14.966c1.378 13.194-0.394 25.403-5.317 36.431-2.363 5.317-5.317 10.043-8.862 14.572-1.182 1.575-1.969 3.151-2.56 4.726l-12.406 2.363c2.954-16.542 7.68-36.037 14.178-58.092z" />
<glyph unicode="&#xe936;" horiz-adv-x="2028" d="M1994.437 239.262c-0.197 0-0.197 0 0 0l-15.754 2.954c-0.394 0-0.788 0.394-0.788 0.788-4.726 30.326-1.969 48.64 7.877 54.351 2.757 1.575 5.908 2.166 9.846 1.772 0.591 0 0.985-0.394 0.985-0.985 1.378-16.738 0.985-34.462-1.575-52.382-0.197-1.969 0-3.742 0.394-5.12 0.197-0.394 0-0.788-0.197-0.985s-0.591-0.394-0.788-0.394zM1979.865 243.988l13.194-2.363c-0.197 1.378-0.197 2.757 0 4.332 2.363 17.526 2.954 34.658 1.575 51.003-2.954 0.197-5.711-0.394-7.68-1.575 0 0 0 0 0 0-9.255-5.12-11.618-22.252-7.089-51.397z" />
<glyph unicode="&#xe937;" horiz-adv-x="2028" d="M65.772 703.803l-3.938 2.56 0.197 0.197c0 0.197 0.197 0.394 0.197 0.394l3.938-2.56-0.197-0.197c0-0.197-0.197-0.394-0.197-0.394z" />
<glyph unicode="&#xe938;" horiz-adv-x="2028" d="M66.166 704.394l-3.938 2.363 0.197 0.394c0 0.197 0.197 0.394 0.394 0.591 0 0.197 0.197 0.394 0.394 0.394l1.772-1.772 1.772-1.182-0.197-0.394c-0.197 0-0.197-0.197-0.394-0.394z" />
<glyph unicode="&#xe939;" horiz-adv-x="2028" d="M1994.043 238.868l-125.046 23.237-21.071-13.391c-10.043-6.498-21.662-9.649-33.674-9.452l-117.169 2.363v2.954l117.366-2.363c11.422-0.394 22.449 2.757 31.902 8.862l21.465 13.785c0.394 0.197 0.591 0.197 0.985 0.197l125.637-23.237-0.394-2.954z" />
<glyph unicode="&#xe93a;" horiz-adv-x="2028" d="M2001.723 151.631c-2.166 6.498-5.711 17.132-9.452 29.735-7.089 23.631-12.012 44.308-14.769 61.637-4.726 30.523-1.969 49.034 8.074 54.745 2.757 1.575 6.105 2.166 10.043 1.969l-0.197-2.954c-3.348 0.394-6.105-0.197-8.468-1.575-8.862-5.12-11.028-22.843-6.695-51.791 2.757-17.132 7.68-37.809 14.769-61.243 3.742-12.603 7.089-23.040 9.452-29.538l-2.757-0.985z" />
<glyph unicode="&#xe93b;" horiz-adv-x="2028" d="M1994.437 184.32h16.738v-4.726h-16.738v4.726z" />
<glyph unicode="&#xe93c;" horiz-adv-x="2028" d="M1943.631 361.354h35.249v-2.954h-35.249v2.954z" />
<glyph unicode="&#xe93d;" horiz-adv-x="2028" d="M1080.517-11.225c-0.591 0-1.378 0.197-1.772 0.788-0.591 0.591-0.985 1.378-0.985 2.166l-2.363 950.351c0 0.788 0.394 1.575 0.985 2.166s1.378 0.788 2.166 0.788l249.895-25.206c1.378-0.197 2.56-1.378 2.56-2.757l0.788-896.394c0-1.378-0.985-2.56-2.56-2.757l-248.517-28.948c0-0.197-0.197-0.197-0.197-0.197zM1080.911 939.126l2.166-944.443 242.806 28.357-0.591 891.471-244.382 24.615z" />
<glyph unicode="&#xe93e;" horiz-adv-x="2028" d="M1080.32-11.422c-0.197 0-0.591 0-0.788 0.197l-19.102 6.302c-1.182 0.394-1.969 1.378-1.969 2.56v941.095c0 1.378 0.985 2.56 2.166 2.757l16.935 3.545c0.985 0.197 1.772 0 2.56-0.788s1.182-1.772 0.788-2.954l2.166-949.366c0.197-0.985-0.197-1.969-0.985-2.56l-0.197-0.197c-0.394-0.394-0.985-0.591-1.575-0.591zM1063.975-0.197l13.588-4.529-2.166 943.655-11.422-2.363v-936.763z" />
<glyph unicode="&#xe93f;" horiz-adv-x="2028" d="M1061.218-4.923c0 0 0 0 0 0-5.514 0.197-9.649 2.166-12.012 6.302-0.197 0.394-0.394 0.985-0.394 1.378v928.492c0 0.788 0.394 1.772 0.985 2.166l9.846 7.68c0.985 0.788 2.56 0.788 3.545-0.197 0.788-0.788 1.182-1.772 0.788-2.757 0 0 0-0.197 0-0.197v-940.111c0-0.985-0.394-1.772-1.182-2.363v0c-0.591-0.394-0.985-0.394-1.575-0.394zM1054.129 3.545c0.985-1.378 2.363-2.363 4.135-2.757v932.431l-4.135-3.348v-926.326z" />
<glyph unicode="&#xe940;" horiz-adv-x="2028" d="M1051.372 0c-0.985 0-1.969 0.591-2.56 1.575l-15.163 30.72c-0.197 0.394-0.197 0.788-0.197 1.182v885.169c0 0.788 0.394 1.575 0.985 2.166l14.769 12.603c0.788 0.591 1.772 0.788 2.757 0.394l0.394-0.197c0.985-0.394 1.772-1.378 1.772-2.56v-928.098c0-0.197 0-0.394 0-0.591 0-1.182-0.788-1.969-1.772-2.363-0.197 0-0.591 0-0.985 0zM1039.163 34.068l9.649-19.495v910.966l-9.649-8.074v-883.397z" />
<glyph unicode="&#xe941;" horiz-adv-x="2028" d="M1139.2-54.942c-8.271 0-16.738 0-25.403 0.197-1.575 0-2.757 1.182-2.757 2.757l-0.197 32.492c0 0.788 0.394 1.575 0.788 1.969 0.591 0.591 1.182 0.788 1.969 0.788 87.237-2.757 165.022 4.332 231.385 21.071 0.788 0.197 1.772 0 2.363-0.591s0.985-1.378 0.985-2.166l0.197-29.342c0-1.182-0.788-2.363-1.969-2.757-60.849-16.542-127.212-24.418-207.36-24.418zM1116.554-49.034c89.009-1.575 161.083 5.908 226.658 23.631l-0.197 23.631c-65.378-15.951-141.588-22.843-226.658-20.283l0.197-26.978z" />
<glyph unicode="&#xe942;" horiz-adv-x="2028" d="M1149.243-22.843c-11.422 0-23.040 0.197-34.855 0.591-0.591-0.197-0.985-0.197-1.575 0l-33.083 11.225c-0.985 0.394-1.575 1.182-1.772 2.166s0.197 1.969 0.985 2.56c0.394 0.394 0.985 0.591 1.575 0.591l248.32 28.948c0.788 0 1.378-0.197 1.969-0.591l0.197-0.197c0.197-0.197 0.197-0.197 0.394-0.394l16.935-18.708c0.591-0.788 0.985-1.772 0.591-2.757-0.197-0.985-0.985-1.575-1.969-1.969-58.289-14.178-124.455-21.465-197.711-21.465zM1113.6-16.542c0 0 0 0 0 0 85.268-2.56 161.477 4.135 227.052 19.889l-12.997 14.375-234.535-27.372 20.48-6.892c0 0 0 0 0 0z" />
<glyph unicode="&#xe943;" horiz-adv-x="2028" d="M1113.797-54.548c-0.197 0-0.591 0-0.788 0.197l-52.578 17.132c-0.394 0.197-0.591 0.197-0.985 0.394l-23.040 18.511c-0.394 0.394-0.788 0.788-0.788 1.182l-7.286 19.889c-0.197 0.394-0.197 0.591-0.197 0.985l-0.197 26.782c0 0.985 0.591 1.969 1.378 2.363l5.514 3.348c0.394 0.197 0.788 0.394 1.378 0.394 0.788 0 1.575-0.197 2.166-0.788 0.591-0.394 0.788-1.182 0.788-1.772l14.572-29.735c0 0 0.197-0.197 0.197-0.197 1.575-2.363 3.742-3.545 7.089-3.742 0.591 0 0.985 0 1.575-0.394 0 0 0.197 0 0.197-0.197l17.526-5.711c0.394 0 0.788 0 1.182-0.197l33.083-11.225c1.182-0.394 1.969-1.378 1.969-2.56l0.197-32.098c0-0.788-0.394-1.575-0.788-1.969l-0.197-0.197c-0.591-0.197-1.378-0.394-1.969-0.394zM1062.4-32.098l48.443-15.754-0.197 26.388-30.326 10.24c-0.394 0-0.788 0-0.985 0.197l-18.905 6.302c-4.923 0.197-8.665 2.166-11.028 5.711-0.197 0.197-0.394 0.394-0.591 0.788l-13.982 28.357-1.378-0.788 0.197-24.812 6.892-18.708 21.858-17.92z" />
<glyph unicode="&#xe944;" horiz-adv-x="2028" d="M1312.492 461.194h-219.372v425.551l219.372-23.434v-402.117zM1098.634 466.708h208.148v391.483l-208.148 22.449v-413.932z" />
<glyph unicode="&#xe945;" horiz-adv-x="2028" d="M1080.123-8.468l-2.166 950.745h0.394l2.363-950.745z" />
<glyph unicode="&#xe946;" horiz-adv-x="2028" d="M1083.471-11.225h-6.105v2.757l-2.166 953.502h6.105v-2.757z" />
<glyph unicode="&#xe947;" horiz-adv-x="2028" d="M1030.892 0.985c-15.163-7.089-26.388-16.542-36.431-25.797-1.182-0.985-2.363-2.166-3.545-3.545-11.422-11.225-25.797-25.009-72.665-13.588-62.228 15.163-126.031 30.72-194.954 47.262-13.194 3.151-13.785 5.908-13.785 5.908l-5.514-0.197v-4.923c-0.197-4.923 5.514-8.468 18.314-11.618 68.923-16.542 132.726-32.098 194.954-47.262 12.8-3.151 23.434-4.529 32.295-4.529 25.6 0 36.825 10.831 45.686 19.495 1.182 1.182 2.363 2.363 3.545 3.348 9.452 8.665 20.086 17.526 33.871 24.222-1.378 3.938-1.772 7.68-1.772 11.225z" />
<glyph unicode="&#xe948;" horiz-adv-x="2028" d="M829.834 19.102l-1.772 0.985c-2.56 1.378-3.938 3.742-4.135 7.089 0.591 33.871 0 70.105-1.575 111.065l5.514 0.197c1.969-38.597 3.348-77.588 4.332-115.791v-1.182l-2.363-2.363z" />
<glyph unicode="&#xe949;" horiz-adv-x="2028" d="M575.803 430.868l153.6 158.523 309.169-17.526c0.197 1.772 0.394 3.742 0.591 5.514l-311.926 17.723-163.249-168.566 422.203-47.655 51.2 67.348c0.394 3.545 0.788 7.089 1.182 10.831l-54.745-72.271-408.025 46.080z" />
<glyph unicode="&#xe94a;" horiz-adv-x="2028" d="M987.372 353.871c-0.788 0-1.772 0-2.954 0.197l-397.588 47.065c-4.923 0.591-7.286 0.788-12.012 4.135-5.908 4.135-10.831 10.24-14.966 15.557-0.985 1.378-3.742 4.923-1.969 8.074 1.772 2.954 6.105 3.348 12.012 2.757v0h0.591l413.145-46.671 1.772 2.166 1.378-2.56c4.923-0.394 8.862-0.985 11.618-4.135 3.938-4.332-0.591-18.511-2.56-21.465-2.166-3.348-3.938-5.12-8.468-5.12zM563.003 426.142c0.197-0.394 0.591-0.985 1.182-1.969 3.938-5.12 8.468-10.634 13.785-14.375 3.545-2.363 4.923-2.56 9.649-3.151l1.182-0.197 396.406-46.868c4.135-0.394 4.529-0.197 6.105 2.363 1.772 2.757 4.135 12.8 3.151 14.769-1.575 1.772-4.135 2.166-9.452 2.363h-1.575l-0.197 0.197-413.538 46.671c-3.938 0.394-5.908 0.394-6.695 0.197z" />
<glyph unicode="&#xe94b;" horiz-adv-x="2028" d="M1035.815 421.415l-35.84-47.852c0.197 2.757-0.197 5.317-1.575 6.695-2.166 2.363-4.923 3.348-8.271 3.742l47.262 62.228c0.394 3.545 0.788 7.089 1.182 10.831l-55.926-73.452-0.985-1.575 1.575-2.954h1.575c5.317-0.197 7.877-0.591 9.452-2.363 0.985-1.969-1.182-12.012-2.954-14.572l-2.363-3.545 5.908-0.985 41.157 54.942c-0.197 2.757-0.197 5.908-0.197 8.862z" />
<glyph unicode="&#xe94c;" horiz-adv-x="2028" d="M562.215 425.945l-3.348 4.332 159.114 163.446c1.378 1.378 2.757 1.378 3.545 1.575h0.394l8.271-0.394 2.56-5.711-3.348 0.197-157.538-162.658-1.182 1.182 0.197-1.969-0.591-0.197h-0.591c-5.711 0.788-7.089 0.197-7.483 0.197zM568.123 431.655c0.197 0 0.394 0 0.788 0l153.009 158.129c0 0 0 0 0 0l-153.797-158.129z" />
<glyph unicode="&#xe94d;" horiz-adv-x="2028" d="M953.108-6.302c-2.363 0-4.726 0.197-7.483 0.394l-2.56 0.197-0.197 2.56c-2.166 123.668-8.665 246.942-19.102 366.671l-0.394 3.348 32.886-3.938 0.197-2.166c11.618-121.502 17.526-239.262 17.92-360.369v-1.772l-1.575-0.788c-6.105-2.757-12.012-4.135-19.692-4.135zM948.578-0.591c8.665-0.591 14.375 0.197 20.677 2.757-0.591 119.532-6.302 235.914-17.723 355.84l-21.662 2.56c10.043-117.957 16.542-239.458 18.708-361.157z" />
<glyph unicode="&#xe94e;" horiz-adv-x="2028" d="M947.003-6.302l-2.363 0.394-1.575 0.197v0.197l-116.578 25.797v2.166c-0.985 38.203-2.363 76.997-4.332 115.594-3.938 76.406-9.649 154.782-17.92 239.458l-0.394 3.545 125.243-14.769 0.197-2.166c10.437-119.138 16.935-241.822 19.102-364.505l2.56-0.197-3.938-5.711zM832 24.812l110.868-24.418c-2.166 121.698-8.468 243.003-18.905 360.96l-113.822 13.391c8.074-83.495 13.785-160.886 17.723-236.308 1.772-38.006 3.348-76.209 4.135-113.625z" />
<glyph unicode="&#xe94f;" horiz-adv-x="2028" d="M622.671 444.849l119.532 125.637 294.203-18.708c0.197 1.772 0.394 3.742 0.591 5.514l-296.96 18.905-128.985-135.877 354.855-38.4 72.074 92.751c0 3.151 0 6.302 0.197 9.255l-74.634-96.295-340.874 37.218z" />
</font>
</defs>
</svg>
