<?xml version="1.0" encoding="utf-8"?>
<!-- Generator: Adobe Illustrator 21.0.2, SVG Export Plug-In . SVG Version: 6.00 Build 0)  -->
<svg version="1.1" id="Layer_1" xmlns="http://www.w3.org/2000/svg" xmlns:xlink="http://www.w3.org/1999/xlink" x="0px" y="0px"
	 viewBox="0 0 139.5 24" style="enable-background:new 0 0 139.5 24;" xml:space="preserve">
<style type="text/css">
	.st0{fill:#EE472C;}
	.st1{fill:#FFFFFF;}
</style>
<g>
	<g id="Digital">
		<g>
			<path class="st0" d="M23.6,16.1l6-5.7c0.2-0.2,0.4-0.5,0.4-0.8c0-0.4-0.1-0.6-0.4-0.8l-6.3-6c-0.5-0.4-1.2-0.4-1.6,0.1
				c-0.4,0.5-0.4,1.2,0.1,1.6l5.4,5.1l-5.5,5.1c-0.2,0.2-0.4,0.5-0.4,0.8c0,0.1,0,0.8,0,2.3C19.2,14.6,12.1,3.1,12,2.9
				c-0.2-0.4-0.6-0.6-1-0.6s-0.8,0.2-1,0.6L0.2,19c-0.4,0.6-0.1,1.3,0.4,1.6c0.2,0.1,0.4,0.1,0.6,0.1c0.4,0,0.8-0.2,1-0.6L11,5.7
				c2.5,3.9,8.6,13.8,8.8,14.1c0.4,0.7,1.4,1,2.3,0.7c0.9-0.3,1.5-1.1,1.5-2C23.6,17.5,23.6,16.6,23.6,16.1z M30.4,2.8
				c-0.5-0.4-1.2-0.4-1.6,0.1c-0.4,0.5-0.4,1.2,0.1,1.6l5.4,5.1l-5.5,5.1c-0.2,0.2-0.4,0.5-0.4,0.8v4c0,0.6,0.5,1.1,1.1,1.1l0,0
				c0.6,0,1.1-0.5,1.1-1.1v-3.5l6-5.7c0.2-0.2,0.4-0.5,0.4-0.8s-0.1-0.6-0.4-0.8L30.4,2.8z M47.5,2.4c-5.1,0-9.1,4.1-9.1,9.1
				s4.1,9.1,9.1,9.1c5.1,0,9.1-4.1,9.1-9.1S52.6,2.4,47.5,2.4z M47.5,18.5c-3.8,0-6.8-3.1-6.8-6.8c0-3.8,3.1-6.8,6.8-6.8
				c3.8,0,6.8,3.1,6.8,6.8C54.3,15.4,51.2,18.5,47.5,18.5z M79.1,2.4c-5.1,0-9.1,4.1-9.1,9.1s4.1,9.1,9.1,9.1c5.1,0,9.1-4.1,9.1-9.1
				S84.2,2.4,79.1,2.4z M79.1,18.5c-3.8,0-6.8-3.1-6.8-6.8c0-3.8,3.1-6.8,6.8-6.8c3.8,0,6.8,3.1,6.8,6.8
				C86,15.4,82.9,18.5,79.1,18.5z M60.5,2.4c-0.6,0-1.1,0.5-1.1,1.1v16c0,0.6,0.5,1.1,1.1,1.1s1.1-0.5,1.1-1.1v-16
				C61.7,3,61.2,2.4,60.5,2.4z M66,2.4c-0.6,0-1.1,0.5-1.1,1.1v16c0,0.6,0.5,1.1,1.1,1.1c0.6,0,1.1-0.5,1.1-1.1v-16
				C67.2,3,66.6,2.4,66,2.4z M91.8,2.9c-0.1-0.1-0.1-0.3-0.3-0.4l0,0c0.2-0.1,0.4-0.4,0.4-0.6c0-0.5-0.4-0.8-0.8-0.8h-0.9
				C90,1.2,90,1.2,90,1.5v2.4c0,0.1,0,0.1,0.1,0.1h0.4c0.1,0,0.1,0,0.1-0.1V2.7h0.4c0.2,0,0.4,0.1,0.4,0.4l0.2,0.7
				c0,0.1,0.1,0.1,0.1,0.1H92c0.1,0,0.1-0.1,0.1-0.1L91.8,2.9z M91,2.3h-0.6V1.6H91c0.3,0,0.4,0.2,0.4,0.4C91.3,2.2,91.2,2.3,91,2.3
				z M90.9,0.1c-1.3,0-2.3,1.1-2.3,2.3c0,1.3,1,2.3,2.3,2.3c1.3,0,2.3-1,2.3-2.3C93.1,1.2,92.2,0.1,90.9,0.1z M90.8,4.4
				c-1.1,0-1.8-0.8-1.8-1.9s0.8-1.9,1.8-1.9c1.1,0,1.8,0.8,1.8,1.9C92.7,3.6,91.9,4.4,90.8,4.4z"/>
		</g>
	</g>
	<path class="st1" d="M100.6,14.5c0,2.6-1,4.6-3.8,4.6h-2.4V10h2.3C99.7,10,100.6,12.1,100.6,14.5z M93.9,20.2h3
		c3.4,0,4.9-2.3,4.9-5.8s-1.8-5.6-5.1-5.6h-2.9c-0.6,0-0.8,0.3-0.8,0.8v9.8C93.1,20,93.4,20.2,93.9,20.2z"/>
	<path class="st1" d="M105.6,9.4c0-0.4-0.4-0.8-0.8-0.8c-0.4,0-0.8,0.4-0.8,0.8c0,0.4,0.4,0.8,0.8,0.8
		C105.2,10.2,105.6,9.8,105.6,9.4z M105.4,20v-8.1c0-0.2-0.1-0.2-0.2-0.2h-0.7c-0.1,0-0.2,0-0.2,0.2V20c0,0.2,0.1,0.2,0.2,0.2h0.7
		C105.3,20.2,105.4,20.2,105.4,20z"/>
	<path class="st1" d="M113.5,12.9V19c-0.8,0.3-1.8,0.4-2.2,0.4c-1.6,0-2.5-1.1-2.5-3.4c0-2.5,1.1-3.4,2.7-3.4
		C112,12.6,112.8,12.6,113.5,12.9z M111.4,11.6c-2.7,0-3.9,1.9-3.9,4.5c0,2.5,1.1,4.4,3.7,4.4c0.6,0,1.6-0.1,2.3-0.4v0.1
		c0,1.8-1.1,2.3-3,2.7c-0.1,0-0.1,0.1-0.1,0.2l0.1,0.8c0,0.1,0.1,0.1,0.2,0.1c2.5-0.4,4-1.3,4-4.2v-7.3c0-0.1-0.1-0.2-0.2-0.3
		C113.5,11.7,112.3,11.6,111.4,11.6z"/>
	<path class="st1" d="M118.5,9.4c0-0.4-0.4-0.8-0.8-0.8c-0.4,0-0.8,0.4-0.8,0.8c0,0.4,0.4,0.8,0.8,0.8
		C118.2,10.2,118.5,9.8,118.5,9.4z M118.3,20v-8.1c0-0.2-0.1-0.2-0.2-0.2h-0.7c-0.1,0-0.2,0-0.2,0.2V20c0,0.2,0.1,0.2,0.2,0.2h0.7
		C118.2,20.2,118.3,20.2,118.3,20z"/>
	<path class="st1" d="M120.2,12.7h1.2v5.6c0,1.5,0.6,2.2,2.2,2.2c0.3,0,1.1,0,1.7-0.2c0.1-0.1,0.1-0.1,0.1-0.2l-0.1-0.6
		c0-0.1,0-0.1-0.2-0.1c-0.4,0.1-1,0.1-1.3,0.1c-0.9,0-1.2-0.4-1.2-1.2v-5.5h1.9c0.2,0,0.2-0.1,0.2-0.2v-0.6c0-0.1,0-0.2-0.2-0.2
		h-1.9V9.8c0-0.1-0.1-0.2-0.2-0.2L122,9.7c-0.2,0.1-0.2,0.1-0.2,0.3l-0.2,1.5l-1.3,0.2c-0.2,0.1-0.2,0.1-0.2,0.2v0.4
		C120.1,12.6,120.1,12.7,120.2,12.7z"/>
	<path class="st1" d="M133.1,19.5v-5.2c0-1.8-1-2.7-3.1-2.7c-0.9,0-2,0.1-2.7,0.5c-0.1,0.1-0.1,0.1-0.1,0.2l0.1,0.6
		c0.1,0.1,0.1,0.1,0.3,0.1c0.6-0.2,1.5-0.4,2.3-0.4c1.8,0,2.1,0.8,2.1,1.9v0.4h-2.2c-2.4,0-3.4,1.3-3.4,2.9c0,1.3,0.7,2.7,3.4,2.7
		c1.1,0,2.2-0.1,3.2-0.6C133.1,19.8,133.1,19.7,133.1,19.5z M131.9,15.9v3.2c-0.8,0.3-1.8,0.4-2.2,0.4c-1.2,0-2.3-0.4-2.3-1.7
		c0-1.7,1.5-1.8,2.3-1.8H131.9z"/>
	<path class="st1" d="M138.1,20l-0.1-0.6c0-0.1-0.1-0.1-0.2-0.1c-0.2,0-0.4,0.1-0.6,0.1c-0.5,0-0.6-0.2-0.6-0.8V8.6
		c0-0.2-0.1-0.2-0.2-0.2h-0.8c-0.2,0-0.2,0-0.2,0.2v10.3c0,1.1,0.4,1.5,1.4,1.5c0.4,0,0.8,0,1.1-0.2C138.1,20.2,138.1,20.2,138.1,20
		z"/>
</g>
</svg>
