<?xml version="1.0" encoding="utf-8"?>
<!-- Generator: Adobe Illustrator 21.0.2, SVG Export Plug-In . SVG Version: 6.00 Build 0)  -->
<svg version="1.1" id="Layer_1" xmlns="http://www.w3.org/2000/svg" xmlns:xlink="http://www.w3.org/1999/xlink" x="0px" y="0px"
	 viewBox="0 0 90 16" style="enable-background:new 0 0 90 16;" xml:space="preserve">
<style type="text/css">
	.st0{fill:#EE472C;}
	.st1{fill:#FFFFFF;}
</style>
<g>
	<g id="Digital">
		<g>
			<path class="st0" d="M15.4,10.5l3.9-3.7c0.1-0.1,0.2-0.3,0.2-0.5s-0.1-0.4-0.2-0.5l-4-3.9c-0.3-0.3-0.8-0.3-1,0s-0.3,0.8,0,1
				l3.5,3.3l-3.5,3.3C14.1,9.7,14,9.9,14,10.1c0,0,0,0.5,0,1.5c-1.4-2-6-9.5-6-9.6C7.8,1.7,7.5,1.6,7.3,1.6C7,1.6,6.8,1.7,6.6,1.9
				L0.3,12.4c-0.2,0.4-0.1,0.8,0.2,1c0.1,0.1,0.3,0.1,0.4,0.1c0.3,0,0.5-0.1,0.6-0.4l5.7-9.4c1.6,2.5,5.5,8.9,5.7,9.1
				c0.3,0.5,0.9,0.6,1.5,0.5c0.6-0.2,1-0.7,1-1.3C15.4,11.4,15.4,10.8,15.4,10.5z M19.8,1.9c-0.3-0.3-0.8-0.3-1,0s-0.3,0.8,0,1
				l3.5,3.3l-3.5,3.3c-0.1,0.1-0.2,0.3-0.2,0.5v2.6c0,0.4,0.3,0.7,0.7,0.7l0,0c0.4,0,0.7-0.3,0.7-0.7v-2.3l3.9-3.7
				c0.1-0.1,0.2-0.3,0.2-0.5c0-0.2-0.1-0.4-0.2-0.5L19.8,1.9z M30.9,1.6c-3.3,0-5.9,2.6-5.9,5.9s2.6,5.9,5.9,5.9s5.9-2.6,5.9-5.9
				S34.2,1.6,30.9,1.6z M30.9,12c-2.5,0-4.4-2-4.4-4.4c0-2.5,2-4.4,4.4-4.4c2.5,0,4.4,2,4.4,4.4C35.3,10,33.3,12,30.9,12z M51.4,1.6
				c-3.3,0-5.9,2.6-5.9,5.9s2.6,5.9,5.9,5.9c3.3,0,5.9-2.6,5.9-5.9S54.6,1.6,51.4,1.6z M51.4,12c-2.5,0-4.4-2-4.4-4.4
				c0-2.5,2-4.4,4.4-4.4c2.5,0,4.4,2,4.4,4.4C55.8,10,53.8,12,51.4,12z M39.3,1.6c-0.4,0-0.7,0.3-0.7,0.7v10.4
				c0,0.4,0.3,0.7,0.7,0.7s0.7-0.3,0.7-0.7V2.4C40.1,2,39.8,1.6,39.3,1.6z M42.8,1.6c-0.4,0-0.7,0.3-0.7,0.7v10.4
				c0,0.4,0.3,0.7,0.7,0.7s0.7-0.3,0.7-0.7V2.4C43.6,2,43.3,1.6,42.8,1.6z M59.5,1.9c0-0.1-0.1-0.2-0.2-0.2l0,0
				c0.1-0.1,0.3-0.2,0.3-0.4c0-0.3-0.2-0.5-0.5-0.5h-0.6c-0.1,0-0.1,0-0.1,0.2v1.5c0,0,0,0,0,0h0.2c0,0,0,0,0,0V1.8h0.3
				c0.1,0,0.2,0,0.3,0.2l0.1,0.5c0,0,0,0,0.1,0h0.2c0.1,0,0,0,0,0L59.5,1.9z M59,1.5h-0.4V1.1H59c0.2,0,0.2,0.1,0.2,0.2
				C59.2,1.4,59.2,1.5,59,1.5z M58.9,0.1c-0.9,0-1.5,0.7-1.5,1.5c0,0.9,0.6,1.5,1.5,1.5c0.8,0,1.5-0.6,1.5-1.5
				C60.4,0.8,59.8,0.1,58.9,0.1z M58.9,2.9c-0.7,0-1.2-0.5-1.2-1.2s0.5-1.2,1.2-1.2s1.2,0.5,1.2,1.2C60.1,2.4,59.6,2.9,58.9,2.9z"/>
		</g>
	</g>
	<path class="st1" d="M65.2,9.5c0,1.7-0.6,3-2.5,3h-1.5V6.5h1.5C64.6,6.5,65.2,7.9,65.2,9.5z M60.9,13.1h2c2.2,0,3.2-1.5,3.2-3.7
		s-1.1-3.6-3.3-3.6h-1.9c-0.4,0-0.5,0.2-0.5,0.5v6.4C60.4,13,60.6,13.1,60.9,13.1z"/>
	<path class="st1" d="M68.5,6.1c0-0.3-0.2-0.5-0.5-0.5c-0.3,0-0.5,0.2-0.5,0.5c0,0.3,0.2,0.5,0.5,0.5S68.5,6.4,68.5,6.1z M68.3,13
		V7.8c0-0.1,0-0.1-0.1-0.1h-0.5c-0.1,0-0.1,0-0.1,0.1V13c0,0.1,0,0.1,0.1,0.1h0.5C68.3,13.1,68.3,13.1,68.3,13z"/>
	<path class="st1" d="M73.6,8.4v4c-0.5,0.2-1.1,0.3-1.4,0.3c-1,0-1.6-0.7-1.6-2.2c0-1.6,0.7-2.2,1.7-2.2C72.6,8.2,73.1,8.2,73.6,8.4
		z M72.2,7.5c-1.7,0-2.5,1.2-2.5,2.9c0,1.6,0.7,2.8,2.4,2.8c0.4,0,1-0.1,1.5-0.3v0c0,1.2-0.7,1.5-1.9,1.7c-0.1,0-0.1,0-0.1,0.1
		l0,0.5c0,0.1,0.1,0.1,0.1,0.1c1.6-0.2,2.6-0.9,2.6-2.7V8c0-0.1,0-0.1-0.1-0.2C73.6,7.6,72.8,7.5,72.2,7.5z"/>
	<path class="st1" d="M76.8,6.1c0-0.3-0.2-0.5-0.5-0.5c-0.3,0-0.5,0.2-0.5,0.5c0,0.3,0.2,0.5,0.5,0.5C76.6,6.6,76.8,6.4,76.8,6.1z
		 M76.7,13V7.8c0-0.1,0-0.1-0.1-0.1h-0.5c-0.1,0-0.1,0-0.1,0.1V13c0,0.1,0,0.1,0.1,0.1h0.5C76.6,13.1,76.7,13.1,76.7,13z"/>
	<path class="st1" d="M77.9,8.3h0.8v3.6c0,1,0.4,1.4,1.4,1.4c0.2,0,0.7,0,1.1-0.1c0.1,0,0.1-0.1,0.1-0.1l-0.1-0.4
		c0-0.1,0-0.1-0.1-0.1c-0.3,0-0.6,0.1-0.8,0.1c-0.6,0-0.8-0.3-0.8-0.8V8.3h1.2c0.1,0,0.1,0,0.1-0.1V7.8c0-0.1,0-0.1-0.1-0.1h-1.2
		V6.4c0-0.1,0-0.1-0.1-0.1l-0.3,0.1c-0.1,0-0.1,0-0.1,0.2l-0.1,1L78,7.7c-0.1,0-0.1,0-0.1,0.1v0.3C77.8,8.2,77.8,8.3,77.9,8.3z"/>
	<path class="st1" d="M86.3,12.7V9.3c0-1.2-0.6-1.8-2-1.8c-0.6,0-1.3,0.1-1.8,0.3c-0.1,0-0.1,0.1-0.1,0.1l0.1,0.4
		c0,0.1,0.1,0.1,0.2,0c0.4-0.1,1-0.2,1.5-0.2c1.1,0,1.4,0.5,1.4,1.2v0.3h-1.4c-1.5,0-2.2,0.8-2.2,1.9c0,0.9,0.5,1.7,2.2,1.7
		c0.7,0,1.4-0.1,2-0.4C86.2,12.9,86.3,12.8,86.3,12.7z M85.5,10.4v2c-0.5,0.2-1.1,0.2-1.4,0.2c-0.8,0-1.5-0.2-1.5-1.1
		c0-1.1,1-1.2,1.5-1.2H85.5z"/>
	<path class="st1" d="M89.5,13l0-0.4c0-0.1,0-0.1-0.1-0.1c-0.1,0-0.2,0-0.4,0c-0.3,0-0.4-0.1-0.4-0.5V5.6c0-0.1,0-0.1-0.1-0.1h-0.5
		c-0.1,0-0.1,0-0.1,0.1v6.6c0,0.7,0.2,1,0.9,1c0.2,0,0.5,0,0.7-0.1C89.5,13.1,89.5,13.1,89.5,13z"/>
</g>
</svg>
