<?xml version="1.0" encoding="utf-8"?>
<!-- Generated by IcoMoon.io -->
<!DOCTYPE svg PUBLIC "-//W3C//DTD SVG 1.1//EN" "http://www.w3.org/Graphics/SVG/1.1/DTD/svg11.dtd">
<svg version="1.1" xmlns="http://www.w3.org/2000/svg" xmlns:xlink="http://www.w3.org/1999/xlink" width="709" height="1024" viewBox="0 0 709 1024">
<g id="icomoon-ignore">
</g>
<path fill="#c1c1c1" d="M586.831 240.246h-464.738c-63.015 0-114.215 51.2-114.215 114.215v275.692c0 63.015 51.2 114.215 114.215 114.215h460.8c63.015 0 114.215-51.2 114.215-114.215v-275.692c3.938-63.015-47.262-114.215-110.277-114.215zM653.785 634.092c0 11.815-3.938 19.692-7.877 31.508l-173.292-177.231 173.292-161.477c3.938 7.877 7.877 19.692 7.877 31.508v275.692zM586.831 287.508c11.815 0 19.692 3.938 31.508 7.877l-208.738 189.046c-27.569 27.569-74.831 27.569-106.338 0l-208.738-189.046c7.877-3.938 19.692-7.877 31.508-7.877h460.8zM55.138 354.462c0-11.815 3.938-19.692 7.877-31.508v0l173.292 165.415-177.231 177.231c-3.938-7.877-7.877-19.692-7.877-31.508l3.938-279.631zM122.092 701.046c-11.815 0-19.692-3.938-31.508-7.877l177.231-177.231c27.569 23.631 55.138 35.446 86.646 35.446s59.077-11.815 82.708-31.508l177.231 177.231c-7.877 3.938-19.692 7.877-31.508 7.877h-460.8v-3.938z"></path>
<path fill="#c1c1c1" d="M582.892 756.185h-460.8c-66.954 0-122.092-59.077-122.092-126.031v-275.692c0-66.954 55.138-122.092 122.092-122.092h464.738c35.446 0 66.954 15.754 90.585 39.385 19.692 19.692 31.508 51.2 31.508 82.708v275.692c0 66.954-59.077 126.031-126.031 126.031zM122.092 252.062c-59.077 0-102.4 43.323-102.4 102.4v275.692c0 59.077 47.262 106.338 102.4 106.338h460.8c59.077 0 106.338-47.262 106.338-106.338v-275.692c0-27.569-7.877-51.2-27.569-70.892s-47.262-31.508-74.831-31.508h-464.738zM582.892 716.8h-468.677v-7.877c-7.877 0-11.815-3.938-19.692-3.938l-23.631-7.877 192.985-192.985 11.815 3.938c27.569 23.631 51.2 31.508 78.769 31.508s51.2-7.877 74.831-27.569l7.877-3.938 192.985 192.985-11.815 7.877c-3.938 0-19.692 7.877-35.446 7.877zM133.908 697.108h448.985c3.938 0 7.877 0 11.815 0l-161.477-161.477c-23.631 15.754-51.2 23.631-78.769 23.631-31.508 0-59.077-11.815-86.646-31.508l-161.477 161.477c3.938 0 7.877 3.938 11.815 3.938h7.877v3.938zM649.846 685.292l-192.985-196.923 189.046-177.231 3.938 11.815c3.938 3.938 7.877 19.692 7.877 35.446v275.692c0 11.815-3.938 19.692-7.877 27.569v23.631zM488.369 488.369l153.6 157.538c0-3.938 3.938-7.877 3.938-11.815v-275.692c0-3.938 0-7.877-3.938-15.754l-153.6 145.723zM55.138 681.354l-3.938-11.815c-3.938-3.938-11.815-19.692-11.815-35.446l3.938-279.631c0-11.815 3.938-19.692 7.877-27.569l7.877-19.692 192.985 181.169-196.923 192.985zM66.954 338.708c0 3.938-3.938 7.877-3.938 15.754v0l-3.938 279.631c0 3.938 0 7.877 0 11.815l157.538-157.538-149.662-149.662zM358.4 515.938c-19.692 0-43.323-7.877-63.015-23.631l-216.615-200.862 11.815-7.877c3.938 0 19.692-7.877 35.446-7.877h460.8c11.815 0 19.692 3.938 27.569 7.877l23.631 7.877-220.554 200.862c-15.754 15.754-39.385 23.631-59.077 23.631zM114.215 299.323l196.923 177.231c27.569 23.631 70.892 23.631 94.523 0l196.923-177.231c-3.938 0-7.877 0-11.815 0h-464.738c-3.938-3.938-7.877 0-11.815 0z"></path>
</svg>
