<?xml version="1.0" encoding="utf-8"?>
<!-- Generated by IcoMoon.io -->
<!DOCTYPE svg PUBLIC "-//W3C//DTD SVG 1.1//EN" "http://www.w3.org/Graphics/SVG/1.1/DTD/svg11.dtd">
<svg version="1.1" xmlns="http://www.w3.org/2000/svg" xmlns:xlink="http://www.w3.org/1999/xlink" width="2028" height="1024" viewBox="0 0 2028 1024">
<g id="icomoon-ignore">
</g>
<path fill="#232323" d="M826.683 878.671h-227.446c-3.348 0-6.302-1.378-8.665-3.545-2.363-2.363-3.545-5.711-3.545-9.058 0.985-47.458-16.738-92.751-50.018-127.212-31.705-32.886-72.665-51.397-115.791-51.988-41.157-0.591-81.526 15.163-113.625 44.702-0.197 0-0.197 0.197-0.394 0.197-37.415 34.462-58.289 83.102-57.502 133.514 0 3.348-1.378 6.695-3.742 9.058s-5.514 3.545-8.862 3.348c-35.249-1.772-70.498-3.545-105.748-5.317-33.477-1.772-66.954-3.348-100.431-5.12-3.545-0.197-6.695-1.772-8.862-4.529-2.757-3.151-6.105-8.665-7.877-16.148s-0.788-13.982 0.197-18.117c1.182-4.923 5.317-8.468 10.437-8.862 0.197 0 0.394 0 0.394 0 4.529-0.394 8.468-2.56 11.225-6.105 2.954-3.545 4.135-8.074 3.545-12.603-11.225-96.295-14.572-194.363-9.649-291.643 0.788-13.785 1.575-27.175 2.363-37.612l9.058 0.197c0.985 0 1.969-0.591 2.363-1.575 16.738-51.397 25.206-78.178 25.206-79.36 0.197-2.56 11.422-67.938 17.526-103.188 2.757-16.345 5.12-29.932 6.695-38.991 0.197-0.591 0-1.378-0.394-1.772s-0.985-0.788-1.575-0.985c-7.089-0.788-13.982-0.197-20.48 1.969 10.043-12.997 24.222-21.858 40.172-25.009 3.545-0.788 7.089-1.182 11.028-1.182 253.637-7.877 545.871-13.982 710.892-14.769 52.185-0.394 126.622 0 202.831 0.788-0.985-1.182-0.788-3.151 0-4.726-76.209-0.788-150.843-1.182-203.028-0.788-165.022 0.985-457.452 6.892-711.089 14.769-4.135 0.197-8.074 0.591-11.815 1.378-19.889 3.938-37.415 16.345-47.852 33.871-0.591 0.985-0.394 1.969 0.197 2.757 0.788 0.788 1.772 0.985 2.757 0.591 0.394-0.197 0.788-0.394 1.182-0.591 0.788-0.394 1.575-0.788 2.363-1.182 5.908-2.56 12.603-3.545 19.298-3.151-1.575 9.058-3.742 21.662-6.302 36.431-14.178 82.314-17.329 100.825-17.526 103.582v0c-0.591 2.757-14.769 46.868-24.418 76.8l-9.452-0.197c-1.182 0-2.166 0.985-2.363 2.166-0.788 10.831-1.772 25.009-2.56 39.975-4.923 97.477-1.575 195.938 9.649 292.431 0.394 3.348-0.591 6.498-2.56 9.058s-4.923 4.135-8.271 4.332c-0.197 0-0.394 0-0.591 0.197-6.892 0.788-12.603 5.711-14.375 12.406-1.182 4.726-2.166 12.012-0.197 20.283 1.772 8.271 5.711 14.375 8.665 18.117s7.483 6.105 12.406 6.302c33.477 1.575 66.954 3.348 100.431 5.12 35.249 1.772 70.498 3.545 105.748 5.317 4.726 0.197 9.058-1.378 12.406-4.726s5.317-7.877 5.12-12.603c-0.788-49.034 19.495-96.295 55.729-129.772 0.197 0 0.197-0.197 0.394-0.197 31.311-28.751 70.498-44.308 110.671-43.717 41.748 0.788 81.723 18.708 112.443 50.609 32.295 33.674 49.625 77.588 48.64 123.865-0.197 4.726 1.575 9.058 4.923 12.406 3.151 3.151 7.483 5.12 12.012 5.12h227.446c0.394-2.166 0.394-3.742 0.591-5.317z"></path>
<path fill="#232323" d="M969.452 878.671c0.197 1.575 0.394 3.151 0.197 4.726h65.575c0.197-1.575 0.591-3.151 0.985-4.726h-66.757z"></path>
<path fill="#232323" d="M1618.117 684.898c-42.732-2.954-87.040 13.982-121.305 46.080-37.415 35.052-58.683 84.48-58.486 135.483 0 6.695-5.514 12.209-12.209 12.209h-98.265c0 1.575-0.394 3.151-0.788 4.726h99.052c9.255 0 16.935-7.68 16.935-16.935-0.197-49.822 20.677-98.068 57.108-132.135 33.28-31.311 76.209-47.655 117.76-44.702 27.175 1.772 54.154 12.012 77.982 29.342l2.757-3.742c-24.615-18.117-52.382-28.554-80.542-30.326z"></path>
<path fill="#232323" d="M2008.025 738.658c-2.56-5.711-5.514-10.634-9.255-15.36-0.985-1.378-1.772-2.954-2.166-4.332s-0.591-2.954-0.394-4.529c2.56-18.117 2.954-35.84 1.575-52.775-2.363-25.994-5.908-49.822-25.009-76.209-21.268-29.342-54.942-51.988-81.92-68.529-28.357-17.329-58.486-31.508-89.994-42.732l-0.394-0.197c-0.591-0.197-1.182-0.394-1.772-0.394l-61.243-11.618c-2.166-0.394-4.135-1.378-5.711-2.757-0.197-0.197-0.394-0.394-0.788-0.394-14.572-5.514-29.145-11.028-43.52-16.345s-28.751-10.831-43.126-16.345c-4.923-4.135-69.908-57.502-111.458-90.388l-1.182-0.788c-8.271-6.498-19.692-15.557-34.855-26.585-10.634-7.68-18.905-13.194-30.917-21.465-20.874-13.982-31.311-21.071-41.157-26.585-13.391-7.286-25.009-12.209-32.492-15.163-2.56-1.772-3.742-4.726-3.151-7.089 0.394-1.378 1.378-2.363 2.757-3.151 1.969-0.985 4.332-1.182 6.498-0.394 1.182 0.394 2.56-0.197 2.954-1.378s-0.197-2.56-1.378-2.954c-25.6-8.862-50.609-14.375-72.468-17.723v4.726c18.708 2.954 39.778 7.483 61.243 14.375-2.166 1.378-3.742 3.348-4.332 5.514-1.182 4.332 0.788 9.452 5.12 12.406 0.197 0.197 0.394 0.197 0.394 0.197 7.286 2.757 18.905 7.68 32.098 14.966 9.846 5.317 20.283 12.406 40.96 26.388 12.012 8.074 20.086 13.588 30.72 21.465 15.163 11.028 26.585 19.889 34.658 26.388l1.182 0.788c42.929 34.068 111.065 89.994 111.655 90.585 0.197 0.197 0.394 0.197 0.591 0.394 14.572 5.514 29.145 11.028 43.52 16.345s28.751 10.831 43.126 16.148c2.166 1.772 4.726 2.954 7.68 3.545l61.046 11.618c0.394 0 0.985 0.197 1.575 0.394h0.394c30.917 11.028 60.849 25.206 88.812 42.142 39.385 24.222 64.394 44.898 80.542 67.151 18.511 25.403 21.858 47.655 24.222 73.846 1.378 16.542 0.985 33.871-1.575 51.791-0.197 2.363 0 4.726 0.394 6.498 0.591 1.969 1.575 4.135 2.954 6.105 3.545 4.332 6.302 9.058 8.665 14.375 4.923 11.225 6.498 23.631 4.923 37.218-0.985 9.452-3.742 19.298-7.877 29.145-3.545 8.862-8.074 17.329-13.785 25.797-0.985 1.378-1.969 2.363-3.348 3.348-11.422 7.68-22.646 15.163-34.068 22.646-0.788 0.394-1.378 0.788-2.166 1.182l-43.914 17.723c-1.575 0.591-3.151 0.985-4.529 0.985h-113.034c-3.151 0-6.302-1.182-8.468-3.545-2.363-2.363-3.545-5.514-3.545-8.862 0.591-60.062-27.372-116.775-75.225-151.434l-2.757 3.742c46.474 33.674 73.846 89.009 73.255 147.495 0 4.529 1.772 8.862 4.923 12.209 3.151 3.151 7.286 4.923 11.815 4.923h113.034c2.166 0 4.332-0.394 6.302-1.182l43.914-17.723c0.985-0.394 1.969-0.985 3.151-1.575 11.422-7.483 22.646-15.163 34.068-22.646 1.969-1.182 3.348-2.757 4.726-4.726 5.711-8.468 10.437-17.526 14.178-26.585 4.332-10.24 7.089-20.48 8.271-30.523 2.166-14.178 0.394-27.569-4.923-39.582z"></path>
<path fill="#232323" d="M26.585 819.2v0 0z"></path>
<path fill="#232323" d="M1036.8 230.4c-34.265-0.591-68.529-1.182-102.597-1.575-96.295-1.378-193.772-1.969-290.068-1.969-19.298 0-38.597 0-58.092 0v2.56c19.298 0 38.794 0 58.092 0 96.098 0 193.772 0.591 290.068 1.969 33.871 0.394 67.742 0.985 101.612 1.575 0-0.985 0.394-1.969 0.985-2.56z"></path>
<path fill="#232323" d="M1561.009 382.622c0-0.394-0.197-0.591-0.394-0.985-2.954-2.56-5.908-5.12-8.862-7.68-28.16-24.418-57.305-48.443-86.843-71.089-40.172-30.917-86.449-51.594-136.074-61.243 0.197 0.985 0.197 1.772 0.197 2.757 48.837 9.452 94.523 29.932 134.105 60.455 29.342 22.646 58.486 46.474 86.646 70.892 2.757 2.363 5.514 4.923 8.468 7.286 1.969 33.477 2.56 67.348 1.575 100.628-0.985 31.311-2.56 78.572-11.028 125.44l-0.197 1.378c-1.182 6.105-3.151 17.526-4.923 32.886-2.166 19.495-2.757 39.188-2.166 58.486h2.56c-0.591-19.298 0-38.794 2.166-58.092 1.575-15.36 3.742-26.782 4.923-32.689l0.197-1.378c8.665-47.065 10.043-94.523 11.225-125.834 0.985-33.28 0.591-67.545-1.575-101.218z"></path>
<path fill="#232323" d="M1670.302 514.166c-41.551-43.717-85.662-86.055-131.151-125.44-27.766-24.222-56.714-47.852-85.858-70.302-36.825-28.357-78.966-47.655-124.062-56.714 0 0.985 0 1.772 0 2.757 44.505 9.255 86.055 28.16 122.486 56.123 29.145 22.449 57.895 46.080 85.662 70.302 44.505 38.794 87.828 80.148 128.788 122.88l-338.314-20.283c0.197 0.985 0.197 1.772 0.197 2.757l341.268 20.48c0 0 0 0 0 0 0.591 0 0.985-0.394 1.182-0.788 0.197-0.788 0-1.378-0.197-1.772z"></path>
<path fill="#232323" d="M587.422 501.76v-290.658h-2.56v293.809c0.591-1.182 1.378-2.363 2.56-3.151z"></path>
<path fill="#232323" d="M632.911 852.48c-5.711-55.926-13.785-112.443-23.828-167.582-6.302-34.855-13.588-69.908-21.662-104.172v-23.434c-0.985-0.394-1.772-0.788-2.56-1.378v24.812c0 0.197 0 0.197 0 0.394 8.074 34.462 15.36 69.514 21.662 104.172 10.043 55.532 18.117 112.443 24.025 168.566 0 0.591 0.591 1.182 1.378 1.182l195.151 1.969c0.197-0.985 0.394-1.772 0.591-2.56l-194.757-1.969z"></path>
<path fill="#232323" d="M967.877 855.631c0 0.788-0.197 1.772-0.197 2.56l67.742 0.591c0-0.985 0.197-1.772 0.394-2.56l-67.938-0.591z"></path>
<path fill="#232323" d="M1327.655 859.175c0.197 0.788 0.197 1.772 0.197 2.757l112.837 1.182v-2.56l-113.034-1.378z"></path>
<path fill="#232323" d="M1399.532 233.551c0 0-0.197 0-0.197 0-0.197 0-0.197 0-0.394-0.197l0.591-1.772h0.197c0.197 0 0.394 0.197 0.591 0.197l-0.788 1.772z"></path>
<path fill="#232323" d="M1730.166 462.178c-0.197 0-0.197 0-0.394 0l-87.040-32.689c-0.197 0-0.197-0.197-0.394-0.197-0.591-0.591-68.923-56.517-111.655-90.585-6.695-5.317-19.102-15.163-35.84-27.372-10.634-7.68-18.708-13.194-30.72-21.268-19.889-13.391-30.72-20.874-40.96-26.388-10.437-5.711-21.268-10.831-32.295-14.966 0 0-0.197 0-0.197-0.197-3.938-2.56-5.711-7.089-4.726-10.831 0.591-2.166 2.363-4.135 4.726-5.317 2.757-1.378 6.105-1.575 9.058-0.591 0 0 0 0 0 0 21.268 7.483 40.369 16.345 56.32 26.585 42.535 27.175 84.677 56.123 125.046 86.252 8.074 6.105 16.345 12.209 24.615 18.117 43.717 32.295 89.009 65.772 125.243 97.871 0.394 0.394 0.394 0.985 0.197 1.378-0.197 0-0.591 0.197-0.985 0.197zM1643.52 427.52l81.526 30.72c-35.446-30.72-78.769-62.818-120.714-93.932-8.271-6.105-16.345-12.209-24.615-18.117-40.369-30.129-82.511-59.077-125.046-86.055-15.951-10.24-34.658-19.102-55.926-26.388-2.56-0.788-5.12-0.788-7.483 0.394-1.772 0.985-3.151 2.363-3.545 4.135-0.788 2.954 0.788 6.498 3.742 8.468 11.028 4.332 22.055 9.255 32.492 15.163 10.24 5.711 21.268 12.997 41.157 26.585 12.209 8.271 20.283 13.785 30.72 21.465 16.935 12.209 29.342 22.055 36.037 27.372 41.945 32.886 108.308 87.237 111.655 90.191z"></path>
<path fill="#232323" d="M1962.535 644.923c-0.197 0-0.197 0-0.394 0-16.345-2.166-32.886-5.317-49.034-9.452-50.215-12.603-100.234-34.068-149.071-64.197-2.757-1.575-3.545-5.908-2.954-9.255 0.394-2.954 1.772-4.923 3.742-5.514l67.938-17.92c0 0 0 0 0 0 0.394 0 0.591-0.197 0.985-0.197 0.591 0 0.985 0.197 0.985 0.197 0.197 0 0.591 0.197 1.182 0.197 3.348 0.591 11.815 2.363 24.615 6.892 17.723 6.302 32.098 13.785 32.098 13.982 47.262 25.206 71.089 59.865 72.862 72.074 1.182 8.862 0.197 11.225-0.985 12.209-0.394 0.788-1.182 0.985-1.969 0.985zM1833.157 540.16l0.394 1.378-67.938 17.92c-0.788 0.197-1.378 1.378-1.575 3.151-0.394 2.757 0.394 5.514 1.772 6.302 48.443 29.932 98.265 51.397 148.283 64 16.148 3.938 32.492 7.089 48.837 9.255 0.197 0 1.575-0.985 0.197-9.846-1.378-10.24-24.025-44.702-71.483-69.908-0.197 0-14.178-7.483-31.705-13.785-12.603-4.529-21.071-6.105-24.222-6.695-0.788-0.197-1.378-0.197-1.378-0.394 0 0-0.197 0-0.197 0l-0.985-1.378z"></path>
<path fill="#232323" d="M620.308 470.055c-168.369-10.634-336.738-20.086-503.926-28.16l-0.197 2.954c166.794 8.074 334.375 17.329 501.957 27.963 0.788-0.985 1.378-1.969 2.166-2.757z"></path>
<path fill="#232323" d="M1327.852 522.437c0 0.985 0 1.969 0 2.954 144.738 12.209 290.265 25.6 434.215 39.778l0.197-2.757c-143.951-14.375-289.674-27.766-434.412-39.975z"></path>
<path fill="#232323" d="M1867.618 697.108c-14.178-23.237-30.326-45.686-47.458-66.757-19.102-23.237-39.975-45.489-62.228-65.772l1.969-2.166c22.449 20.283 43.52 42.535 62.622 65.969 17.329 21.268 33.28 43.717 47.655 67.151l-2.56 1.575z"></path>
<path fill="#232323" d="M821.76 768.394l-178.806-2.757c-12.209-31.705-48.837-106.535-131.545-140.209-47.262-19.298-99.84-21.465-152.615-6.302-52.972 15.163-101.022 46.474-138.634 90.585l2.166 1.772c37.218-43.717 84.677-74.634 137.255-89.6 51.988-14.769 104.172-12.603 150.646 6.302 82.511 33.674 118.548 108.702 130.363 139.422 0.197 0.591 0.788 0.985 1.378 0.985l179.594 2.757c0-1.182 0.197-2.166 0.197-2.954z"></path>
<path fill="#232323" d="M967.68 770.56c0.197 0.985 0.197 1.969 0.394 2.954l69.12 0.985c0-0.985 0.197-1.969 0.394-2.954l-69.908-0.985z"></path>
<path fill="#232323" d="M1591.532 621.883c-92.948 5.317-177.034 65.969-214.449 154.782l-49.034-0.788c0.197 0.985 0.394 1.969 0.591 2.954l49.625 0.788c0.591 0 1.182-0.394 1.378-0.788 36.628-88.222 119.926-148.677 212.283-153.994 122.092-7.089 197.711 84.677 205.982 95.114l2.166-1.772c-8.271-10.634-84.874-103.188-208.542-96.295z"></path>
<path fill="#232323" d="M24.856 819.009l0.054-2.953 232.126 4.27-0.054 2.953-232.126-4.27z"></path>
<path fill="#232323" d="M64.394 673.083c-0.197 0-0.394 0-0.394 0-0.591-0.197-0.788-0.788-0.788-1.182 0-65.575 1.182-145.132 11.422-239.262v0c4.923-44.505 11.028-86.843 18.708-129.575 0-0.591 0.394-0.985 0.985-0.985 0.394-0.197 0.985 0 1.378 0.394 5.12 5.317 11.225 11.422 17.132 17.526 6.105 6.105 12.012 12.406 17.329 17.723 0.197 0.197 0.394 0.788 0.394 1.182-5.908 45.686-10.437 92.554-13.588 139.618s-5.12 94.72-5.514 141.785c0 0.394-0.197 0.591-0.394 0.788l-45.292 51.791c-0.591 0-0.985 0.197-1.378 0.197zM77.194 432.837c-9.846 92.16-11.422 170.535-11.422 235.323l42.535-48.64c0.394-47.065 2.363-94.523 5.514-141.588 3.151-46.868 7.877-93.735 13.588-139.225-5.12-5.12-10.831-11.225-16.738-17.132-5.317-5.514-10.634-10.831-15.36-15.754-7.483 41.945-13.391 83.495-18.117 127.015v0z"></path>
<path fill="#232323" d="M308.972 734.917v0c-0.197 0-0.197 0-0.394 0l-181.366-42.732c-11.028-2.56-18.905-12.406-18.905-23.631-0.197-14.966-0.197-30.917 0-48.64 0.394-47.065 2.363-94.917 5.514-141.982 3.151-46.868 7.877-93.735 13.588-139.028-5.12-5.12-10.831-11.225-16.738-17.132-6.105-6.105-12.012-12.209-17.132-17.526l1.969-1.969c5.12 5.317 11.225 11.422 17.132 17.526 6.105 6.105 12.012 12.406 17.329 17.723 0.394 0.394 0.394 0.788 0.394 1.182-5.908 45.686-10.437 92.554-13.588 139.618s-5.12 94.72-5.514 141.785c-0.197 17.723-0.197 33.674 0 48.64 0.197 10.043 7.089 18.511 16.738 20.874l181.366 42.732-0.394 1.182v1.378z"></path>
<path fill="#232323" d="M65.969 817.625c-0.985-23.237-2.166-60.258-2.56-105.354v-12.012c0-9.058-0.197-18.708-0.197-28.554 0-65.575 1.182-145.132 11.422-239.262 4.923-44.505 11.028-86.843 18.708-129.575 4.923-27.963 10.634-55.729 16.738-82.708l2.56 0.591c-6.105 26.978-11.618 54.745-16.738 82.511-7.68 42.732-13.785 85.071-18.511 129.575-10.043 93.932-11.422 173.489-11.422 238.868 0 9.846 0 19.298 0.197 28.554v12.012c0.394 45.095 1.575 82.117 2.56 105.157l-2.757 0.197z"></path>
<path fill="#232323" d="M63.531 670.758l45.229-51.744 2.076 1.814-45.229 51.744-2.076-1.814z"></path>
<path fill="#232323" d="M63.409 255.212l-0.985-1.772c0.394-0.197 0.788-0.394 1.182-0.591 0.197-0.197 0.591-0.197 0.788-0.394l0.985 1.772c-0.197 0.197-0.591 0.197-0.788 0.394-0.591 0.197-0.788 0.394-1.182 0.591z"></path>
<path fill="#232323" d="M30.917 470.449v0-1.969z"></path>
<path fill="#232323" d="M42.142 470.646c0 0 0 0 0 0l-11.225-0.197c-0.197 0-0.591-0.197-0.788-0.394s-0.394-0.591-0.197-0.788c4.726-64.788 13.194-129.772 25.009-192.985 1.575-8.271 4.529-16.148 8.862-23.434 0-0.197 0.197-0.197 0.394-0.394l0.591-0.197c0.985-0.591 2.166-1.182 3.545-1.772 7.286-3.151 15.163-4.135 23.434-3.151 0.197 0 0.591 0.197 0.788 0.394s0.197 0.591 0.197 0.788c-1.182 6.105-2.56 14.375-4.135 24.025l-2.56 14.966c-15.163 87.828-17.526 102.4-17.526 103.385 0 1.772-19.298 61.046-25.009 79.163-0.394 0.394-0.788 0.591-1.378 0.591zM32.098 468.48l9.255 0.197c9.846-30.523 24.418-75.815 24.812-77.982 0-0.197 0-1.378 17.526-103.582l2.56-14.966c1.575-9.255 2.954-16.935 3.938-23.040-7.483-0.788-14.769 0.394-21.268 3.151-1.182 0.591-2.166 0.985-3.348 1.575l-0.197 0.197c-4.135 7.089-7.089 14.572-8.468 22.646-11.618 62.818-19.889 127.409-24.812 191.803z"></path>
<path fill="#232323" d="M1832.763 541.538c-19.102-5.514-38.203-11.028-56.517-16.148-12.8-3.545-25.403-7.089-37.809-10.24-19.298-5.12-35.052-21.465-39.385-40.763v-0.394c-1.772-8.271-2.954-16.738-3.545-25.206l2.954-0.197c0.591 8.271 1.575 16.738 3.348 24.812v0.394c3.938 18.314 18.905 33.674 37.218 38.597 12.406 3.348 25.009 6.695 37.809 10.24 18.511 5.12 37.415 10.437 56.714 16.148l-0.788 2.757z"></path>
<path fill="#232323" d="M1928.862 588.012c-27.766-26.191-58.289-49.822-90.585-70.302-32.098-20.48-66.56-37.809-101.809-51.988l0.985-2.757c35.643 14.178 70.105 31.705 102.4 52.185 32.492 20.48 63.015 44.308 90.978 70.498l-1.969 2.363z"></path>
<path fill="#232323" d="M1973.957 823.138c-0.197 0-0.197 0-0.394 0l-64.788-2.363c-9.649-0.394-17.329-12.997-17.329-28.948 0-10.437 0-22.449 0-32.689v0c0-9.058 3.151-17.329 8.271-20.874 2.757-1.969 5.711-2.363 8.468-1.182 15.951 5.711 31.508 14.572 46.277 26.191 8.862 6.892 17.526 14.966 25.797 23.828 6.695 7.286 6.892 20.283 3.151 28.554-2.166 4.923-5.514 7.483-9.452 7.483zM1905.034 739.052c-1.378 0-2.757 0.394-3.938 1.378-4.332 3.151-7.286 10.437-7.286 18.708v0c0 10.24 0 22.252 0 32.689 0 14.375 6.695 26.191 14.966 26.388l64.788 2.363c0 0 0.197 0 0.197 0 3.938 0 6.105-3.742 7.089-5.908 3.348-7.483 3.151-19.495-2.757-25.797-8.074-8.862-16.738-16.738-25.403-23.631-14.572-11.422-29.932-20.086-45.489-25.797-0.591-0.197-1.378-0.394-2.166-0.394z"></path>
<path fill="#232323" d="M1920.788 809.354c-6.498 0-11.225-11.618-11.225-26.978v0 0c0-7.089 0.985-13.588 2.954-18.708 2.166-5.514 5.12-8.468 8.271-8.468 6.498 0 11.225 11.618 11.225 26.978 0 7.089-0.985 13.588-2.954 18.708-2.166 5.514-5.12 8.468-8.271 8.468zM1920.788 757.957c-1.969 0-4.135 2.56-5.711 6.695-1.772 4.726-2.757 11.028-2.757 17.723v0c0 14.375 4.529 24.222 8.468 24.222 1.969 0 4.135-2.56 5.711-6.695 1.772-4.726 2.757-11.028 2.757-17.723 0-14.178-4.529-24.222-8.468-24.222z"></path>
<path fill="#232323" d="M1487.951 490.535h-9.058c-3.938 0-7.877-1.772-10.634-4.923-3.938-4.135-5.908-10.437-5.317-16.935l6.892-88.222c0.394-3.938 2.166-7.483 4.923-10.043 2.757-2.363 6.302-3.545 9.846-3.151l6.892 0.591c7.483 0.591 13.391 7.286 13.391 15.163v49.428l56.32 9.058 38.203 42.338-94.72-16.935v2.363c0.394 11.815-7.286 21.268-16.738 21.268zM1483.618 369.822c-2.56 0-5.12 0.985-7.089 2.56-2.363 1.969-3.742 4.923-4.135 8.074l-6.892 88.222c-0.394 5.711 1.378 11.422 4.726 14.966 2.363 2.56 5.514 3.938 8.665 3.938h9.058c7.877 0 14.375-8.271 14.375-18.511v-5.514l89.994 16.148-32.492-35.84-55.729-9.058c-0.197 0-0.394 0-0.788 0h-1.182v-51.988c0-6.498-4.726-12.012-11.028-12.406l-6.892-0.591c0 0-0.394 0-0.591 0z"></path>
<path fill="#232323" d="M1606.498 1007.262c-79.754 0-144.542-64.788-144.542-144.542s64.788-144.542 144.542-144.542 144.542 64.788 144.542 144.542-64.788 144.542-144.542 144.542zM1606.498 723.102c-76.997 0-139.618 62.622-139.618 139.618s62.622 139.618 139.618 139.618 139.618-62.622 139.618-139.618-62.622-139.618-139.618-139.618z"></path>
<path fill="#232323" d="M1606.498 956.652c-51.791 0-93.932-42.142-93.932-93.932s42.142-93.932 93.932-93.932c51.791 0 93.932 42.142 93.932 93.932s-42.142 93.932-93.932 93.932zM1606.498 771.348c-50.412 0-91.372 40.96-91.372 91.372s40.96 91.372 91.372 91.372 91.372-40.96 91.372-91.372-40.96-91.372-91.372-91.372z"></path>
<path fill="#232323" d="M1606.695 873.354c-0.985 0-1.772-0.197-2.757-0.394-5.908-1.575-9.452-7.483-7.877-13.194s7.483-9.058 13.194-7.68c5.908 1.575 9.452 7.483 7.877 13.194-1.378 4.923-5.711 8.074-10.437 8.074zM1606.302 854.449c-3.742 0-7.089 2.363-8.074 6.105-1.182 4.332 1.575 9.058 6.105 10.24s9.255-1.378 10.24-5.908c1.182-4.332-1.575-9.058-6.105-10.24-0.591-0.197-1.378-0.197-2.166-0.197z"></path>
<path fill="#232323" d="M1618.117 826.289c-0.591 0-1.378 0-1.969-0.197-2.363-0.591-4.332-2.166-5.317-4.529l-11.618-26.191c-1.575-3.348-0.591-7.483 2.56-9.649l6.498-4.923c1.378-1.182 3.151-1.575 5.12-1.575 1.378 0 2.757 0.197 3.938 0.197 3.545 0.394 7.089 0.985 10.437 1.969 3.545 0.788 6.892 1.969 10.043 3.348 1.182 0.591 2.363 1.182 3.545 1.772 1.575 0.788 2.954 2.166 3.742 3.938l3.348 7.483c1.575 3.348 0.394 7.483-2.56 9.649l-22.843 17.132c-1.575 0.985-3.348 1.575-4.923 1.575zM1612.997 781.588c-1.182 0-2.56 0.394-3.348 1.182l-6.695 4.923c-2.166 1.575-2.757 4.332-1.772 6.695l11.618 26.191c0.788 1.575 1.969 2.757 3.742 3.151 1.575 0.394 3.348 0 4.726-0.985l22.843-17.132c2.166-1.575 2.757-4.332 1.772-6.695l-3.348-7.483c-0.591-1.182-1.378-2.166-2.56-2.757s-2.363-1.182-3.545-1.575c-3.151-1.378-6.302-2.363-9.649-3.151 0 0 0 0 0 0-3.348-0.985-6.695-1.575-10.043-1.969-1.182-0.394-2.363-0.394-3.742-0.394 0 0 0 0 0 0z"></path>
<path fill="#232323" d="M1675.225 883.988c-1.575 0-3.151-0.394-4.726-1.575l-23.434-16.542c-1.969-1.378-3.151-3.545-3.348-6.105-0.197-2.363 0.788-4.726 2.56-6.498l21.268-19.102c2.757-2.56 6.892-2.757 10.043-0.591l6.695 4.726c1.575 0.985 2.56 2.56 3.151 4.332 0.394 1.182 0.788 2.56 0.985 3.938 0.788 3.545 1.182 7.089 1.378 10.634 0.394 3.545 0.197 7.089 0 10.634-0.197 1.378-0.394 2.56-0.591 3.938-0.394 1.772-1.182 3.545-2.56 4.726l-6.105 5.514c-1.575 1.378-3.348 1.969-5.317 1.969zM1673.058 834.56c-1.378 0-2.757 0.394-3.742 1.378l-21.268 19.102c-1.378 1.182-1.969 2.757-1.772 4.529s0.985 3.348 2.363 4.332l23.434 16.542c2.166 1.575 4.923 1.378 6.892-0.394l6.105-5.514c0.985-0.788 1.575-1.969 1.772-3.348 0.197-1.182 0.394-2.56 0.591-3.742 0.394-3.348 0.394-6.892 0-10.24 0 0 0 0 0 0-0.197-3.348-0.591-6.892-1.182-10.043-0.197-1.182-0.591-2.56-0.985-3.742s-1.182-2.363-2.166-3.151l-6.695-4.726c-0.985-0.591-2.166-0.985-3.348-0.985z"></path>
<path fill="#232323" d="M1623.434 943.655c-1.378 0-2.757-0.394-3.938-0.985l-7.286-3.938c-3.348-1.772-4.923-5.711-3.742-9.255l8.074-27.569c0.591-2.363 2.363-4.332 4.726-5.12 2.363-0.985 4.726-0.788 6.892 0.394l25.009 13.982c3.348 1.772 4.923 5.711 3.742 9.255l-2.363 7.877c-0.591 1.772-1.575 3.348-3.151 4.332-0.985 0.788-2.166 1.575-3.348 2.166-2.954 1.772-6.302 3.348-9.452 4.726-3.348 1.378-6.695 2.56-10.043 3.348-1.378 0.394-2.56 0.591-3.938 0.788-0.394 0-0.788 0-1.182 0zM1624.222 898.56c-0.788 0-1.378 0.197-2.166 0.394-1.575 0.591-2.757 1.969-3.348 3.545l-8.074 27.569c-0.788 2.56 0.394 5.12 2.56 6.498l7.286 3.938c1.182 0.591 2.363 0.788 3.742 0.591 1.182-0.197 2.56-0.394 3.742-0.788 3.348-0.788 6.498-1.772 9.649-3.348 0 0 0 0 0 0 3.151-1.182 6.302-2.757 9.255-4.529 1.182-0.591 2.166-1.378 3.151-2.166s1.772-1.772 2.166-3.151l2.363-7.877c0.788-2.56-0.394-5.12-2.757-6.498l-25.009-13.982c-0.788 0-1.772-0.197-2.56-0.197z"></path>
<path fill="#232323" d="M1556.677 926.129c-1.772 0-3.545-0.591-4.923-1.772-0.985-0.788-2.166-1.772-2.954-2.56-2.56-2.363-5.12-5.12-7.089-7.877-2.363-2.757-4.332-5.711-6.105-8.665-0.591-1.182-1.182-2.363-1.772-3.545-0.788-1.575-0.985-3.545-0.591-5.317l1.969-8.074c0.788-3.742 4.135-6.105 7.877-6.105 0 0 0 0 0 0h28.751c2.363 0 4.726 1.182 6.302 2.954 1.575 1.969 2.166 4.332 1.575 6.892l-6.498 27.963c-0.788 3.742-4.135 6.302-7.877 6.302l-8.665-0.197c0 0 0 0 0 0zM1542.695 884.578c-2.56 0-4.923 1.772-5.514 4.332l-1.969 8.074c-0.197 1.182-0.197 2.56 0.394 3.742s1.182 2.363 1.772 3.348c1.575 2.954 3.545 5.711 5.908 8.468 0 0 0 0 0 0 1.969 2.757 4.332 5.317 6.892 7.483 0.985 0.788 1.969 1.772 2.954 2.56s2.166 1.182 3.545 1.182c0 0 0 0 0 0h8.271c2.56 0 4.923-1.772 5.514-4.332l6.498-27.963c0.394-1.772 0-3.348-0.985-4.726s-2.757-2.166-4.332-2.166h-28.948c0 0 0 0 0 0z"></path>
<path fill="#232323" d="M1539.742 848.738c-3.348 0-6.498-2.166-7.483-5.317l-2.757-7.877c-0.591-1.772-0.591-3.545 0-5.317 0.394-1.182 0.985-2.56 1.378-3.742 1.378-3.151 3.151-6.302 5.12-9.255 1.772-2.954 3.938-5.908 6.302-8.665 0.788-0.985 1.772-1.969 2.757-2.954 1.378-1.378 2.954-2.166 4.923-2.363l8.271-0.788c3.742-0.394 7.286 1.772 8.468 5.317l9.255 27.175c0.788 2.363 0.591 4.923-0.788 6.892s-3.545 3.348-5.908 3.742l-28.554 2.954c-0.591 0.197-0.788 0.197-0.985 0.197zM1558.843 805.022c-0.197 0-0.394 0-0.591 0l-8.271 0.788c-1.182 0.197-2.56 0.788-3.348 1.575-0.985 0.985-1.772 1.772-2.56 2.757-2.166 2.56-4.332 5.317-6.105 8.271 0 0 0 0 0 0-1.969 2.757-3.545 5.908-4.923 9.058-0.591 1.182-0.985 2.363-1.378 3.545s-0.394 2.56 0 3.742l2.757 7.877c0.788 2.56 3.348 3.938 5.908 3.742l28.554-2.954c1.772-0.197 3.151-1.182 4.135-2.56s1.182-3.151 0.591-4.923l-9.255-27.175c-0.985-2.363-3.151-3.742-5.514-3.742z"></path>
<path fill="#232323" d="M422.991 1007.262c-79.754 0-144.542-64.788-144.542-144.542s64.788-144.542 144.542-144.542 144.542 64.788 144.542 144.542-64.788 144.542-144.542 144.542zM422.991 723.102c-76.997 0-139.618 62.622-139.618 139.618s62.622 139.618 139.618 139.618 139.618-62.622 139.618-139.618-62.622-139.618-139.618-139.618z"></path>
<path fill="#232323" d="M422.991 956.652c-51.791 0-93.932-42.142-93.932-93.932s42.142-93.932 93.932-93.932 93.932 42.142 93.932 93.932-42.142 93.932-93.932 93.932zM422.991 771.348c-50.412 0-91.372 40.96-91.372 91.372s40.96 91.372 91.372 91.372 91.372-40.96 91.372-91.372-40.96-91.372-91.372-91.372z"></path>
<path fill="#232323" d="M423.188 873.354c-0.985 0-1.772-0.197-2.757-0.394-2.757-0.788-5.12-2.56-6.695-4.923-1.575-2.56-1.969-5.317-1.182-8.074s2.56-5.12 4.923-6.498c2.56-1.378 5.514-1.772 8.271-1.182 5.908 1.575 9.452 7.483 7.877 13.194v0c-1.182 4.726-5.514 7.877-10.437 7.877zM422.991 854.449c-1.575 0-2.954 0.394-4.332 1.182-1.969 1.182-3.348 2.954-3.938 5.12s-0.197 4.332 0.985 6.302c1.182 1.969 2.954 3.348 5.317 3.938 4.529 1.182 9.255-1.378 10.24-5.908v0c1.182-4.332-1.575-9.058-6.105-10.24-0.788-0.394-1.575-0.394-2.166-0.394zM432.443 865.083v0 0z"></path>
<path fill="#232323" d="M434.609 826.289c-0.591 0-1.378 0-1.969-0.197-2.363-0.591-4.332-2.166-5.317-4.529l-11.618-26.191c-1.575-3.348-0.591-7.483 2.56-9.649l6.498-4.923c1.378-1.182 3.348-1.772 5.12-1.575 1.378 0 2.757 0.197 3.938 0.197 3.545 0.394 7.089 0.985 10.437 1.969 3.545 0.788 6.892 1.969 10.043 3.348 1.182 0.591 2.363 1.182 3.545 1.772 1.575 0.788 2.954 2.166 3.742 3.938l3.348 7.483c1.575 3.348 0.394 7.483-2.56 9.649l-22.843 17.132c-1.575 0.985-3.151 1.575-4.923 1.575zM429.489 781.588c-1.182 0-2.363 0.394-3.348 1.182l-6.695 4.923c-2.166 1.575-2.757 4.332-1.772 6.695l11.618 26.191c0.788 1.575 1.969 2.757 3.742 3.151 1.575 0.394 3.348 0 4.726-0.985l22.843-17.132c2.166-1.575 2.757-4.332 1.772-6.695l-3.348-7.483c-0.591-1.182-1.378-2.166-2.56-2.757s-2.363-1.182-3.545-1.575c-3.151-1.378-6.302-2.363-9.649-3.151 0 0 0 0 0 0-3.348-0.985-6.695-1.575-10.043-1.969-0.985-0.394-2.363-0.394-3.742-0.394 0.197 0 0 0 0 0z"></path>
<path fill="#232323" d="M491.717 883.988c-1.575 0-3.151-0.394-4.726-1.575l-23.434-16.542c-1.969-1.378-3.151-3.545-3.348-6.105s0.788-4.726 2.56-6.498l21.268-19.102c2.757-2.56 6.892-2.757 10.043-0.591l6.695 4.726c1.575 0.985 2.56 2.56 3.151 4.332 0.394 1.182 0.788 2.56 0.985 3.938 0.788 3.545 1.182 7.089 1.378 10.634 0.394 3.545 0.197 7.089 0 10.634-0.197 1.378-0.394 2.56-0.591 3.938-0.394 1.772-1.182 3.545-2.56 4.726l-6.105 5.514c-1.378 1.378-3.348 1.969-5.317 1.969zM489.748 834.56c-1.378 0-2.757 0.394-3.742 1.378l-21.268 19.102c-1.378 1.182-1.969 2.757-1.772 4.529s0.985 3.348 2.363 4.332l23.434 16.542c2.166 1.575 4.923 1.378 6.892-0.394l6.105-5.514c0.985-0.788 1.575-1.969 1.772-3.348 0.197-1.182 0.394-2.56 0.591-3.742 0.394-3.348 0.394-6.892 0-10.24 0 0 0 0 0 0-0.197-3.348-0.591-6.892-1.182-10.043-0.197-1.182-0.591-2.56-0.985-3.742s-1.182-2.363-2.166-3.151l-6.695-4.726c-1.182-0.591-2.166-0.985-3.348-0.985z"></path>
<path fill="#232323" d="M439.926 943.655c-1.378 0-2.757-0.394-3.938-0.985l-7.286-3.938c-3.348-1.772-4.923-5.711-3.742-9.255l8.074-27.569c0.591-2.363 2.363-4.332 4.726-5.12 2.363-0.985 4.726-0.788 6.892 0.394l25.009 13.982c3.348 1.772 4.923 5.711 3.742 9.255l-2.363 7.877c-0.591 1.772-1.575 3.348-3.151 4.332-0.985 0.788-2.166 1.575-3.348 2.166-2.954 1.772-6.302 3.348-9.452 4.726-3.348 1.378-6.695 2.56-10.043 3.348-1.378 0.394-2.56 0.591-3.938 0.788-0.197 0-0.788 0-1.182 0zM440.714 898.56c-0.788 0-1.378 0.197-2.166 0.394-1.575 0.591-2.757 1.969-3.348 3.545l-8.074 27.569c-0.788 2.56 0.394 5.12 2.56 6.498l7.286 3.938c1.182 0.591 2.363 0.788 3.742 0.591 1.182-0.197 2.56-0.394 3.742-0.788 3.348-0.788 6.498-1.772 9.649-3.348 0 0 0 0 0 0 3.151-1.182 6.302-2.757 9.255-4.529 1.182-0.591 2.166-1.378 3.151-2.166s1.772-1.772 2.166-3.151l2.363-7.877c0.788-2.56-0.394-5.12-2.757-6.498l-25.009-13.982c-0.591 0-1.575-0.197-2.56-0.197z"></path>
<path fill="#232323" d="M373.169 926.129c-1.772 0-3.545-0.591-4.923-1.772-0.985-0.788-2.166-1.772-2.954-2.56-2.56-2.363-5.12-4.923-7.089-7.877-2.363-2.757-4.332-5.711-6.105-8.665-0.591-1.182-1.182-2.363-1.772-3.545-0.788-1.575-0.985-3.545-0.591-5.317l1.969-8.074c0.788-3.742 4.135-6.105 7.877-6.105 0 0 0 0 0 0h28.751c2.363 0 4.726 1.182 6.302 2.954s2.166 4.332 1.575 6.892l-6.498 27.963c-0.788 3.742-4.135 6.302-7.877 6.302l-8.665-0.197c0.197 0 0.197 0 0 0zM359.188 884.578c-2.56 0-4.923 1.772-5.514 4.332l-1.969 8.074c-0.197 1.182-0.197 2.56 0.394 3.742s1.182 2.363 1.772 3.348c1.575 2.954 3.545 5.711 5.908 8.468 0 0 0 0 0 0 1.969 2.757 4.332 5.317 6.892 7.483 0.985 0.788 1.969 1.772 2.954 2.56s2.363 1.378 3.545 1.182h8.271c2.56 0 4.923-1.772 5.514-4.332l6.498-27.963c0.394-1.772 0-3.348-0.985-4.726s-2.757-2.166-4.332-2.166h-28.948c0 0 0 0 0 0z"></path>
<path fill="#232323" d="M356.234 848.738c-3.348 0-6.498-2.166-7.483-5.317l-2.757-7.877c-0.591-1.772-0.591-3.545 0-5.317 0.394-1.182 0.985-2.56 1.378-3.742 1.378-3.348 3.151-6.302 5.12-9.255 1.772-2.954 3.938-5.908 6.302-8.665 0.788-0.985 1.772-1.969 2.757-2.954 1.378-1.378 2.954-2.166 4.923-2.363l8.271-0.788c3.742-0.394 7.286 1.772 8.468 5.317l9.255 27.175c0.788 2.363 0.591 4.923-0.788 6.892-1.378 2.166-3.545 3.348-5.908 3.742l-28.554 2.954c-0.394 0.197-0.788 0.197-0.985 0.197zM375.335 805.022c-0.197 0-0.394 0-0.591 0l-8.271 0.788c-1.182 0.197-2.363 0.591-3.348 1.575s-1.772 1.772-2.56 2.757c-2.166 2.56-4.332 5.317-6.105 8.271 0 0 0 0 0 0-1.969 2.757-3.545 5.908-4.923 9.058-0.591 1.182-0.985 2.363-1.378 3.545s-0.394 2.56 0 3.742l2.757 7.877c0.788 2.56 3.348 3.938 5.908 3.742l28.554-2.954c1.772-0.197 3.151-1.182 4.135-2.56s1.182-3.151 0.591-4.923l-9.255-27.175c-0.985-2.363-2.954-3.742-5.514-3.742z"></path>
<path fill="#232323" d="M2003.102 808.96c0 0 0 0 0 0-0.394 0-0.788-0.394-0.985-0.788-2.166-6.498-5.711-17.132-9.452-29.735-0.197-0.591 0.197-1.182 0.788-1.378l0.591-0.197c0 0 0.197 0 0.394 0h16.738c0.394 0 0.591 0.197 0.788 0.394s0.394 0.591 0.197 0.788c-1.182 9.846-3.938 19.889-8.074 30.129-0.197 0.591-0.591 0.788-0.985 0.788zM1995.028 779.225c3.151 10.437 5.908 19.298 8.074 25.797 3.348-8.665 5.711-17.329 6.695-25.797h-14.769z"></path>
<path fill="#232323" d="M1993.649 779.815c-0.591 0-1.182-0.394-1.378-0.985-7.089-23.631-12.012-44.308-14.769-61.637 0-0.394 0-0.985 0.394-1.378s0.788-0.394 1.378-0.394l15.557 2.954c0.591 0.197 0.985 0.591 1.182 1.182 0.394 1.575 1.182 3.151 2.363 4.529 3.742 4.529 6.695 9.452 9.255 15.163 5.12 11.815 6.892 25.009 5.317 39.188 0 0.788-0.788 1.378-1.575 1.378h-16.542l-0.394 0.197c-0.394-0.197-0.591-0.197-0.788-0.197zM1994.634 776.665h14.966c1.378-13.194-0.394-25.403-5.317-36.431-2.363-5.317-5.317-10.043-8.862-14.572-1.182-1.575-1.969-3.151-2.56-4.726l-12.406-2.363c2.954 16.542 7.68 36.037 14.178 58.092z"></path>
<path fill="#232323" d="M1994.437 720.738c-0.197 0-0.197 0 0 0l-15.754-2.954c-0.394 0-0.788-0.394-0.788-0.788-4.726-30.326-1.969-48.64 7.877-54.351 2.757-1.575 5.908-2.166 9.846-1.772 0.591 0 0.985 0.394 0.985 0.985 1.378 16.738 0.985 34.462-1.575 52.382-0.197 1.969 0 3.742 0.394 5.12 0.197 0.394 0 0.788-0.197 0.985s-0.591 0.394-0.788 0.394zM1979.865 716.012l13.194 2.363c-0.197-1.378-0.197-2.757 0-4.332 2.363-17.526 2.954-34.658 1.575-51.003-2.954-0.197-5.711 0.394-7.68 1.575 0 0 0 0 0 0-9.255 5.12-11.618 22.252-7.089 51.397z"></path>
<path fill="#232323" d="M65.772 256.197l-3.938-2.56 0.197-0.197c0-0.197 0.197-0.394 0.197-0.394l3.938 2.56-0.197 0.197c0 0.197-0.197 0.394-0.197 0.394z"></path>
<path fill="#232323" d="M66.166 255.606l-3.938-2.363 0.197-0.394c0-0.197 0.197-0.394 0.394-0.591 0-0.197 0.197-0.394 0.394-0.394l1.772 1.772 1.772 1.182-0.197 0.394c-0.197 0-0.197 0.197-0.394 0.394z"></path>
<path fill="#232323" d="M1994.043 721.132l-125.046-23.237-21.071 13.391c-10.043 6.498-21.662 9.649-33.674 9.452l-117.169-2.363v-2.954l117.366 2.363c11.422 0.394 22.449-2.757 31.902-8.862l21.465-13.785c0.394-0.197 0.591-0.197 0.985-0.197l125.637 23.237-0.394 2.954z"></path>
<path fill="#232323" d="M2001.723 808.369c-2.166-6.498-5.711-17.132-9.452-29.735-7.089-23.631-12.012-44.308-14.769-61.637-4.726-30.523-1.969-49.034 8.074-54.745 2.757-1.575 6.105-2.166 10.043-1.969l-0.197 2.954c-3.348-0.394-6.105 0.197-8.468 1.575-8.862 5.12-11.028 22.843-6.695 51.791 2.757 17.132 7.68 37.809 14.769 61.243 3.742 12.603 7.089 23.040 9.452 29.538l-2.757 0.985z"></path>
<path fill="#232323" d="M1994.437 775.68h16.738v4.726h-16.738v-4.726z"></path>
<path fill="#232323" d="M1943.631 598.646h35.249v2.954h-35.249v-2.954z"></path>
<path fill="#262626" d="M1080.517 971.225c-0.591 0-1.378-0.197-1.772-0.788-0.591-0.591-0.985-1.378-0.985-2.166l-2.363-950.351c0-0.788 0.394-1.575 0.985-2.166s1.378-0.788 2.166-0.788l249.895 25.206c1.378 0.197 2.56 1.378 2.56 2.757l0.788 896.394c0 1.378-0.985 2.56-2.56 2.757l-248.517 28.948c0 0.197-0.197 0.197-0.197 0.197zM1080.911 20.874l2.166 944.443 242.806-28.357-0.591-891.471-244.382-24.615z"></path>
<path fill="#262626" d="M1080.32 971.422c-0.197 0-0.591 0-0.788-0.197l-19.102-6.302c-1.182-0.394-1.969-1.378-1.969-2.56v-941.095c0-1.378 0.985-2.56 2.166-2.757l16.935-3.545c0.985-0.197 1.772 0 2.56 0.788s1.182 1.772 0.788 2.954l2.166 949.366c0.197 0.985-0.197 1.969-0.985 2.56l-0.197 0.197c-0.394 0.394-0.985 0.591-1.575 0.591zM1063.975 960.197l13.588 4.529-2.166-943.655-11.422 2.363v936.763z"></path>
<path fill="#262626" d="M1061.218 964.923c0 0 0 0 0 0-5.514-0.197-9.649-2.166-12.012-6.302-0.197-0.394-0.394-0.985-0.394-1.378v-928.492c0-0.788 0.394-1.772 0.985-2.166l9.846-7.68c0.985-0.788 2.56-0.788 3.545 0.197 0.788 0.788 1.182 1.772 0.788 2.757 0 0 0 0.197 0 0.197v940.111c0 0.985-0.394 1.772-1.182 2.363v0c-0.591 0.394-0.985 0.394-1.575 0.394zM1054.129 956.455c0.985 1.378 2.363 2.363 4.135 2.757v-932.431l-4.135 3.348v926.326z"></path>
<path fill="#262626" d="M1051.372 960c-0.985 0-1.969-0.591-2.56-1.575l-15.163-30.72c-0.197-0.394-0.197-0.788-0.197-1.182v-885.169c0-0.788 0.394-1.575 0.985-2.166l14.769-12.603c0.788-0.591 1.772-0.788 2.757-0.394l0.394 0.197c0.985 0.394 1.772 1.378 1.772 2.56v928.098c0 0.197 0 0.394 0 0.591 0 1.182-0.788 1.969-1.772 2.363-0.197 0-0.591 0-0.985 0zM1039.163 925.932l9.649 19.495v-910.966l-9.649 8.074v883.397z"></path>
<path fill="#262626" d="M1139.2 1014.942c-8.271 0-16.738 0-25.403-0.197-1.575 0-2.757-1.182-2.757-2.757l-0.197-32.492c0-0.788 0.394-1.575 0.788-1.969 0.591-0.591 1.182-0.788 1.969-0.788 87.237 2.757 165.022-4.332 231.385-21.071 0.788-0.197 1.772 0 2.363 0.591s0.985 1.378 0.985 2.166l0.197 29.342c0 1.182-0.788 2.363-1.969 2.757-60.849 16.542-127.212 24.418-207.36 24.418zM1116.554 1009.034c89.009 1.575 161.083-5.908 226.658-23.631l-0.197-23.631c-65.378 15.951-141.588 22.843-226.658 20.283l0.197 26.978z"></path>
<path fill="#262626" d="M1149.243 982.843c-11.422 0-23.040-0.197-34.855-0.591-0.591 0.197-0.985 0.197-1.575 0l-33.083-11.225c-0.985-0.394-1.575-1.182-1.772-2.166s0.197-1.969 0.985-2.56c0.394-0.394 0.985-0.591 1.575-0.591l248.32-28.948c0.788 0 1.378 0.197 1.969 0.591l0.197 0.197c0.197 0.197 0.197 0.197 0.394 0.394l16.935 18.708c0.591 0.788 0.985 1.772 0.591 2.757-0.197 0.985-0.985 1.575-1.969 1.969-58.289 14.178-124.455 21.465-197.711 21.465zM1113.6 976.542c0 0 0 0 0 0 85.268 2.56 161.477-4.135 227.052-19.889l-12.997-14.375-234.535 27.372 20.48 6.892c0 0 0 0 0 0z"></path>
<path fill="#262626" d="M1113.797 1014.548c-0.197 0-0.591 0-0.788-0.197l-52.578-17.132c-0.394-0.197-0.591-0.197-0.985-0.394l-23.040-18.511c-0.394-0.394-0.788-0.788-0.788-1.182l-7.286-19.889c-0.197-0.394-0.197-0.591-0.197-0.985l-0.197-26.782c0-0.985 0.591-1.969 1.378-2.363l5.514-3.348c0.394-0.197 0.788-0.394 1.378-0.394 0.788 0 1.575 0.197 2.166 0.788 0.591 0.394 0.788 1.182 0.788 1.772l14.572 29.735c0 0 0.197 0.197 0.197 0.197 1.575 2.363 3.742 3.545 7.089 3.742 0.591 0 0.985 0 1.575 0.394 0 0 0.197 0 0.197 0.197l17.526 5.711c0.394 0 0.788 0 1.182 0.197l33.083 11.225c1.182 0.394 1.969 1.378 1.969 2.56l0.197 32.098c0 0.788-0.394 1.575-0.788 1.969l-0.197 0.197c-0.591 0.197-1.378 0.394-1.969 0.394zM1062.4 992.098l48.443 15.754-0.197-26.388-30.326-10.24c-0.394 0-0.788 0-0.985-0.197l-18.905-6.302c-4.923-0.197-8.665-2.166-11.028-5.711-0.197-0.197-0.394-0.394-0.591-0.788l-13.982-28.357-1.378 0.788 0.197 24.812 6.892 18.708 21.858 17.92z"></path>
<path fill="#262626" d="M1312.492 498.806h-219.372v-425.551l219.372 23.434v402.117zM1098.634 493.292h208.148v-391.483l-208.148-22.449v413.932z"></path>
<path fill="#262626" d="M1080.123 968.468l-2.166-950.745h0.394l2.363 950.745z"></path>
<path fill="#262626" d="M1083.471 971.225h-6.105v-2.757l-2.166-953.502h6.105v2.757z"></path>
<path fill="#262626" d="M1030.892 959.015c-15.163 7.089-26.388 16.542-36.431 25.797-1.182 0.985-2.363 2.166-3.545 3.545-11.422 11.225-25.797 25.009-72.665 13.588-62.228-15.163-126.031-30.72-194.954-47.262-13.194-3.151-13.785-5.908-13.785-5.908l-5.514 0.197v4.923c-0.197 4.923 5.514 8.468 18.314 11.618 68.923 16.542 132.726 32.098 194.954 47.262 12.8 3.151 23.434 4.529 32.295 4.529 25.6 0 36.825-10.831 45.686-19.495 1.182-1.182 2.363-2.363 3.545-3.348 9.452-8.665 20.086-17.526 33.871-24.222-1.378-3.938-1.772-7.68-1.772-11.225z"></path>
<path fill="#262626" d="M829.834 940.898l-1.772-0.985c-2.56-1.378-3.938-3.742-4.135-7.089 0.591-33.871 0-70.105-1.575-111.065l5.514-0.197c1.969 38.597 3.348 77.588 4.332 115.791v1.182l-2.363 2.363z"></path>
<path fill="#262626" d="M575.803 529.132l153.6-158.523 309.169 17.526c0.197-1.772 0.394-3.742 0.591-5.514l-311.926-17.723-163.249 168.566 422.203 47.655 51.2-67.348c0.394-3.545 0.788-7.089 1.182-10.831l-54.745 72.271-408.025-46.080z"></path>
<path fill="#262626" d="M987.372 606.129c-0.788 0-1.772 0-2.954-0.197l-397.588-47.065c-4.923-0.591-7.286-0.788-12.012-4.135-5.908-4.135-10.831-10.24-14.966-15.557-0.985-1.378-3.742-4.923-1.969-8.074 1.772-2.954 6.105-3.348 12.012-2.757v0h0.591l413.145 46.671 1.772-2.166 1.378 2.56c4.923 0.394 8.862 0.985 11.618 4.135 3.938 4.332-0.591 18.511-2.56 21.465-2.166 3.348-3.938 5.12-8.468 5.12zM563.003 533.858c0.197 0.394 0.591 0.985 1.182 1.969 3.938 5.12 8.468 10.634 13.785 14.375 3.545 2.363 4.923 2.56 9.649 3.151l1.182 0.197 396.406 46.868c4.135 0.394 4.529 0.197 6.105-2.363 1.772-2.757 4.135-12.8 3.151-14.769-1.575-1.772-4.135-2.166-9.452-2.363h-1.575l-0.197-0.197-413.538-46.671c-3.938-0.394-5.908-0.394-6.695-0.197z"></path>
<path fill="#262626" d="M1035.815 538.585l-35.84 47.852c0.197-2.757-0.197-5.317-1.575-6.695-2.166-2.363-4.923-3.348-8.271-3.742l47.262-62.228c0.394-3.545 0.788-7.089 1.182-10.831l-55.926 73.452-0.985 1.575 1.575 2.954h1.575c5.317 0.197 7.877 0.591 9.452 2.363 0.985 1.969-1.182 12.012-2.954 14.572l-2.363 3.545 5.908 0.985 41.157-54.942c-0.197-2.757-0.197-5.908-0.197-8.862z"></path>
<path fill="#262626" d="M562.215 534.055l-3.348-4.332 159.114-163.446c1.378-1.378 2.757-1.378 3.545-1.575h0.394l8.271 0.394 2.56 5.711-3.348-0.197-157.538 162.658-1.182-1.182 0.197 1.969-0.591 0.197h-0.591c-5.711-0.788-7.089-0.197-7.483-0.197zM568.123 528.345c0.197 0 0.394 0 0.788 0l153.009-158.129c0 0 0 0 0 0l-153.797 158.129z"></path>
<path fill="#262626" d="M953.108 966.302c-2.363 0-4.726-0.197-7.483-0.394l-2.56-0.197-0.197-2.56c-2.166-123.668-8.665-246.942-19.102-366.671l-0.394-3.348 32.886 3.938 0.197 2.166c11.618 121.502 17.526 239.262 17.92 360.369v1.772l-1.575 0.788c-6.105 2.757-12.012 4.135-19.692 4.135zM948.578 960.591c8.665 0.591 14.375-0.197 20.677-2.757-0.591-119.532-6.302-235.914-17.723-355.84l-21.662-2.56c10.043 117.957 16.542 239.458 18.708 361.157z"></path>
<path fill="#262626" d="M947.003 966.302l-2.363-0.394-1.575-0.197v-0.197l-116.578-25.797v-2.166c-0.985-38.203-2.363-76.997-4.332-115.594-3.938-76.406-9.649-154.782-17.92-239.458l-0.394-3.545 125.243 14.769 0.197 2.166c10.437 119.138 16.935 241.822 19.102 364.505l2.56 0.197-3.938 5.711zM832 935.188l110.868 24.418c-2.166-121.698-8.468-243.003-18.905-360.96l-113.822-13.391c8.074 83.495 13.785 160.886 17.723 236.308 1.772 38.006 3.348 76.209 4.135 113.625z"></path>
<path fill="#262626" d="M622.671 515.151l119.532-125.637 294.203 18.708c0.197-1.772 0.394-3.742 0.591-5.514l-296.96-18.905-128.985 135.877 354.855 38.4 72.074-92.751c0-3.151 0-6.302 0.197-9.255l-74.634 96.295-340.874-37.218z"></path>
<path fill="#262626" d="M1030.892 959.015c-15.163 7.089-26.388 16.542-36.431 25.797-1.182 0.985-2.363 2.166-3.545 3.545-11.422 11.225-25.797 25.009-72.665 13.588-62.228-15.163-126.031-30.72-194.954-47.262-13.194-3.151-13.785-5.908-13.785-5.908s0.788-4.726 26.191-11.028c27.372-6.892 59.077-15.557 88.615-29.342 0 8.271 0 16.542-0.197 24.812 0.197 2.757 0.985 4.726 2.757 6.105v0.788l1.772 0.394 1.378 0.788 0.394-0.394 116.775 25.797 0.197-0.197c10.831 0.788 17.92-0.394 25.797-3.938l1.575-0.788v-1.772c0-12.603-0.197-25.403-0.394-38.006 1.378 0.197 2.954 0.394 4.332 0.591 15.36 2.166 30.917 5.317 45.883 8.271 2.166 0.394 4.332 0.788 6.498 1.378 0.591-1.969 1.575-3.545 2.954-5.12-2.757-0.591-5.711-1.182-8.468-1.772-15.163-2.954-30.72-6.105-46.277-8.271-2.56-0.394-5.12-0.788-7.68-1.182l-3.348-0.591v3.348c0.197 12.997 0.394 26.191 0.394 39.385-6.695 2.757-12.997 3.348-23.040 2.56h-0.394l-113.625-25.206v-4.332l-2.56 2.363c0-0.197 0-0.394 0-0.591 0.197-9.452 0.197-19.298 0.197-29.145v-4.529l-3.938 1.969c-30.129 14.769-63.212 23.828-91.569 30.917-27.372 6.892-30.72 12.603-30.326 16.738 0.394 4.726 5.908 8.074 17.92 11.028 68.923 16.542 132.726 32.098 194.954 47.262 12.8 3.151 23.434 4.529 32.295 4.529 25.6 0 36.825-10.831 45.686-19.495 1.182-1.182 2.363-2.363 3.545-3.348 9.452-8.468 19.692-17.329 33.28-24.025 0-1.772-0.197-3.742-0.197-5.711z"></path>
<path fill="#232323" d="M855.631 283.963c-1.575-1.575-3.938-1.575-5.514 0s-1.575 3.938 0 5.514l17.723 18.511-19.692 16.738c-0.788 0.591-1.378 1.575-1.378 2.757l-0.591 13.785c-0.197 2.166 1.575 3.938 3.742 4.135s3.938-1.575 4.135-3.742l0.591-12.012 21.465-18.511c0.788-0.591 1.378-1.575 1.378-2.757s-0.394-2.166-0.985-2.954l-20.874-21.465z"></path>
<path fill="#232323" d="M852.874 307.2c0-1.182-0.394-2.166-0.985-2.954l-20.48-21.465c-1.575-1.575-3.938-1.575-5.514 0s-1.575 3.938 0 5.514l17.723 18.511-19.692 16.738c-0.788 0.591-1.378 1.575-1.378 2.56 0 0.197-0.197 2.954-0.394 7.68-6.695-11.225-29.342-51.988-29.538-52.382-0.591-1.182-1.772-1.969-3.348-2.166-1.378 0-2.757 0.591-3.545 1.772l-36.431 53.563c-1.378 1.772-0.788 4.332 0.985 5.514 0.788 0.591 1.378 0.591 2.166 0.591 1.378 0 2.757-0.591 3.545-1.772l32.886-48.049c7.68 13.982 26.978 48.64 27.766 49.822 1.378 2.56 4.726 3.545 7.68 2.757 3.151-0.788 5.317-3.348 5.317-6.695 0.394-3.545 0.591-6.498 0.591-8.271l21.465-18.511c0.591-0.591 1.182-1.575 1.182-2.757z"></path>
<path fill="#232323" d="M914.314 285.538c-17.329-0.788-32.098 12.406-32.886 29.735s12.406 32.098 29.735 32.886c17.329 0.788 32.098-12.406 32.886-29.735s-12.406-31.902-29.735-32.886zM911.557 340.48c-12.997-0.591-22.843-11.815-22.252-24.615 0.591-12.997 11.815-22.843 24.615-22.252 12.997 0.591 22.843 11.815 22.252 24.615-0.788 12.8-11.815 22.843-24.615 22.252z"></path>
<path fill="#232323" d="M1034.24 345.797c0-1.378 0-2.757 0-3.938-4.135 2.757-9.058 4.332-14.178 4.135-12.997-0.591-22.843-11.815-22.252-24.615 0.591-12.997 11.815-22.843 24.615-22.252 4.529 0.197 8.468 1.772 11.815 3.938-0.197-2.363-0.197-4.529 0.197-6.892 0-0.788 0-1.575 0-2.363-3.545-1.772-7.483-2.757-11.618-2.954-17.329-0.788-32.098 12.406-32.886 29.735s12.406 32.098 29.735 32.886c5.12 0.197 10.043-0.788 14.572-2.757-0.197-1.575 0-3.151 0-4.923z"></path>
<path fill="#232323" d="M977.723 288.689c-2.166-0.197-3.938 1.575-4.135 3.742l-2.757 54.942c-0.197 2.166 1.575 3.938 3.742 4.135s3.938-1.575 4.135-3.742l2.757-54.745c0.197-2.166-1.575-4.135-3.742-4.332z"></path>
<path fill="#232323" d="M958.818 287.705c-2.166-0.197-3.938 1.575-4.135 3.742l-2.757 54.942c-0.197 2.166 1.575 3.938 3.742 4.135s3.938-1.575 4.135-3.742l2.757-54.745c0.197-2.166-1.378-4.135-3.742-4.332z"></path>
</svg>
