<?xml version="1.0" encoding="utf-8"?>
<!-- Generated by IcoMoon.io -->
<!DOCTYPE svg PUBLIC "-//W3C//DTD SVG 1.1//EN" "http://www.w3.org/Graphics/SVG/1.1/DTD/svg11.dtd">
<svg version="1.1" xmlns="http://www.w3.org/2000/svg" xmlns:xlink="http://www.w3.org/1999/xlink" width="709" height="1024" viewBox="0 0 709 1024">
<g id="icomoon-ignore">
</g>
<path fill="#c1c1c1" d="M523.815 27.569h-358.4c-70.892 0-122.092 55.138-122.092 141.785v681.354c0 82.708 47.262 141.785 122.092 141.785h362.338c78.769 0 141.785-63.015 141.785-141.785v-681.354c-3.938-78.769-66.954-141.785-145.723-141.785zM606.523 854.646c0 47.262-35.446 82.708-82.708 82.708h-358.4c-55.138 0-63.015-59.077-63.015-82.708v-78.769h508.062v78.769h-3.938zM606.523 716.8h-504.123v-421.415h508.062v421.415h-3.938zM606.523 236.308h-504.123v-66.954c0-23.631 7.877-82.708 63.015-82.708h362.338c47.262 0 82.708 35.446 82.708 82.708v66.954h-3.938zM354.462 905.846c11.815 0 27.569-3.938 35.446-15.754 7.877-7.877 15.754-23.631 15.754-35.446s-3.938-27.569-15.754-35.446c-19.692-19.692-51.2-19.692-70.892 0-7.877 7.877-15.754 23.631-15.754 35.446s3.938 27.569 15.754 35.446c7.877 7.877 23.631 15.754 35.446 15.754zM389.908 133.908h-70.892c-15.754 0-31.508 11.815-31.508 31.508s11.815 31.508 31.508 31.508h70.892c15.754 0 31.508-11.815 31.508-31.508s-15.754-31.508-31.508-31.508z"></path>
</svg>
