<?xml version="1.0" encoding="utf-8"?>
<!-- Generated by IcoMoon.io -->
<!DOCTYPE svg PUBLIC "-//W3C//DTD SVG 1.1//EN" "http://www.w3.org/Graphics/SVG/1.1/DTD/svg11.dtd">
<svg version="1.1" xmlns="http://www.w3.org/2000/svg" xmlns:xlink="http://www.w3.org/1999/xlink" width="1078" height="1024" viewBox="0 0 1078 1024">
<g id="icomoon-ignore">
</g>
<path fill="#a3a3a3" d="M288.337 542.989h-32.337v-172.463c0-78.147 63.326-141.474 141.474-141.474v30.989c-60.632 0-109.137 49.853-109.137 109.137v173.811z"></path>
<path fill="#a3a3a3" d="M821.895 542.989h-30.989v-172.463c0-60.632-49.853-109.137-109.137-109.137v-32.337c76.8 0 140.126 63.326 140.126 141.474v172.463z"></path>
<path fill="#a3a3a3" d="M1025.347 1013.221h-141.474c-8.084 0-16.168-6.737-16.168-16.168v0c0-8.084 6.737-16.168 16.168-16.168h109.137c8.084 0 16.168-6.737 16.168-16.168v-216.926c0-8.084-6.737-16.168-16.168-16.168h-171.116c-8.084 0-16.168-6.737-16.168-16.168v0c0-8.084 6.737-16.168 16.168-16.168h203.453c8.084 0 16.168 6.737 16.168 16.168v282.947c-1.347 8.084-8.084 14.821-16.168 14.821z"></path>
<path fill="#a3a3a3" d="M194.021 1013.221h-141.474c-8.084 0-16.168-6.737-16.168-16.168v-282.947c0-8.084 6.737-16.168 16.168-16.168h203.453c8.084 0 16.168 6.737 16.168 16.168v0c0 8.084-6.737 16.168-16.168 16.168h-172.463c-8.084 0-16.168 6.737-16.168 16.168v219.621c0 8.084 6.737 16.168 16.168 16.168h109.137c8.084 0 16.168 6.737 16.168 16.168v0c1.347 8.084-6.737 14.821-14.821 14.821z"></path>
<path fill="#a3a3a3" d="M805.726 1013.221h-533.558c-8.084 0-16.168-6.737-16.168-16.168v-328.758c0-35.032 28.295-63.326 63.326-63.326h439.242c35.032 0 63.326 28.295 63.326 63.326v328.758c0 9.432-8.084 16.168-16.168 16.168zM288.337 982.232h501.221v-313.937c0-17.516-13.474-30.989-30.989-30.989h-439.242c-17.516 0-30.989 13.474-30.989 30.989v313.937z"></path>
<path fill="#a3a3a3" d="M819.2 1005.137l-28.295-13.474 45.811-90.274v-74.105h-30.989v-32.337h47.158c8.084 0 16.168 6.737 16.168 16.168v94.316c0 2.695 0 5.389-1.347 6.737l-48.505 92.968z"></path>
<path fill="#a3a3a3" d="M258.695 1005.137l-47.158-94.316c-1.347-2.695-1.347-4.042-1.347-6.737v-94.316c0-8.084 6.737-16.168 16.168-16.168h47.158v30.989h-30.989v74.105l45.811 90.274-29.642 16.168z"></path>
<path fill="#a3a3a3" d="M538.947 873.095c-35.032 0-63.326-28.295-63.326-63.326s28.295-63.326 63.326-63.326c35.032 0 63.326 28.295 63.326 63.326s-28.295 63.326-63.326 63.326zM538.947 778.779c-17.516 0-30.989 13.474-30.989 30.989s13.474 30.989 30.989 30.989c17.516 0 30.989-13.474 30.989-30.989s-13.474-30.989-30.989-30.989z"></path>
<path fill="#a3a3a3" d="M210.189 715.453h-30.989v-30.989c0-125.305 70.063-152.253 144.168-180.547 26.947-10.779 55.242-21.558 83.537-37.726l16.168 26.947c-30.989 17.516-60.632 29.642-88.926 39.074-74.105 28.295-123.958 47.158-123.958 150.905v32.337z"></path>
<path fill="#a3a3a3" d="M900.042 715.453h-30.989v-47.158c0-98.358-43.116-111.832-113.179-134.737-29.642-9.432-63.326-20.211-98.358-39.074l16.168-26.947c30.989 17.516 61.979 26.947 91.621 36.379 70.063 21.558 136.084 43.116 136.084 164.379v47.158z"></path>
<path fill="#a3a3a3" d="M590.147 555.116l-40.421-20.211c-6.737-2.695-13.474-2.695-20.211 0l-40.421 20.211c-9.432 4.042-18.863 2.695-26.947-4.042l-55.242-55.242c-8.084-8.084-9.432-20.211-2.695-28.295l25.6-37.726c5.389-8.084 13.474-10.779 22.905-9.432l83.537 13.474c2.695 0 5.389 0 8.084 0l83.537-13.474c9.432-1.347 17.516 2.695 22.905 9.432l25.6 37.726c5.389 9.432 5.389 21.558-2.695 28.295l-55.242 55.242c-9.432 6.737-20.211 8.084-28.295 4.042zM549.726 499.874l35.032 17.516c9.432 4.042 18.863 2.695 26.947-4.042l20.211-20.211c8.084-8.084 9.432-20.211 2.695-28.295v0c-5.389-8.084-13.474-10.779-22.905-9.432l-68.716 10.779c-2.695 0-5.389 0-8.084 0l-68.716-10.779c-9.432-1.347-17.516 2.695-22.905 9.432v0c-5.389 9.432-5.389 21.558 2.695 28.295l20.211 20.211c6.737 6.737 17.516 8.084 26.947 4.042l35.032-17.516c6.737-4.042 14.821-4.042 21.558 0z"></path>
<path fill="#a3a3a3" d="M602.274 370.526h30.989v63.326h-30.989v-63.326z"></path>
<path fill="#a3a3a3" d="M444.632 370.526h30.989v63.326h-30.989v-63.326z"></path>
<path fill="#a3a3a3" d="M538.947 402.863c-2.695 0-51.2 0-84.884-17.516l-1.347-1.347c-2.695-1.347-52.547-36.379-70.063-152.253v-66.021h30.989v63.326c13.474 92.968 49.853 125.305 55.242 129.347 28.295 13.474 70.063 13.474 70.063 13.474s43.116 0 70.063-13.474c5.389-4.042 41.768-36.379 55.242-129.347v-61.979h30.989v64.674c-16.168 115.874-67.368 150.905-70.063 152.253l-1.347 1.347c-33.684 16.168-82.189 17.516-84.884 17.516z"></path>
<path fill="#a3a3a3" d="M695.242 167.074h-30.989c0-86.232-39.074-125.305-125.305-125.305s-125.305 39.074-125.305 125.305h-30.989c0-103.747 52.547-156.295 156.295-156.295s156.295 52.547 156.295 156.295z"></path>
<path fill="#a3a3a3" d="M618.442 215.579l-157.642-63.326-56.589 28.295-13.474-28.295 68.716-33.684 157.642 61.979 56.589-28.295 13.474 28.295z"></path>
</svg>
