<?xml version="1.0" encoding="utf-8"?>
<!-- Generated by IcoMoon.io -->
<!DOCTYPE svg PUBLIC "-//W3C//DTD SVG 1.1//EN" "http://www.w3.org/Graphics/SVG/1.1/DTD/svg11.dtd">
<svg version="1.1" xmlns="http://www.w3.org/2000/svg" xmlns:xlink="http://www.w3.org/1999/xlink" width="1615" height="1024" viewBox="0 0 1615 1024">
<g id="icomoon-ignore">
</g>
<path fill="#000" d="M1454.080 488.632l77.982-428.242c0.525-2.888 0.525-6.039 0-8.927 0.788-9.19-1.838-18.117-7.877-25.469-6.564-7.877-16.279-12.341-26.519-12.341l-1076.775-1.313c0 0 0 0 0 0-10.24 0-19.955 4.464-26.519 12.341-6.039 7.089-8.665 16.016-7.877 25.206-0.525 2.888-0.788 6.039-0.263 8.927l76.669 428.505c0 0 0 0 0 0l3.676 21.53-421.941 111.065c-6.302 1.575-10.24 8.139-8.402 14.441l90.322 343.696c1.313 4.726 5.251 8.139 9.715 8.665 1.575 0.263 3.151 0 4.726-0.263l513.050-134.695c3.151-0.788 5.776-2.888 7.352-5.514s2.101-6.039 1.313-8.927l-66.691-252.849 234.207 0.263-8.139 75.356c-2.101 18.642 3.413 36.496 14.966 49.362 9.19 10.24 21.268 16.016 34.133 16.016l205.063 0.525c0 0 0 0 0 0 12.866 0 24.944-5.776 34.133-16.016 11.553-12.866 17.067-30.983 15.229-49.625l-8.139-75.356 295.647 0.525c0 0 0 0 0 0 13.391 0 24.944-9.977 27.569-23.631l13.391-73.255zM1101.982 702.359c-7.089 7.877-16.016 12.078-25.469 12.078 0 0 0 0 0 0l-205.063-0.525c-9.452 0-18.379-4.201-25.469-12.078-9.19-10.24-13.653-25.206-12.078-40.172l7.877-74.831 264.402 0.788 7.877 74.568c1.838 14.966-2.888 29.932-12.078 40.172zM574.49 584.468l65.116 247.598-5.514 1.575-65.378-248.911 5.776-0.263zM563.2 584.468l65.641 250.224-215.040 56.451-84.808-322.954 141.785-37.284 5.251 29.67c2.363 13.653 13.916 23.631 27.569 23.631l59.602 0.263zM382.556 899.545l-5.514 1.575-2.101-8.139c0 0 0 0 0 0 1.313-0.263 2.101-1.575 2.363-2.888l2.626-0.788 2.626 10.24zM266.765 930.002l-109.752 28.882-84.808-322.954 215.040-56.451 84.808 322.954-105.288 27.569zM67.479 637.243l84.808 322.954-5.514 1.575-84.808-322.954 5.514-1.575zM318.49 571.077l5.514-1.575 2.101 8.139c0 0-0.263 0-0.263 0-1.313 0.263-2.101 1.575-2.363 3.151l-2.363 0.525-2.626-10.24zM331.093 597.333c0 0 0.263 0 0.263 0l1.575 5.514c0 0-0.263 0-0.263 0-1.313 0.263-2.101 1.575-2.363 3.151l-2.363 0.525-2.626-9.977 2.363-0.525c0.788 1.050 2.101 1.838 3.413 1.313zM336.082 615.45c0 0-0.263 0-0.263 0-1.313 0.263-2.101 1.575-2.363 3.151l-2.363 0.525-2.626-9.977 2.363-0.525c0.788 1.050 2.101 1.838 3.676 1.575 0 0 0.263 0 0.263 0l1.313 5.251zM339.495 627.791c0 0-0.263 0-0.263 0-1.313 0.263-2.101 1.575-2.363 3.151l-2.363 0.525-2.626-9.977 2.363-0.525c0.788 1.050 2.101 1.838 3.676 1.575 0 0 0.263 0 0.263 0l1.313 5.251zM342.646 640.394c0 0-0.263 0-0.263 0-1.313 0.263-2.101 1.575-2.363 3.151l-2.363 0.525-2.626-9.977 2.363-0.525c0.788 1.050 2.101 1.838 3.676 1.575 0 0 0.263 0 0.263 0l1.313 5.251zM346.059 652.734c0 0-0.263 0-0.263 0-1.313 0.263-2.101 1.575-2.363 2.888l-2.363 0.525-2.626-9.977 2.363-0.525c0.788 1.050 2.101 1.838 3.676 1.575 0 0 0.263 0 0.263 0l1.313 5.514zM349.21 665.337c0 0-0.263 0-0.263 0-1.313 0.263-2.101 1.575-2.363 3.151l-2.363 0.525-2.626-9.977 2.363-0.525c0.788 1.050 2.101 1.838 3.676 1.575 0 0 0.263 0 0.263 0l1.313 5.251zM352.624 677.678c-1.313 0.525-1.838 1.575-2.101 2.888l-2.888 0.788-2.626-9.977 2.363-0.525c0.788 1.050 2.101 1.838 3.676 1.575 0 0 0.263 0 0.263 0l1.313 5.251zM398.572 852.546c-1.313 0.525-1.838 1.575-2.101 2.888l-2.888 0.788-2.626-9.977 2.888-0.788c0.788 1.050 1.838 1.575 3.151 1.575l1.575 5.514zM366.539 860.948c0 0 0 0 0 0l-1.575-5.514c0 0 0 0 0 0 1.313-0.263 2.101-1.575 2.363-3.151l2.626-0.788 2.626 9.977-2.626 0.788c-0.788-1.050-1.838-1.838-3.413-1.313zM361.813 842.831c0 0 0 0 0 0 1.575-0.263 2.363-1.575 2.363-3.151l2.626-0.788 2.626 9.977-2.626 0.788c-0.788-1.050-2.101-1.838-3.676-1.575 0 0 0 0 0 0l-1.313-5.251zM358.4 830.49c0 0 0 0 0 0 1.575-0.525 2.363-1.575 2.363-3.151l2.626-0.788 2.626 9.977-2.626 0.788c-0.788-1.050-2.101-1.838-3.676-1.575 0 0 0 0 0 0l-1.313-5.251zM355.249 817.887c0 0 0 0 0 0 1.575-0.525 2.363-1.575 2.363-3.151l2.626-0.788 2.626 9.977-2.626 0.788c-0.788-1.050-2.101-1.838-3.676-1.575 0 0 0 0 0 0l-1.313-5.251zM351.836 805.547c0 0 0.263 0 0 0 1.575-0.525 2.363-1.575 2.363-3.151l2.626-0.788 2.626 9.977-2.626 0.788c-0.788-1.050-2.101-1.838-3.676-1.575 0 0 0 0 0 0l-1.313-5.251zM348.685 792.944c0 0 0 0 0 0 1.575-0.263 2.363-1.575 2.363-3.151l2.626-0.788 2.626 9.977-2.626 0.788c-0.788-1.050-2.101-1.838-3.676-1.575 0 0 0 0 0 0l-1.313-5.251zM345.272 780.341c0 0 0.263 0 0 0 1.575-0.525 2.363-1.575 2.363-3.151l2.626-0.788 2.626 9.977-2.626 0.788c-0.788-1.050-2.101-1.838-3.676-1.575 0 0 0 0 0 0l-1.313-5.251zM342.121 768c0 0 0 0 0 0 1.575-0.263 2.363-1.575 2.363-3.151l2.626-0.788 2.626 9.977-2.626 0.788c-0.788-1.050-2.101-1.838-3.676-1.575 0 0 0 0 0 0l-1.313-5.251zM338.708 755.397c0 0 0.263 0 0 0 1.575-0.525 2.363-1.575 2.363-3.151l2.626-0.788 2.626 9.977-2.626 0.788c-0.788-1.050-2.101-1.838-3.676-1.575 0 0 0 0 0 0l-1.313-5.251zM335.557 743.056c0 0 0 0 0 0 1.575-0.525 2.363-1.575 2.363-3.151l2.626-0.788 2.626 9.977-2.626 0.788c-0.788-1.050-2.101-1.838-3.676-1.575 0 0 0 0 0 0l-1.313-5.251zM332.144 730.453c0 0 0.263 0 0 0 1.575-0.525 2.363-1.575 2.363-3.151l2.626-0.788 2.626 9.977-2.626 0.788c-0.788-1.050-2.101-1.838-3.676-1.575 0 0 0 0 0 0l-1.313-5.251zM328.993 718.113c0 0 0 0 0 0 1.575-0.263 2.363-1.575 2.363-3.151l2.626-0.788 2.626 9.977-2.626 0.788c-0.788-1.050-2.101-1.838-3.676-1.575 0 0 0 0 0 0l-1.313-5.251zM325.579 705.51c0 0 0.263 0 0 0 1.575-0.525 2.363-1.575 2.363-3.151l2.626-0.788 2.626 9.977-2.626 0.788c-0.788-1.050-2.101-1.838-3.676-1.575 0 0 0 0 0 0l-1.313-5.251zM322.429 693.169c0 0 0 0 0 0 1.575-0.263 2.363-1.575 2.363-3.151l2.626-0.788 2.626 9.977-2.626 0.788c-0.788-1.050-2.101-1.838-3.676-1.575 0 0 0 0 0 0l-1.313-5.251zM319.015 680.566c1.050-0.525 1.838-1.575 1.838-2.888l3.151-0.788 2.626 9.977-2.626 0.788c-0.788-1.050-2.101-1.838-3.676-1.575 0 0 0 0 0 0l-1.313-5.514zM302.736 618.076c1.050-0.525 1.575-1.575 1.838-2.888l3.151-0.788 2.626 9.977-3.151 0.788c-0.788-1.050-1.838-1.575-2.888-1.575l-1.575-5.514zM371.003 835.479l-2.626-9.977 11.028-2.888 2.626 9.977-11.028 2.888zM382.556 834.954l2.626 9.977-11.028 2.888-2.626-9.977 5.776-1.575 5.251-1.313zM367.59 822.876l-2.626-9.977 11.028-2.888 2.626 9.977-11.028 2.888zM364.439 810.535l-2.626-9.977 11.028-2.888 2.626 9.977-11.028 2.888zM366.802 796.357v0l-5.776 1.575-2.626-9.977 5.776-1.575 5.251-1.313 2.626 9.977-5.251 1.313zM363.651 784.016l-5.776 1.575-2.626-9.977 11.028-2.888 2.626 9.977-5.251 1.313zM360.238 771.413v0l-5.776 1.575-2.626-9.977 5.776-1.575 5.251-1.313 2.626 9.977-5.251 1.313zM357.087 759.073v0l-5.776 1.575-2.626-9.977 5.776-1.575 5.251-1.313 2.626 9.977-5.251 1.313zM348.16 748.045l-2.626-9.977 5.776-1.575 5.251-1.313 2.626 9.977-11.028 2.888zM344.747 735.442l-2.626-9.977 5.776-1.575 5.251-1.313 2.626 9.977-11.028 2.888zM341.596 723.102l-2.626-9.977 5.776-1.575 5.251-1.313 2.626 9.977-11.028 2.888zM338.183 710.498l-2.626-9.977 11.028-2.888 2.626 9.977-11.028 2.888zM335.032 698.158l-2.626-9.977 11.028-2.888 2.626 9.977-11.028 2.888zM331.618 685.555l-2.626-9.977 11.028-2.888 2.626 9.977-11.028 2.888zM333.456 671.902l-4.989 1.313-2.626-9.977 11.028-2.888 2.626 9.977-6.039 1.575zM325.054 660.611l-2.626-9.977 4.989-1.313 6.039-1.575 2.626 9.977-11.028 2.888zM321.904 648.271l-2.626-9.977 11.028-2.888 2.626 9.977-11.028 2.888zM318.49 635.668l-2.626-9.977 4.989-1.313 6.039-1.575 2.626 9.977-11.028 2.888zM315.339 623.327l-2.626-9.977 4.989-1.313 6.039-1.575 2.626 9.977-11.028 2.888zM305.887 630.679c1.050-0.525 1.575-1.575 1.838-2.888l3.151-0.788 2.626 9.977-3.151 0.788c-0.788-1.050-1.838-1.575-2.888-1.575l-1.575-5.514zM309.301 643.019c1.050-0.525 1.575-1.575 1.838-2.888l3.151-0.788 2.626 9.977-3.151 0.788c-0.788-1.050-1.838-1.575-2.888-1.575l-1.575-5.514zM312.451 655.623c1.050-0.525 1.838-1.575 1.838-2.888l3.151-0.788 2.626 9.977-3.151 0.788c-0.788-1.050-1.838-1.575-2.888-1.575l-1.575-5.514zM315.865 667.963c1.050-0.525 1.838-1.575 1.838-2.888l3.151-0.788 2.626 9.977-3.151 0.788c-0.788-1.050-1.838-1.575-2.888-1.575l-1.575-5.514zM374.942 850.445l5.776-1.575 5.251-1.313 2.626 9.977-5.251 1.313-5.776 1.575-2.626-9.977zM395.159 839.943c-1.313 0.525-1.838 1.575-2.101 2.888l-2.888 0.788-2.626-9.977 2.888-0.788c0.788 1.050 1.838 1.575 3.151 1.575l1.575 5.514zM392.008 827.602c-1.313 0.525-1.838 1.575-2.101 2.888l-2.888 0.788-2.626-9.977 2.888-0.788c0.788 1.050 1.838 1.575 3.151 1.575l1.575 5.514zM388.595 814.999c-1.313 0.525-1.838 1.575-2.101 2.888l-2.888 0.788-2.626-9.977 2.888-0.788c0.788 1.050 1.838 1.575 3.151 1.575l1.575 5.514zM385.444 802.658c-1.313 0.525-1.838 1.575-2.101 2.888l-2.888 0.788-2.626-9.977 2.888-0.788c0.788 1.050 1.838 1.575 3.151 1.575l1.575 5.514zM382.031 790.055c-1.313 0.525-1.838 1.575-2.101 2.888l-2.888 0.788-2.626-9.977 2.888-0.788c0.788 1.050 1.838 1.575 3.151 1.575l1.575 5.514zM378.88 777.715c-1.313 0.525-1.838 1.575-2.101 2.888l-2.888 0.788-2.626-9.977 2.888-0.788c0.788 1.050 1.838 1.575 3.151 1.575l1.575 5.514zM375.467 765.112c-1.313 0.525-1.838 1.575-2.101 2.888l-2.888 0.788-2.626-9.977 2.888-0.788c0.788 1.050 1.838 1.575 3.151 1.575l1.575 5.514zM372.316 752.771c-1.313 0.525-1.838 1.575-2.101 2.888l-2.888 0.788-2.626-9.977 2.888-0.788c0.788 1.050 1.838 1.575 3.151 1.575l1.575 5.514zM368.903 740.168c-1.313 0.525-1.838 1.575-2.101 2.888l-2.888 0.788-2.626-9.977 2.888-0.788c0.788 1.050 1.838 1.575 3.151 1.575l1.575 5.514zM365.752 727.828c-1.313 0.525-1.838 1.575-2.101 2.888l-2.888 0.788-2.626-9.977 2.888-0.788c0.788 1.050 1.838 1.575 3.151 1.575l1.575 5.514zM362.338 715.225c-1.313 0.525-1.838 1.575-2.101 2.888l-2.888 0.788-2.626-9.977 2.888-0.788c0.788 1.050 1.838 1.575 3.151 1.575l1.575 5.514zM359.188 702.622c-1.313 0.525-1.838 1.575-2.101 2.888l-2.888 0.788-2.626-9.977 2.888-0.788c0.788 1.050 1.838 1.575 3.151 1.575l1.575 5.514zM355.774 690.281c-1.313 0.525-1.838 1.575-2.101 2.888l-2.888 0.788-2.626-9.977 2.888-0.788c0.788 1.050 1.838 1.575 3.151 1.575l1.575 5.514zM322.954 607.836l-11.028 2.888-2.626-9.977 11.028-2.888 2.626 9.977zM307.2 612.037l-3.151 0.788c-0.788-1.050-1.838-1.575-2.888-1.575l-1.575-5.776c1.050-0.525 1.575-1.575 1.838-2.888l3.151-0.788 2.626 10.24zM369.953 873.288c0 0-0.263 0 0 0l-1.575-5.514c0 0 0 0 0 0 1.313-0.263 2.101-1.575 2.363-2.888l2.626-0.788 2.626 9.977-2.626 0.788c-0.788-1.050-2.101-1.838-3.413-1.575zM378.092 862.786l5.776-1.575 5.251-1.313 2.626 9.977-5.251 1.313-5.776 1.575-2.626-9.977zM394.109 858.585l2.888-0.788c0.788 1.050 1.838 1.575 3.151 1.575l1.575 5.514c-1.313 0.525-1.838 1.575-2.101 2.888l-2.888 0.788-2.626-9.977zM324.267 583.417c0.788 1.050 2.101 1.838 3.676 1.575 0 0 0.263 0 0.263 0l1.575 5.514c0 0-0.263 0-0.263 0-1.313 0.263-2.101 1.575-2.363 3.151l-2.363 0.525-2.626-9.977 2.101-0.788zM319.803 595.233l-6.039 1.575-4.989 1.313-2.626-9.977 11.028-2.888 2.626 9.977zM303.787 599.434l-3.151 0.788c-0.788-1.050-1.838-1.575-2.888-1.575l-1.575-5.776c1.050-0.525 1.575-1.575 1.838-2.888l3.151-0.788 2.626 10.24zM297.485 587.881c-0.788-1.050-1.838-1.575-2.888-1.575l-2.101-8.402 5.514-1.575 2.626 10.503-3.151 1.050zM376.779 887.204c-0.788-1.050-2.101-1.838-3.676-1.575 0 0 0 0 0 0l-1.575-5.514c0 0 0 0 0 0 1.313-0.263 2.101-1.575 2.363-2.888l2.626-0.788 2.626 9.977-2.363 0.788zM381.506 875.389l5.776-1.575 5.251-1.313 2.626 9.977-11.028 2.888-2.626-9.977zM397.259 871.188l2.888-0.788c0.788 1.050 1.838 1.575 3.151 1.575l1.575 5.514c-1.313 0.525-1.838 1.575-2.101 2.888l-2.888 0.788-2.626-9.977zM403.561 883.003c0.788 1.050 1.838 1.575 3.151 1.575l2.101 8.139-5.514 1.575-2.626-10.503 2.888-0.788zM1517.883 48.312c1.050 1.313 1.575 2.626 2.101 3.938l-74.306 417.477c-0.525 2.101-2.363 3.676-4.464 3.676l-964.923-1.313c-2.101 0-3.938-1.575-4.464-3.676l-73.255-417.739c0 0 0 0 0 0 0.525-1.313 1.050-2.626 2.101-3.938 2.101-2.626 5.251-4.201 8.665-4.201v0l1099.618 1.575c3.413 0 6.827 1.575 8.927 4.201zM420.89 24.156v0l1076.775 1.575c6.564 0 12.603 2.888 16.804 7.614-1.838-0.525-3.676-0.788-5.514-0.788l-1099.618-1.575c-1.838 0-3.676 0.263-5.251 0.525 4.201-4.726 10.24-7.352 16.804-7.352zM657.461 838.367c0.525 1.838 0.263 3.676-0.788 5.251s-2.363 2.626-4.201 3.151l-513.050 134.695c-3.676 1.050-7.352-1.313-8.402-4.989l-90.059-343.434c-1.050-3.676 1.313-7.352 4.989-8.402l421.941-110.802 2.101 12.341-144.41 38.072c0 0 0 0 0 0l-10.503 2.626c-0.525 0.263-1.313 0.525-1.575 1.050s-0.525 1.313-0.263 1.838l3.413 12.866-6.039 1.575-4.989 1.313-3.413-12.866c-0.263-1.313-1.838-2.101-3.151-1.838l-10.503 2.626c0 0 0 0 0 0l-230.531 60.652c-0.525 0.263-1.313 0.525-1.575 1.050s-0.525 1.313-0.263 1.838l86.121 327.943c0.263 1.050 1.050 1.838 2.101 1.838 0.263 0 0.788 0 1.050 0l10.503-2.626c0 0 0 0 0 0l220.029-57.764c0 0 0 0 0 0l10.503-2.626c1.313-0.263 2.101-1.838 1.838-3.151l-3.413-12.866 5.776-1.575 5.251-1.313 3.413 12.866c0.263 0.525 0.525 1.313 1.050 1.575 0.263 0.263 0.525 0.263 0.788 0.263s0.788 0 1.050 0l240.771-63.278c0.525-0.263 1.313-0.525 1.575-1.050s0.525-1.313 0.263-1.838l-65.378-248.648h11.29l66.691 253.637zM1429.399 560.049c-1.575 8.139-8.139 13.916-15.754 13.916 0 0 0 0 0 0l-910.047-1.313c-7.877 0-14.441-5.776-16.016-13.916l-11.815-66.691 965.448 1.575-11.815 66.429zM1469.834 65.641l-1025.838-1.313c-1.838 0-3.413 0.788-4.464 2.101s-1.575 3.151-1.313 4.726l66.691 379.668c0.525 2.888 2.888 4.989 5.776 4.989l891.405 1.050c2.888 0 5.251-2.101 5.776-4.989l67.742-379.405c0.263-1.838-0.263-3.413-1.313-4.726s-2.888-2.101-4.464-2.101zM1397.366 445.046l-881.69-1.050-64.591-367.852 1011.659 1.313-65.378 367.59zM1268.185 763.799c0-6.039-4.989-11.29-11.29-11.29l-544.821-0.263c-6.302 0-11.29 4.989-11.29 11.29v6.827c0 0.263 0 0.525 0 0.788l-0.263 231.056c0 6.302 4.989 11.29 11.29 11.29l544.821 0.263c6.039 0 11.29-4.989 11.29-11.29l0.263-232.107c0-0.263 0-0.525 0-0.525v-6.039zM708.923 763.536c0-1.838 1.575-3.151 3.151-3.151l544.821 0.263c1.838 0 3.151 1.575 3.151 3.151v2.363h-551.122v-2.626zM1260.045 1002.207c0 1.838-1.313 3.151-3.151 3.151l-544.821-0.263c-1.838 0-3.151-1.575-3.151-3.151l0.263-227.643h551.385l-0.525 227.906zM712.862 800.033c0.525 0.525 1.050 0.788 1.575 0.788h30.983c1.313 0 2.363-1.050 2.363-2.363v-15.754c0-0.525-0.263-1.313-0.788-1.575-0.525-0.525-1.050-0.788-1.575-0.788h-30.983c-1.313 0-2.363 1.050-2.363 2.363v15.754c0.263 0.525 0.525 1.313 0.788 1.575zM717.063 785.067h25.994v11.028h-25.994v-11.028zM753.822 800.821h30.983c1.313 0 2.363-1.050 2.363-2.363v-15.754c0-0.525-0.263-1.313-0.788-1.575-0.525-0.525-1.050-0.788-1.575-0.788h-30.983c-0.525 0-1.313 0.263-1.575 0.788-0.525 0.525-0.788 1.050-0.788 1.575v15.754c0 1.313 1.050 2.363 2.363 2.363zM782.178 785.067v11.028h-25.994v-11.028h25.994zM791.106 800.033c0.525 0.525 1.050 0.788 1.575 0.788h30.983c1.313 0 2.363-1.050 2.363-2.363v-15.754c0-0.525-0.263-1.313-0.788-1.575-0.525-0.525-1.050-0.788-1.575-0.788h-30.983c-1.313 0-2.363 1.050-2.363 2.363v15.754c0.263 0.525 0.525 1.050 0.788 1.575zM795.307 785.067h25.994v11.028h-25.994v-11.028zM830.228 800.033c0.525 0.525 1.050 0.788 1.575 0.788h30.983c1.313 0 2.363-1.050 2.363-2.363v-15.754c0-0.525-0.263-1.313-0.788-1.575-0.525-0.525-1.050-0.788-1.575-0.788h-30.983c-1.313 0-2.363 1.050-2.363 2.363v15.754c0.263 0.525 0.525 1.050 0.788 1.575zM834.429 784.804h25.994v11.028h-26.256v-11.028zM869.612 799.77c0.525 0.525 1.050 0.788 1.575 0.788h30.983c0.525 0 1.313-0.263 1.575-0.788 0.525-0.525 0.788-1.050 0.788-1.575v-15.754c0-1.313-1.050-2.363-2.363-2.363h-30.983c-1.313 0-2.363 1.050-2.363 2.363v15.754c0 0.525 0.263 1.313 0.788 1.575zM873.551 784.804h25.994v11.028h-25.994v-11.028zM910.31 800.558h30.983c0.525 0 1.313-0.263 1.575-0.788 0.525-0.525 0.788-1.050 0.788-1.575v-15.754c0-1.313-1.050-2.363-2.363-2.363h-30.983c-0.525 0-1.313 0.263-1.575 0.788-0.525 0.525-0.788 1.050-0.788 1.575v15.754c0 1.313 1.050 2.363 2.363 2.363zM938.929 784.804v11.028h-25.994v-11.028h25.994zM947.856 799.77c0.525 0.525 1.050 0.788 1.575 0.788h30.983c1.313 0 2.363-1.050 2.363-2.363v-15.754c0-0.525-0.263-1.313-0.788-1.575-0.525-0.525-1.050-0.788-1.575-0.788h-30.983c-1.313 0-2.363 1.050-2.363 2.363v15.754c0 0.525 0.263 1.050 0.788 1.575zM951.795 784.804h25.994v11.028h-25.994v-11.028zM986.978 799.77c0.525 0.525 1.050 0.788 1.575 0.788h30.983c1.313 0 2.363-1.050 2.363-2.363v-15.754c0-0.788-0.263-1.313-0.788-1.575-0.525-0.525-1.050-0.788-1.575-0.788h-30.983c-1.313 0-2.363 1.050-2.363 2.363v15.754c0 0.525 0.263 1.050 0.788 1.575zM990.917 784.804h25.994v11.028h-26.256v-11.028zM1026.101 799.77c0.525 0.525 1.050 0.788 1.575 0.788h30.983c1.313 0 2.363-1.050 2.363-2.363v-15.754c0-0.525-0.263-1.313-0.788-1.575-0.525-0.525-1.050-0.788-1.575-0.788h-30.983c-0.525 0-1.313 0.263-1.575 0.788-0.525 0.525-0.788 1.050-0.788 1.575v15.754c0 0.525 0.263 1.050 0.788 1.575zM1056.295 784.542v11.028h-25.994v-11.028h25.994zM1066.798 800.295h30.983c1.313 0 2.363-1.050 2.363-2.363v-15.754c0-0.525-0.263-1.313-0.788-1.575-0.525-0.525-1.050-0.788-1.575-0.788h-30.983c-1.313 0-2.363 1.050-2.363 2.363v15.754c0 0.525 0.263 1.313 0.788 1.575 0.263 0.525 1.050 0.788 1.575 0.788zM1069.161 784.542h25.994v11.028h-25.994v-11.028zM1104.345 799.508c0.525 0.525 1.050 0.788 1.575 0.788h30.983c1.313 0 2.363-1.050 2.363-2.363v-15.754c0-0.525-0.263-1.313-0.788-1.575-0.525-0.525-1.050-0.788-1.575-0.788h-30.983c-1.313 0-2.363 1.050-2.363 2.363v15.754c0 0.525 0.263 1.313 0.788 1.575zM1134.539 784.542v11.028h-25.994v-11.028h25.994zM1145.042 800.295h30.983c1.313 0 2.363-1.050 2.363-2.363v-15.754c0-1.313-1.050-2.363-2.363-2.363h-30.983c-1.313 0-2.363 1.050-2.363 2.363v15.754c0 0.525 0.263 1.313 0.788 1.575 0.263 0.525 1.050 0.788 1.575 0.788zM1147.405 784.542h25.994v11.028h-26.256v-11.028zM1179.175 979.889h-30.983c-0.525 0-1.313 0.263-1.575 0.788-0.525 0.525-0.788 1.050-0.788 1.575v14.966c0 1.313 1.050 2.363 2.363 2.363h30.983c0.525 0 1.313-0.263 1.575-0.788 0.525-0.525 0.788-1.050 0.788-1.575v-14.966c0-1.313-1.050-2.363-2.363-2.363zM1150.556 994.855v-9.977h25.994v9.977h-25.994zM1219.61 965.711c0-1.313-1.050-2.363-2.363-2.363h-30.983c-1.313 0-2.363 1.050-2.363 2.363v14.966c0 0.263 0 0.525 0.263 0.788 0 0.263-0.263 0.525-0.263 0.788v14.966c0 0.525 0.263 1.313 0.788 1.575 0.525 0.525 1.050 0.788 1.575 0.788h30.983c1.313 0 2.363-1.050 2.363-2.363v-14.966c0-0.263 0-0.525-0.263-0.788 0-0.263 0.263-0.525 0.263-0.788v-14.966zM1188.628 968.074h25.994v10.24h-26.256v-10.24zM1214.622 994.593h-25.994v-9.977h25.994v9.977zM1254.531 979.889h-30.983c-0.525 0-1.313 0.263-1.575 0.788-0.525 0.525-0.788 1.050-0.788 1.575v14.966c0 1.313 1.050 2.363 2.363 2.363h30.983c0.525 0 1.313-0.263 1.575-0.788 0.525-0.525 0.788-1.050 0.788-1.575v-14.966c0-1.313-1.050-2.363-2.363-2.363zM1225.912 994.593v-9.977h25.994v9.977h-25.994zM1184.164 800.033h30.983c0.525 0 1.313-0.263 1.575-0.788 0.525-0.525 0.788-1.050 0.788-1.575v-15.754c0-1.313-1.050-2.363-2.363-2.363h-30.983c-0.525 0-1.313 0.263-1.575 0.788-0.525 0.525-0.788 1.050-0.788 1.575v15.754c0 1.313 1.050 2.363 2.363 2.363zM1212.784 784.279v11.028h-25.994v-11.028h25.994zM1223.286 800.033h30.983c1.313 0 2.363-1.050 2.363-2.363v-15.754c0-0.525-0.263-1.313-0.788-1.575-0.525-0.525-1.050-0.788-1.575-0.788h-30.983c-1.313 0-2.363 1.050-2.363 2.363v15.754c0 0.525 0.263 1.313 0.788 1.575 0.525 0.525 1.050 0.788 1.575 0.788zM1225.649 784.279h25.994v11.028h-25.994v-11.028zM713.124 840.205c0.525 0.525 1.050 0.788 1.575 0.788h30.983c1.313 0 2.363-1.050 2.363-2.363v-31.508c0-1.313-1.050-2.363-2.363-2.363h-30.983c-0.525 0-1.313 0.263-1.575 0.788-0.525 0.525-0.788 1.050-0.788 1.575v31.508c0 0.263 0.263 1.050 0.788 1.575zM743.056 809.223v26.519h-25.994v-26.782l25.994 0.263zM750.933 839.943c0.525 0.525 1.050 0.788 1.575 0.788h30.983c1.313 0 2.363-1.050 2.363-2.363v-31.508c0-0.525-0.263-1.313-0.788-1.575-0.525-0.525-1.050-0.788-1.575-0.788h-30.983c-1.313 0-2.363 1.050-2.363 2.363v31.508c0 0.525 0.263 1.313 0.788 1.575zM781.128 809.223v26.782h-25.994v-26.782h25.994zM788.743 839.943c0.525 0.525 1.050 0.788 1.575 0.788h30.983c1.313 0 2.363-1.050 2.363-2.363v-31.508c0-0.525-0.263-1.313-0.788-1.575-0.525-0.525-1.050-0.788-1.575-0.788h-30.983c-1.313 0-2.363 1.050-2.363 2.363v31.508c0 0.525 0.263 1.050 0.788 1.575zM818.937 809.223v26.782h-25.994v-26.519l25.994-0.263zM825.502 806.859v31.508c0 0.525 0.263 1.313 0.788 1.575 0.525 0.525 1.050 0.788 1.575 0.788h30.983c1.313 0 2.363-1.050 2.363-2.363v-31.508c0-0.525-0.263-1.313-0.788-1.575-0.525-0.525-1.050-0.788-1.575-0.788h-30.983c-1.313 0-2.363 1.050-2.363 2.363zM856.484 809.223v26.519h-25.994v-26.782l25.994 0.263zM863.048 806.597v31.508c0 1.313 1.050 2.363 2.363 2.363h30.983c0.525 0 1.313-0.263 1.575-0.788 0.525-0.525 0.788-1.050 0.788-1.575v-31.508c0-1.313-1.050-2.363-2.363-2.363h-30.983c-0.525 0-1.313 0.263-1.575 0.788-0.525 0.525-0.788 1.050-0.788 1.575zM894.031 808.96v26.782h-25.994v-26.782h25.994zM935.778 805.022c-0.525-0.525-1.050-0.788-1.575-0.788h-30.983c-0.525 0-1.313 0.263-1.575 0.788-0.525 0.525-0.788 1.050-0.788 1.575v31.508c0 0.525 0.263 1.313 0.788 1.575 0.525 0.525 1.050 0.788 1.575 0.788h30.983c1.313 0 2.363-1.050 2.363-2.363v-31.508c0-0.525-0.263-1.313-0.788-1.575zM905.584 835.742v-26.782h25.994v26.519l-25.994 0.263zM972.012 804.234h-30.983c-0.525 0-1.313 0.263-1.575 0.788-0.525 0.525-0.788 1.050-0.788 1.575v31.508c0 0.525 0.263 1.313 0.788 1.575 0.525 0.525 1.050 0.788 1.575 0.788h30.983c1.313 0 2.363-1.050 2.363-2.363v-31.508c0.263-1.313-1.050-2.363-2.363-2.363zM943.655 835.742v-26.782h25.994v26.519l-25.994 0.263zM1011.397 804.759c-0.525-0.525-1.050-0.788-1.575-0.788h-30.983c-1.313 0-2.363 1.050-2.363 2.363v31.508c0 1.313 1.050 2.363 2.363 2.363h30.983c0.525 0 1.313-0.263 1.575-0.788 0.525-0.525 0.788-1.050 0.788-1.575v-31.508c0-0.525-0.263-1.050-0.788-1.575zM981.202 835.742v-26.519h25.994v26.782l-25.994-0.263zM1047.368 803.971h-30.983c-0.525 0-1.313 0.263-1.575 0.788-0.525 0.525-0.788 1.050-0.788 1.575v31.508c0 0.525 0.263 1.313 0.788 1.575 0.525 0.525 1.050 0.788 1.575 0.788h30.983c1.313 0 2.363-1.050 2.363-2.363v-31.508c0.263-1.050-1.050-2.363-2.363-2.363zM1019.011 835.479v-26.782h25.994v26.519l-25.994 0.263zM1085.44 803.971h-30.983c-1.313 0-2.363 1.050-2.363 2.363v31.508c0 0.525 0.263 1.313 0.788 1.575 0.525 0.525 1.050 0.788 1.575 0.788h30.983c1.313 0 2.363-1.050 2.363-2.363v-31.508c0-1.313-1.050-2.363-2.363-2.363zM1056.821 835.479v-26.782h25.994v26.519l-25.994 0.263zM1124.037 804.759c-0.525-0.525-1.050-0.788-1.575-0.788h-30.983c-1.313 0-2.363 1.050-2.363 2.363v31.508c0 1.313 1.050 2.363 2.363 2.363h30.983c1.313 0 2.363-1.050 2.363-2.363v-31.508c0-0.525-0.263-1.313-0.788-1.575zM1093.842 835.479v-26.519h26.256v26.782l-26.256-0.263zM1161.058 804.759c-0.525-0.525-1.050-0.788-1.575-0.788h-30.983c-1.313 0-2.363 1.050-2.363 2.363v31.508c0 0.525 0.263 1.313 0.788 1.575 0.525 0.525 1.050 0.788 1.575 0.788h30.983c1.313 0 2.363-1.050 2.363-2.363v-31.508c-0.263-0.525-0.525-1.313-0.788-1.575zM1130.864 835.479v-26.782h25.994v26.519l-25.994 0.263zM1198.343 804.496c-0.525-0.525-1.050-0.788-1.575-0.788h-30.983c-1.313 0-2.363 1.050-2.363 2.363v31.508c0 0.525 0.263 1.313 0.788 1.575 0.525 0.525 1.050 0.788 1.575 0.788h30.983c1.313 0 2.363-1.050 2.363-2.363v-31.508c0-0.525-0.263-1.050-0.788-1.575zM1168.148 835.479v-26.782h25.994v26.782h-25.994zM1254.269 803.709h-49.887c-1.313 0-2.363 1.050-2.363 2.363v31.508c0 0.525 0.263 1.313 0.788 1.575 0.525 0.525 1.050 0.788 1.575 0.788h49.625c0.525 0 1.313-0.263 1.575-0.788 0.525-0.525 0.788-1.050 0.788-1.575v-31.508c0.263-1.050-0.788-2.363-2.101-2.363zM1207.007 835.216v-26.519h44.898v26.519h-44.898zM1218.035 844.669c-0.525-0.525-1.050-0.788-1.575-0.788h-30.983c-1.313 0-2.363 1.050-2.363 2.363v31.508c0 0.525 0.263 1.313 0.788 1.575 0.525 0.525 1.050 0.788 1.575 0.788h30.983c1.313 0 2.363-1.050 2.363-2.363v-31.508c0-0.525-0.263-1.313-0.788-1.575zM1188.103 875.389v-26.519h25.994v26.782l-25.994-0.263zM1145.305 846.244v31.508c0 0.525 0.263 1.313 0.788 1.575 0.525 0.525 1.050 0.788 1.575 0.788h30.983c1.313 0 2.363-1.050 2.363-2.363v-31.508c0-1.313-1.050-2.363-2.363-2.363h-30.983c-1.313 0-2.363 1.050-2.363 2.363zM1176.025 848.607v26.519h-25.994v-26.782l25.994 0.263zM1107.758 846.507v31.508c0 0.525 0.263 1.313 0.788 1.575 0.525 0.525 1.050 0.788 1.575 0.788h30.983c1.313 0 2.363-1.050 2.363-2.363v-31.508c0-1.313-1.050-2.363-2.363-2.363h-30.983c-1.313-0.263-2.363 1.050-2.363 2.363zM1138.741 848.87v26.519h-26.256v-26.782l26.256 0.263zM1070.211 846.507v31.508c0 0.525 0.263 1.313 0.788 1.575 0.525 0.525 1.050 0.788 1.575 0.788h30.983c1.313 0 2.363-1.050 2.363-2.363v-31.508c0-0.525-0.263-1.313-0.788-1.575-0.525-0.525-1.050-0.788-1.575-0.788h-30.983c-1.313 0-2.363 1.050-2.363 2.363zM1101.194 848.87v26.782h-25.994v-26.519l25.994-0.263zM1032.402 846.507v31.508c0 0.525 0.263 1.313 0.788 1.575 0.525 0.525 1.050 0.788 1.575 0.788h30.983c1.313 0 2.363-1.050 2.363-2.363v-31.508c0-0.525-0.263-1.313-0.788-1.575-0.525-0.525-1.050-0.788-1.575-0.788h-30.983c-1.050 0-2.363 1.050-2.363 2.363zM1063.385 848.87v26.782h-25.994v-26.782h25.994zM994.33 846.507v31.508c0 0.525 0.263 1.313 0.788 1.575 0.525 0.525 1.050 0.788 1.575 0.788h30.983c1.313 0 2.363-1.050 2.363-2.363v-31.508c0-0.525-0.263-1.313-0.788-1.575-0.525-0.525-1.050-0.788-1.575-0.788h-30.983c-1.313 0-2.363 1.050-2.363 2.363zM1025.313 848.87v26.782h-26.256v-26.519l26.256-0.263zM956.784 846.507v31.508c0 1.313 1.050 2.363 2.363 2.363h30.983c0.525 0 1.313-0.263 1.575-0.788 0.525-0.525 0.788-1.050 0.788-1.575v-31.508c0-0.525-0.263-1.313-0.788-1.575-0.525-0.525-1.050-0.788-1.575-0.788h-30.983c-1.313 0-2.363 1.050-2.363 2.363zM987.766 848.87v26.782h-26.256v-26.519l26.256-0.263zM918.974 846.769v31.508c0 0.525 0.263 1.313 0.788 1.575 0.525 0.525 1.050 0.788 1.575 0.788h30.983c1.313 0 2.363-1.050 2.363-2.363v-31.508c0-1.313-1.050-2.363-2.363-2.363h-30.983c-1.050-0.263-2.363 1.050-2.363 2.363zM949.957 849.132v26.519h-25.994v-26.782l25.994 0.263zM881.165 846.769v31.508c0 1.313 1.050 2.363 2.363 2.363h30.983c0.525 0 1.313-0.263 1.575-0.788 0.525-0.525 0.788-1.050 0.788-1.575v-31.508c0-0.525-0.263-1.313-0.788-1.575-0.525-0.525-1.050-0.788-1.575-0.788h-30.983c-1.313 0-2.363 1.050-2.363 2.363zM912.148 849.132v26.782h-25.994v-26.519l25.994-0.263zM877.489 844.406h-30.983c-1.313 0-2.363 1.050-2.363 2.363v31.508c0 0.525 0.263 1.313 0.788 1.575 0.525 0.525 1.050 0.788 1.575 0.788h30.983c0.525 0 1.313-0.263 1.575-0.788 0.525-0.525 0.788-1.050 0.788-1.575v-31.508c0-1.313-1.050-2.363-2.363-2.363zM848.87 875.914v-26.782h25.994v26.782h-25.994zM840.468 844.406h-30.983c-0.525 0-1.313 0.263-1.575 0.788-0.525 0.525-0.788 1.050-0.788 1.575v31.508c0 0.525 0.263 1.313 0.788 1.575 0.525 0.525 1.050 0.788 1.575 0.788h30.983c1.313 0 2.363-1.050 2.363-2.363v-31.508c0.263-1.313-0.788-2.363-2.363-2.363zM812.111 875.914v-26.782h25.994v26.519l-25.994 0.263zM804.759 845.194c-0.525-0.525-1.050-0.788-1.575-0.788h-30.983c-1.313 0-2.363 1.050-2.363 2.363v31.508c0 0.525 0.263 1.313 0.788 1.575 0.525 0.525 1.050 0.788 1.575 0.788h30.983c1.313 0 2.363-1.050 2.363-2.363v-31.508c0-0.525-0.263-1.313-0.788-1.575zM774.827 875.914v-26.519h25.994v26.782l-25.994-0.263zM714.699 880.903v0h49.625c1.313 0 2.363-1.050 2.363-2.363v-31.508c0-0.525-0.263-1.313-0.788-1.575-0.525-0.525-1.050-0.788-1.575-0.788h-49.625c-0.525 0-1.313 0.263-1.575 0.788-0.525 0.525-0.788 1.050-0.788 1.575v31.508c0 0.525 0.263 1.313 0.788 1.575 0.263 0.525 1.050 0.788 1.575 0.788zM721.001 849.395h40.96v26.782h-44.898v-26.782h3.938zM1256.107 924.488c-0.525-0.525-1.050-0.788-1.575-0.788h-75.618c-1.313 0-2.363 1.050-2.363 2.363v31.508c0 0.525 0.263 1.313 0.788 1.575 0.525 0.525 1.050 0.788 1.575 0.788h75.618c1.313 0 2.363-1.050 2.363-2.363v-31.508c0-0.525-0.263-1.050-0.788-1.575zM1181.276 955.471v-26.782h70.892v26.519l-70.892 0.263zM1136.115 959.409c0.525 0.525 1.050 0.788 1.575 0.788h30.983c1.313 0 2.363-1.050 2.363-2.363v-31.508c0-0.525-0.263-1.313-0.788-1.575-0.525-0.525-1.050-0.788-1.575-0.788h-30.983c-1.313 0-2.363 1.050-2.363 2.363v31.508c0.263 0.525 0.263 1.313 0.788 1.575zM1166.31 928.689v26.782h-25.994v-26.782h25.994zM1098.568 959.672c0.525 0.525 1.050 0.788 1.575 0.788h30.983c1.313 0 2.363-1.050 2.363-2.363v-31.508c0-0.525-0.263-1.313-0.788-1.575-0.525-0.525-1.050-0.788-1.575-0.788h-30.983c-1.313 0-2.363 1.050-2.363 2.363v31.508c0.263 0.263 0.525 1.050 0.788 1.575zM1128.763 928.689v26.782h-25.994v-26.519l25.994-0.263zM1061.022 959.672c0.525 0.525 1.050 0.788 1.575 0.788h30.983c1.313 0 2.363-1.050 2.363-2.363v-31.508c0-0.525-0.263-1.313-0.788-1.575-0.525-0.525-1.050-0.788-1.575-0.788h-30.983c-1.313 0-2.363 1.050-2.363 2.363v31.508c0.263 0.525 0.525 1.050 0.788 1.575zM1091.216 928.952v26.519h-25.994v-26.782l25.994 0.263zM1023.475 959.672c0.525 0.525 1.050 0.788 1.575 0.788h30.983c1.313 0 2.363-1.050 2.363-2.363v-31.508c0-0.525-0.263-1.313-0.788-1.575-0.525-0.525-1.050-0.788-1.575-0.788h-30.983c-1.313 0-2.363 1.050-2.363 2.363v31.508c0 0.525 0.263 1.050 0.788 1.575zM1053.67 928.952v26.782h-25.994v-26.519l25.994-0.263zM986.978 960.459h30.983c0.525 0 1.313-0.263 1.575-0.788 0.525-0.525 0.788-1.050 0.788-1.575v-31.508c0-1.313-1.050-2.363-2.363-2.363h-30.983c-0.525 0-1.313 0.263-1.575 0.788-0.525 0.525-0.788 1.050-0.788 1.575v31.508c0 1.313 1.050 2.363 2.363 2.363zM1015.598 928.952v26.782h-26.256v-26.782h26.256zM947.856 959.672c0.525 0.525 1.050 0.788 1.575 0.788h30.983c1.313 0 2.363-1.050 2.363-2.363v-31.508c0-1.313-1.050-2.363-2.363-2.363h-30.983c-0.525 0-1.313 0.263-1.575 0.788-0.525 0.525-0.788 1.050-0.788 1.575v31.508c0 0.525 0.263 1.313 0.788 1.575zM978.051 928.952v26.519h-25.994v-26.782l25.994 0.263zM910.047 959.672c0.525 0.525 1.050 0.788 1.575 0.788h30.983c1.313 0 2.363-1.050 2.363-2.363v-31.508c0-0.525-0.263-1.313-0.788-1.575-0.525-0.525-1.050-0.788-1.575-0.788h-30.983c-1.313 0-2.363 1.050-2.363 2.363v31.508c0 0.525 0.263 1.313 0.788 1.575zM940.242 928.952v26.782h-25.994v-26.519l25.994-0.263zM871.975 959.934c0.525 0.525 1.050 0.788 1.575 0.788h30.983c0.525 0 1.313-0.263 1.575-0.788 0.525-0.525 0.788-1.050 0.788-1.575v-31.508c0-1.313-1.050-2.363-2.363-2.363h-30.983c-1.313 0-2.363 1.050-2.363 2.363v31.508c0.263 0.525 0.525 1.050 0.788 1.575zM902.17 928.952v26.782h-25.994v-26.782h25.994zM867.512 924.226h-30.983c-0.525 0-1.313 0.263-1.575 0.788-0.525 0.525-0.788 1.050-0.788 1.575v31.508c0 1.313 1.050 2.363 2.363 2.363h30.983c1.313 0 2.363-1.050 2.363-2.363v-31.508c0-0.525-0.263-1.313-0.788-1.575-0.263-0.525-0.788-0.788-1.575-0.788zM839.155 955.733v-26.519h26.256v26.519h-26.256zM830.753 924.488h-30.983c-1.313 0-2.363 1.050-2.363 2.363v31.508c0 1.313 1.050 2.363 2.363 2.363h30.983c0.525 0 1.313-0.263 1.575-0.788 0.525-0.525 0.788-1.050 0.788-1.575v-31.508c0-0.525-0.263-1.313-0.788-1.575-0.263-0.525-1.050-0.788-1.575-0.788zM802.133 955.996v-26.519h26.256v26.782l-26.256-0.263zM793.206 924.488h-30.983c-1.313 0-2.363 1.050-2.363 2.363v31.508c0 0.525 0.263 1.313 0.788 1.575 0.525 0.525 1.050 0.788 1.575 0.788h30.983c0.525 0 1.313-0.263 1.575-0.788 0.525-0.525 0.788-1.050 0.788-1.575v-31.508c0.263-1.313-0.788-2.363-2.363-2.363zM764.849 955.996v-26.782h25.994v26.782h-25.994zM714.962 960.722h40.172c1.313 0 2.363-1.050 2.363-2.363v-31.508c0-0.525-0.263-1.313-0.788-1.575-0.525-0.525-1.050-0.788-1.575-0.788h-40.172c-0.525 0-1.313 0.263-1.575 0.788-0.525 0.525-0.788 1.050-0.788 1.575v31.508c-0.263 1.313 0.788 2.363 2.363 2.363zM719.951 929.214h32.558v26.782h-35.446v-26.782h2.888zM747.52 964.661c-0.525-0.525-1.050-0.788-1.575-0.788h-30.983c-0.525 0-1.313 0.263-1.575 0.788-0.525 0.525-0.788 1.050-0.788 1.575v31.508c0 0.525 0.263 1.313 0.788 1.575 0.525 0.525 1.050 0.788 1.575 0.788h30.983c1.313 0 2.363-1.050 2.363-2.363v-31.508c0-0.525-0.263-1.050-0.788-1.575zM717.325 995.381v-26.782h26.256v26.519l-26.256 0.263zM784.279 964.661c-0.525-0.525-1.050-0.788-1.575-0.788h-30.983c-0.525 0-1.313 0.263-1.575 0.788-0.525 0.525-0.788 1.050-0.788 1.575v31.508c0 1.313 1.050 2.363 2.363 2.363h30.983c1.313 0 2.363-1.050 2.363-2.363v-31.508c0-0.525-0.263-1.313-0.788-1.575zM754.084 995.381v-26.519h25.994v26.519h-25.994zM819.988 963.873h-30.983c-1.313 0-2.363 1.050-2.363 2.363v31.508c0 0.525 0.263 1.313 0.788 1.575 0.525 0.525 1.050 0.788 1.575 0.788h30.983c1.313 0 2.363-1.050 2.363-2.363v-31.508c0-1.313-1.050-2.363-2.363-2.363zM791.631 995.381v-26.782h25.994v26.519l-25.994 0.263zM867.774 963.873h-40.172c-0.525 0-1.313 0.263-1.575 0.788-0.525 0.525-0.788 1.050-0.788 1.575v31.508c0 0.525 0.263 1.313 0.788 1.575 0.525 0.525 1.050 0.788 1.575 0.788h40.172c1.313 0 2.363-1.050 2.363-2.363v-31.508c0-1.313-1.050-2.363-2.363-2.363zM829.965 995.118v-26.782h35.446v26.782h-35.446zM1141.104 963.348h-30.983c-1.313 0-2.363 1.050-2.363 2.363v31.508c0 0.525 0.263 1.313 0.788 1.575 0.525 0.525 1.050 0.788 1.575 0.788h30.983c1.313 0 2.363-1.050 2.363-2.363v-31.508c0-1.313-1.050-2.363-2.363-2.363zM1112.484 994.855v-26.782h25.994v26.519l-25.994 0.263zM1104.607 964.135c-0.525-0.525-1.050-0.788-1.575-0.788h-40.172c-0.525 0-1.313 0.263-1.575 0.788-0.525 0.525-0.788 1.050-0.788 1.575v31.508c0 1.313 1.050 2.363 2.363 2.363h40.172c1.313 0 2.363-1.050 2.363-2.363v-31.508c0-0.525-0.263-1.050-0.788-1.575zM1065.223 994.855v-26.782h35.446v26.782h-35.446zM1056.295 963.348l-182.745 0.263c-1.313 0-2.363 1.050-2.363 2.363v31.508c0 1.313 1.050 2.363 2.363 2.363l182.745-0.263c0.525 0 1.313-0.263 1.575-0.788 0.525-0.525 0.788-1.050 0.788-1.575v-31.508c0.263-1.313-1.050-2.363-2.363-2.363zM1032.665 994.855l-156.488 0.263v-26.519l177.756-0.263v26.782l-21.268-0.263zM1256.107 844.406c-0.525-0.525-1.050-0.788-1.575-0.788h-30.983c-0.525 0-1.313 0.263-1.575 0.788-0.525 0.525-0.788 1.050-0.788 1.575v31.508c0 0.525 0.263 1.313 0.788 1.575 0.525 0.525 1.050 0.788 1.575 0.788h7.352v37.547c0 1.313 1.050 2.363 2.363 2.363h21.268c1.313 0 2.363-1.050 2.363-2.363v-47.787c0 0 0-0.263 0-0.263v-23.368c-0.263-0.263-0.525-1.050-0.788-1.575zM1235.627 915.298v-37.547c0-0.525-0.263-1.313-0.788-1.575-0.525-0.525-1.050-0.788-1.575-0.788h-7.352v-26.782h26.256v21.268c0 0 0 0.263 0 0.263v44.898l-16.542 0.263zM1192.829 886.154v31.508c0 0.525 0.263 1.313 0.788 1.575 0.525 0.525 1.050 0.788 1.575 0.788h30.983c1.313 0 2.363-1.050 2.363-2.363v-31.508c0-0.525-0.263-1.313-0.788-1.575-0.525-0.525-1.050-0.788-1.575-0.788h-30.983c-1.050 0-2.363 1.050-2.363 2.363zM1223.811 888.517v26.782h-25.994v-26.782h25.994zM1190.728 917.662v-31.508c0-0.525-0.263-1.313-0.788-1.575-0.525-0.525-1.050-0.788-1.575-0.788h-30.983c-1.313 0-2.363 1.050-2.363 2.363v31.508c0 0.525 0.263 1.313 0.788 1.575 0.525 0.525 1.050 0.788 1.575 0.788h30.983c1.313 0 2.363-1.050 2.363-2.363zM1160.008 915.298v-26.782h25.994v26.782h-25.994zM1152.656 919.499c0.525-0.525 0.788-1.050 0.788-1.575v-31.508c0-0.525-0.263-1.313-0.788-1.575-0.525-0.525-1.050-0.788-1.575-0.788h-30.983c-1.313 0-2.363 1.050-2.363 2.363v31.508c0 0.525 0.263 1.313 0.788 1.575 0.525 0.525 1.050 0.788 1.575 0.788h30.983c0.525 0 1.050-0.263 1.575-0.788zM1122.462 915.561v-26.519h25.994v26.782l-25.994-0.263zM1115.635 917.924v-31.508c0-0.525-0.263-1.313-0.788-1.575-0.525-0.525-1.050-0.788-1.575-0.788h-30.983c-1.313 0-2.363 1.050-2.363 2.363v31.508c0 0.525 0.263 1.313 0.788 1.575 0.525 0.525 1.050 0.788 1.575 0.788h30.983c1.313 0 2.363-1.050 2.363-2.363zM1084.915 915.561v-26.782h25.994v26.782h-25.994zM1078.088 917.924v-31.508c0-0.525-0.263-1.313-0.788-1.575-0.525-0.525-1.050-0.788-1.575-0.788h-30.983c-1.313 0-2.363 1.050-2.363 2.363v31.508c0 0.525 0.263 1.313 0.788 1.575 0.525 0.525 1.050 0.788 1.575 0.788h30.983c1.313 0 2.363-1.050 2.363-2.363zM1047.106 915.561v-26.519h25.994v26.782l-25.994-0.263zM1039.229 919.762c0.525-0.525 0.788-1.050 0.788-1.575v-31.508c0-1.313-1.050-2.363-2.363-2.363h-30.983c-0.525 0-1.313 0.263-1.575 0.788-0.525 0.525-0.788 1.050-0.788 1.575v31.508c0 1.313 1.050 2.363 2.363 2.363h30.983c0.525-0.263 1.050-0.525 1.575-0.788zM1009.034 915.561v-26.782h25.994v26.782h-25.994zM1002.47 917.924v-31.508c0-1.313-1.050-2.363-2.363-2.363h-30.983c-1.313 0-2.363 1.050-2.363 2.363v31.508c0 0.525 0.263 1.313 0.788 1.575 0.525 0.525 1.050 0.788 1.575 0.788h30.983c1.313 0 2.363-1.050 2.363-2.363zM971.487 915.561v-26.782h25.994v26.519l-25.994 0.263zM964.661 917.924v-31.508c0-0.525-0.263-1.313-0.788-1.575-0.525-0.525-1.050-0.788-1.575-0.788h-30.983c-1.313 0-2.363 1.050-2.363 2.363v31.508c0 0.525 0.263 1.313 0.788 1.575 0.525 0.525 1.050 0.788 1.575 0.788h30.983c1.313 0.263 2.363-1.050 2.363-2.363zM933.678 915.824v-26.782h25.994v26.782h-25.994zM926.064 919.762c0.525-0.525 0.788-1.050 0.788-1.575v-31.508c0-0.525-0.263-1.313-0.788-1.575-0.525-0.525-1.050-0.788-1.575-0.788h-30.983c-1.313 0-2.363 1.050-2.363 2.363v31.508c0 1.313 1.050 2.363 2.363 2.363h30.983c0.525 0 1.050-0.263 1.575-0.788zM895.869 915.824v-26.519h25.994v26.782l-25.994-0.263zM854.646 885.104c-0.525 0.525-0.788 1.050-0.788 1.575v31.508c0 0.525 0.263 1.313 0.788 1.575 0.525 0.525 1.050 0.788 1.575 0.788h30.983c1.313 0 2.363-1.050 2.363-2.363v-31.508c0-1.313-1.050-2.363-2.363-2.363h-30.983c-0.525 0-1.050 0.263-1.575 0.788zM884.841 889.042v26.519h-25.994v-26.782l25.994 0.263zM817.099 886.679v31.508c0 1.313 1.050 2.363 2.363 2.363h30.983c0.525 0 1.313-0.263 1.575-0.788 0.525-0.525 0.788-1.050 0.788-1.575v-31.508c0-0.525-0.263-1.313-0.788-1.575-0.525-0.525-1.050-0.788-1.575-0.788h-30.983c-1.313 0-2.363 1.313-2.363 2.363zM848.082 889.042v26.782h-25.994v-26.519l25.994-0.263zM779.553 886.942v31.508c0 1.313 1.050 2.363 2.363 2.363h30.983c1.313 0 2.363-1.050 2.363-2.363v-31.508c0-0.525-0.263-1.313-0.788-1.575-0.525-0.525-1.050-0.788-1.575-0.788h-30.983c-1.313 0-2.363 1.050-2.363 2.363zM810.535 889.305v26.782h-25.994v-26.519l25.994-0.263zM713.124 920.025c0.525 0.525 1.050 0.788 1.575 0.788v0h59.339c0.525 0 1.313-0.263 1.575-0.788 0.525-0.525 0.788-1.050 0.788-1.575v-31.508c0-1.313-1.050-2.363-2.363-2.363h-59.339c-0.525 0-1.313 0.263-1.575 0.788-0.525 0.525-0.788 1.050-0.788 1.575v31.508c0 0.525 0.263 1.313 0.788 1.575zM722.576 889.305h49.362v26.519h-54.613v-26.782h5.251zM473.666 101.35c14.966 0 29.932 0 45.161 0-0.525-2.363-1.050-4.726-1.575-7.352-14.966 0-30.195 0-45.161 0 0.525 2.363 1.050 4.989 1.575 7.352zM632.517 325.579c-12.866 0-25.469 0-38.334 0 0.525 2.363 1.050 4.726 1.575 7.352 12.866 0 25.469 0 38.334 0-0.788-2.626-1.313-4.989-1.575-7.352zM615.45 254.425c-13.128 0-26.256 0-39.385 0 0.525 2.363 1.050 4.726 1.575 7.352 13.128 0 26.256 0 39.385 0-0.525-2.626-1.050-4.989-1.575-7.352zM755.922 288.821c-14.966 0-29.932 0-44.636 0 0.525 2.363 0.788 4.726 1.313 7.352 14.966 0 29.67 0 44.636 0-0.525-2.626-1.050-4.989-1.313-7.352zM698.421 288.821c-10.765 0-21.53 0-32.558 0 0.525 2.363 1.050 4.726 1.313 7.352 10.765 0 21.53 0 32.295 0-0.263-2.626-0.788-4.989-1.050-7.352zM654.047 295.91c-0.525-2.363-1.050-4.726-1.575-7.352-13.916 0-27.569 0-41.485 0 0.525 2.363 1.050 4.726 1.575 7.352 13.916 0 27.832 0 41.485 0zM667.963 315.077c-0.525-2.363-1.050-4.726-1.313-7.352-17.067 0-34.396 0-51.463 0 0.525 2.363 1.050 4.726 1.575 7.352 17.067 0 34.133 0 51.2 0zM682.667 315.077c12.341 0 24.681 0 37.284 0-0.525-2.363-0.788-4.726-1.313-7.352-12.341 0-24.944 0-37.284 0 0.525 2.626 0.788 4.989 1.313 7.352zM781.653 307.988c-15.754 0-31.77 0-47.524 0 0.525 2.363 0.788 4.726 1.313 7.352 15.754 0 31.77 0 47.524 0-0.788-2.626-1.050-4.989-1.313-7.352zM797.67 315.077c10.24 0 20.217 0 30.457 0-0.263-2.363-0.525-4.726-1.050-7.352-10.24 0-20.217 0-30.457 0 0.525 2.626 0.788 4.989 1.050 7.352zM608.886 277.793c12.603 0 25.206 0 37.809 0-0.525-2.363-1.050-4.726-1.575-7.352-12.603 0-25.206 0-37.809 0 0.525 2.363 1.050 4.989 1.575 7.352zM662.187 277.793c16.016 0 32.033 0 48.312 0-0.525-2.363-0.788-4.726-1.313-7.352-16.016 0-32.295 0-48.312 0 0.263 2.363 0.788 4.989 1.313 7.352zM756.447 277.793c-0.263-2.363-0.788-4.726-1.050-7.352-10.24 0-20.48 0-30.983 0 0.525 2.363 0.788 4.726 1.313 7.352 10.24 0 20.48 0 30.72 0zM617.026 413.801c0.525 2.363 1.050 4.726 1.575 7.352 12.341 0 24.681 0 37.022 0-0.525-2.363-1.050-4.726-1.575-7.352-12.341 0-24.681 0-37.022 0zM637.243 342.646c-12.603 0-25.469 0-38.072 0 0.525 2.363 1.050 4.726 1.575 7.352 12.603 0 25.469 0 38.072 0-0.525-2.363-1.050-4.989-1.575-7.352zM731.241 384.131c14.441 0 28.619 0 43.061 0-0.263-2.363-0.788-4.726-1.050-7.352-14.441 0-28.882 0-43.323 0 0.525 2.626 0.788 4.989 1.313 7.352zM687.655 384.131c10.503 0 20.743 0 31.245 0-0.525-2.363-0.788-4.726-1.313-7.352-10.503 0-21.005 0-31.245 0 0.263 2.626 0.788 4.989 1.313 7.352zM674.79 384.131c-0.525-2.363-1.050-4.726-1.313-7.352-13.391 0-26.782 0-39.91 0 0.525 2.363 1.050 4.726 1.575 7.352 13.128 0 26.519 0 39.647 0zM637.243 396.209c0.525 2.363 1.050 4.726 1.575 7.352 16.542 0 33.083 0 49.625 0-0.525-2.363-1.050-4.726-1.313-7.352-16.804 0-33.346 0-49.887 0zM701.309 396.209c0.525 2.363 1.050 4.726 1.313 7.352 12.078 0 23.893 0 35.971 0-0.525-2.363-0.788-4.726-1.313-7.352-12.078 0-23.893 0-35.971 0zM751.984 396.209c0.525 2.363 0.788 4.726 1.313 7.352 15.229 0 30.457 0 45.949 0-0.263-2.363-0.788-4.726-1.050-7.352-15.491 0-30.72 0-46.211 0zM812.636 396.209c0.263 2.363 0.788 4.726 1.050 7.352 9.715 0 19.43 0 29.407 0-0.263-2.363-0.525-4.726-1.050-7.352-9.715 0-19.43 0-29.407 0zM631.204 366.014c12.078 0 24.418 0 36.496 0-0.525-2.363-1.050-4.726-1.575-7.352-12.078 0-24.418 0-36.496 0 0.525 2.626 1.050 4.989 1.575 7.352zM727.828 358.925c-15.491 0-31.245 0-46.736 0 0.525 2.363 1.050 4.726 1.313 7.352 15.491 0 30.983 0 46.474 0-0.263-2.626-0.525-4.989-1.050-7.352zM772.464 358.925c-9.977 0-19.955 0-29.932 0 0.525 2.363 0.788 4.726 1.313 7.352 9.977 0 19.955 0 29.67 0-0.263-2.626-0.525-4.989-1.050-7.352zM590.244 176.968c-18.117 0-35.971 0-54.088 0 0.525 2.363 1.050 4.726 1.575 7.352 17.854 0 35.971 0 53.826 0-0.263-2.363-0.788-4.726-1.313-7.352zM866.462 177.231c-12.866 0-25.731 0-38.597 0 0.263 2.363 0.525 4.726 1.050 7.352 12.866 0 25.731 0 38.334 0-0.263-2.626-0.525-4.989-0.788-7.352zM605.735 176.968c0.525 2.363 1.050 4.726 1.575 7.352 13.128 0 25.994 0 39.122 0-0.525-2.363-1.050-4.726-1.313-7.352-13.128 0-26.256 0-39.385 0zM662.449 184.32c16.542 0 33.346 0 49.887 0-0.525-2.363-0.788-4.726-1.313-7.352-16.804 0-33.346 0-50.15 0 0.525 2.626 1.050 4.989 1.575 7.352zM727.040 177.231c0.525 2.363 0.788 4.726 1.313 7.352 10.503 0 21.268 0 31.77 0-0.263-2.363-0.788-4.726-1.050-7.352-10.765 0-21.53 0-32.033 0zM771.938 177.231c0.263 2.363 0.788 4.726 1.050 7.352 13.653 0 27.044 0 40.697 0-0.263-2.363-0.525-4.726-1.050-7.352-13.391 0-27.044 0-40.697 0zM813.949 164.103c16.016 0 32.033 0 48.049 0-0.263-2.363-0.525-4.726-0.788-7.352-16.016 0-32.033 0-48.049 0 0 2.363 0.525 4.989 0.788 7.352zM568.976 164.103c11.29 0 22.843 0 34.133 0-0.525-2.363-1.050-4.726-1.575-7.352-11.553 0-22.843 0-34.396 0 0.788 2.363 1.313 4.726 1.838 7.352zM764.324 156.751c0.263 2.363 0.788 4.726 1.050 7.352 11.553 0 23.106 0 34.921 0-0.263-2.363-0.525-4.726-1.050-7.352-11.815 0-23.368 0-34.921 0zM705.51 156.751c0.525 2.363 0.788 4.726 1.313 7.352 14.704 0 29.67 0 44.373 0-0.263-2.363-0.788-4.726-1.050-7.352-14.966 0-29.932 0-44.636 0zM664.287 164.103c9.452 0 18.905 0 28.357 0-0.525-2.363-0.788-4.726-1.313-7.352-9.452 0-18.905 0-28.357 0 0.263 2.363 0.788 4.726 1.313 7.352zM614.925 156.751c0.525 2.363 1.050 4.726 1.575 7.352 12.078 0 24.156 0 36.234 0-0.525-2.363-0.788-4.726-1.313-7.352-12.341 0-24.418 0-36.496 0zM906.371 164.103c-0.263-2.363-0.525-4.726-0.788-7.352-12.078 0-23.893 0-35.971 0 0.263 2.363 0.525 4.726 0.788 7.352 12.078 0 24.156 0 35.971 0zM920.55 156.751c0.263 2.363 0.525 4.726 0.788 7.352 15.229 0 30.457 0 45.686 0-0.263-2.363-0.263-4.726-0.525-7.352-15.491 0-30.72 0-45.949 0zM605.473 122.092c-0.525-2.363-1.050-4.726-1.575-7.352-18.379 0-37.022 0-55.401 0 0.525 2.363 1.050 4.726 1.575 7.352 18.642 0 37.022 0 55.401 0zM887.204 122.092c-0.263-2.363-0.525-4.726-0.788-7.352-13.128 0-26.256 0-39.385 0 0.263 2.363 0.525 4.726 0.788 7.352 13.128 0 26.256 0 39.385 0zM661.136 122.092c-0.525-2.363-0.788-4.726-1.313-7.352-13.391 0-26.782 0-40.172 0 0.525 2.363 1.050 4.726 1.313 7.352 13.653 0 27.044 0 40.172 0zM728.615 122.092c-0.263-2.363-0.788-4.726-1.050-7.352-17.067 0-34.133 0-51.2 0 0.525 2.363 0.788 4.726 1.313 7.352 17.067 0 33.871 0 50.937 0zM777.715 122.092c-0.263-2.363-0.788-4.726-1.050-7.352-11.028 0-21.793 0-32.821 0 0.263 2.363 0.788 4.726 1.050 7.352 11.028 0 21.793 0 32.821 0zM832.591 122.092c-0.263-2.363-0.525-4.726-0.788-7.352-13.916 0-27.832 0-41.748 0 0.263 2.363 0.788 4.726 1.050 7.352 13.653 0 27.569 0 41.485 0zM820.25 134.958c0.263 2.363 0.525 4.726 1.050 7.352 19.43 0 38.859 0 58.289 0-0.263-2.363-0.525-4.726-0.788-7.352-19.692 0-39.122 0-58.552 0zM565.563 142.047c-0.525-2.363-1.050-4.726-1.575-7.352-13.916 0-27.832 0-41.485 0 0.525 2.363 1.050 4.726 1.838 7.352 13.391 0 27.307 0 41.223 0zM761.173 134.695c0.263 2.363 0.788 4.726 1.050 7.352 14.178 0 28.094 0 42.273 0-0.263-2.363-0.525-4.726-1.050-7.352-14.178 0-28.094 0-42.273 0zM689.756 134.695c0.525 2.363 0.788 4.726 1.313 7.352 17.854 0 35.971 0 53.826 0-0.263-2.363-0.788-4.726-1.050-7.352-17.854 0-35.971 0-54.088 0zM639.606 142.047c11.553 0 22.843 0 34.396 0-0.525-2.363-0.788-4.726-1.313-7.352-11.553 0-23.106 0-34.396 0 0.263 2.626 0.788 4.989 1.313 7.352zM580.004 134.695c0.525 2.363 1.050 4.726 1.575 7.352 14.704 0 29.407 0 43.848 0-0.525-2.363-1.050-4.726-1.575-7.352-14.441 0-29.145 0-43.848 0zM1004.833 142.047c-0.263-2.363-0.263-4.726-0.525-7.352-14.178 0-28.094 0-42.273 0 0.263 2.363 0.263 4.726 0.525 7.352 14.178 0 28.357 0 42.273 0zM1075.988 142.047c0-2.363-0.263-4.726-0.263-7.352-18.117 0-35.971 0-54.088 0 0 2.363 0.263 4.726 0.263 7.352 18.379 0 36.234 0 54.088 0zM1127.713 142.047c0-2.363 0-4.726 0-7.352-11.553 0-23.106 0-34.396 0 0 2.363 0.263 4.726 0.263 7.352 11.028 0 22.581 0 34.133 0zM1185.739 142.047c0-2.363 0-4.726 0-7.352-14.704 0-29.407 0-44.111 0 0 2.363 0 4.726 0 7.352 14.704 0 29.407 0 44.111 0zM942.343 142.047c-0.263-2.363-0.525-4.726-0.525-7.352-17.592 0-35.184 0-52.513 0 0.263 2.363 0.525 4.726 0.788 7.352 17.329 0 34.921 0 52.25 0zM617.288 213.99c0.525 2.363 1.050 4.726 1.575 7.352 16.016 0 32.295 0 48.312 0-0.525-2.363-0.788-4.726-1.313-7.352-16.279 0-32.295 0-48.574 0zM878.539 213.99c0.263 2.363 0.525 4.726 0.788 7.352 11.553 0 22.843 0 34.396 0-0.263-2.363-0.525-4.726-0.788-7.352-11.553 0-23.106 0-34.396 0zM681.091 221.079c11.553 0 23.368 0 34.921 0-0.525-2.363-0.788-4.726-1.313-7.352-11.815 0-23.368 0-35.184 0 0.525 2.626 1.050 4.989 1.575 7.352zM773.776 213.99c-14.966 0-29.932 0-44.898 0 0.525 2.363 0.788 4.726 1.313 7.352 14.966 0 29.67 0 44.636 0-0.263-2.626-0.525-4.989-1.050-7.352zM816.837 213.99c-9.452 0-19.167 0-28.619 0 0.263 2.363 0.788 4.726 1.050 7.352 9.452 0 18.905 0 28.619 0-0.525-2.626-0.788-4.989-1.050-7.352zM864.886 213.99c-12.078 0-24.418 0-36.496 0 0.263 2.363 0.525 4.726 1.050 7.352 12.078 0 24.418 0 36.496 0-0.263-2.626-0.525-4.989-1.050-7.352zM650.896 203.225c11.553 0 23.106 0 34.658 0-0.525-2.363-0.788-4.726-1.313-7.352-11.553 0-23.106 0-34.658 0 0.263 2.363 0.788 4.726 1.313 7.352zM747.257 203.225c9.452 0 19.167 0 28.619 0-0.263-2.363-0.788-4.726-1.050-7.352-9.715 0-19.167 0-28.882 0 0.525 2.363 1.050 4.726 1.313 7.352zM697.633 195.873c0.525 2.363 0.788 4.726 1.313 7.352 12.341 0 24.418 0 36.759 0-0.263-2.363-0.788-4.726-1.050-7.352-12.603 0-24.681 0-37.022 0zM855.171 233.945c0.263 2.363 0.525 4.726 0.788 7.352 17.067 0 33.871 0 50.937 0-0.263-2.363-0.525-4.726-0.788-7.352-17.067 0-33.871 0-50.937 0zM596.021 241.296c12.078 0 24.156 0 36.234 0-0.525-2.363-1.050-4.726-1.575-7.352-12.078 0-24.156 0-36.496 0 0.788 2.363 1.313 4.726 1.838 7.352zM840.468 233.945c-12.341 0-24.681 0-37.022 0 0.263 2.363 0.788 4.726 1.050 7.352 12.341 0 24.681 0 37.022 0-0.525-2.363-0.788-4.989-1.050-7.352zM788.217 233.945c-15.754 0-31.508 0-47.262 0 0.263 2.363 0.788 4.726 1.050 7.352 15.754 0 31.508 0 46.999 0 0-2.363-0.263-4.989-0.788-7.352zM725.99 233.945c-9.977 0-20.217 0-30.195 0 0.525 2.363 0.788 4.726 1.313 7.352 9.977 0 19.955 0 30.195 0-0.525-2.626-0.788-4.989-1.313-7.352zM646.433 241.296c12.866 0 25.731 0 38.334 0-0.525-2.363-0.788-4.726-1.313-7.352-12.866 0-25.731 0-38.597 0 0.525 2.363 1.050 4.726 1.575 7.352zM915.298 233.945c0.263 2.363 0.525 4.726 0.788 7.352 15.229 0 30.457 0 45.949 0-0.263-2.363-0.263-4.726-0.525-7.352-15.491 0-30.72 0-46.211 0zM1596.915 917.399l-46.736-85.596c-15.491-28.357-50.937-38.859-79.557-23.368-0.263 0.263-0.525 0.263-0.788 0.525-27.569 15.754-37.809 50.937-22.581 79.032l46.736 85.596c6.827 12.866 18.117 22.318 31.77 27.044 0.525 0.263 1.050 0.263 1.575 0.525s1.050 0.263 1.575 0.525c0.525 0.263 1.050 0.263 1.575 0.263 1.050 0.263 1.838 0.525 2.888 0.788 0.788 0.263 1.575 0.263 2.101 0.525 1.313 0.263 2.363 0.263 3.676 0.525 0.525 0 1.313 0.263 1.838 0.263 1.313 0 2.626 0.263 3.938 0.263 0.525 0 1.050 0 1.575 0 1.313 0 2.626 0 3.938-0.263 0.525 0 1.050 0 1.575 0 1.313-0.263 2.626-0.263 4.201-0.525 0.525 0 1.050-0.263 1.313-0.263 1.313-0.263 2.888-0.788 4.201-1.050 0.525 0 0.788-0.263 1.313-0.263 1.575-0.525 2.888-1.050 4.464-1.575 0.263 0 0.525-0.263 1.050-0.263 1.838-0.788 3.413-1.575 5.251-2.626 0.263-0.263 0.525-0.263 1.050-0.525 13.128-7.352 22.843-19.692 27.044-34.396 4.201-15.754 2.626-31.508-4.989-45.161zM1474.297 816.574c0.263-0.263 0.525-0.263 0.788-0.525 22.843-12.341 51.2-4.989 65.378 16.542-1.838 0.788-3.938 1.575-5.776 2.626-36.234 20.48-54.351 61.965-49.099 103.975l-30.457-55.664c-12.866-23.631-4.201-53.563 19.167-66.954zM1593.239 959.409c-3.676 12.866-12.341 22.843-23.893 29.67-1.313 0.788-2.888 1.313-4.201 2.101-21.268 8.927-46.999 1.838-60.39-17.854-23.631-49.099-8.665-105.813 34.396-130.232 1.838-1.050 3.676-1.838 5.776-2.626l44.373 81.395c6.302 11.29 7.614 24.681 3.938 37.547zM145.173 861.686l17.274-4.514 1.726 6.605-17.274 4.514-1.726-6.605zM88.931 646.164l17.278-4.503 1.722 6.606-17.278 4.503-1.722-6.606zM132.773 709.028l16.006-4.177 1.724 6.605-16.006 4.177-1.724-6.605zM176.671 664.182l18.294-4.764 1.72 6.606-18.294 4.764-1.72-6.606zM158.258 669.018l13.211-3.447 1.724 6.605-13.211 3.447-1.724-6.605zM135.945 674.709l17.022-4.44 1.723 6.605-17.022 4.44-1.723-6.605zM131.234 657.149l21.341-5.565 1.722 6.605-21.341 5.565-1.722-6.605zM158.484 650.123l15.497-4.043 1.723 6.605-15.497 4.043-1.723-6.605zM180.147 644.68l19.564-5.099 1.722 6.606-19.564 5.099-1.722-6.606zM206.226 637.624l12.45-3.242 1.72 6.606-12.45 3.242-1.72-6.606zM140.133 691.382l15.497-4.044 1.724 6.605-15.497 4.044-1.724-6.605zM161.953 685.596l19.564-5.097 1.721 6.606-19.564 5.097-1.721-6.606zM187.851 678.884l12.449-3.247 1.723 6.605-12.449 3.247-1.723-6.605zM142.335 781.686l21.341-5.571 1.724 6.605-21.341 5.571-1.724-6.605zM256.927 751.734l15.243-3.979 1.724 6.605-15.243 3.979-1.724-6.605zM169.78 774.573l15.499-4.038 1.721 6.606-15.499 4.038-1.721-6.606zM191.421 768.866l19.564-5.101 1.722 6.606-19.564 5.101-1.722-6.606zM217.251 762.166l12.449-3.249 1.724 6.605-12.449 3.249-1.724-6.605zM234.975 757.58l16.006-4.175 1.723 6.605-16.006 4.175-1.723-6.605zM257.041 771.581l18.8-4.906 1.724 6.605-18.8 4.906-1.724-6.605zM161.145 796.633l13.465-3.512 1.723 6.605-13.465 3.512-1.723-6.605zM238.025 776.442l13.468-3.504 1.719 6.607-13.468 3.504-1.719-6.607zM214.969 782.501l17.278-4.503 1.722 6.606-17.278 4.503-1.722-6.606zM198.375 786.885l11.179-2.916 1.723 6.605-11.179 2.916-1.723-6.605zM179.782 791.748l14.227-3.713 1.724 6.605-14.227 3.713-1.724-6.605zM279.026 765.77l13.973-3.648 1.724 6.605-13.973 3.648-1.724-6.605zM298.765 760.741l17.784-4.639 1.723 6.605-17.784 4.639-1.723-6.605zM167.558 835.732l21.343-5.56 1.721 6.606-21.343 5.56-1.721-6.606zM282.122 805.777l15.243-3.976 1.723 6.605-15.243 3.976-1.723-6.605zM195.005 828.65l15.499-4.038 1.721 6.606-15.499 4.038-1.721-6.606zM216.613 822.964l19.564-5.101 1.722 6.606-19.564 5.101-1.722-6.606zM242.516 816.236l12.45-3.245 1.722 6.606-12.45 3.245-1.722-6.606zM260.137 811.745l16.006-4.178 1.724 6.605-16.006 4.178-1.724-6.605zM266.026 790.478l22.613-5.891 1.721 6.606-22.613 5.891-1.721-6.606zM150.945 820.608l16.006-4.177 1.724 6.605-16.006 4.177-1.724-6.605zM243.299 796.452l16.26-4.24 1.722 6.605-16.26 4.24-1.722-6.605zM215.552 803.674l20.833-5.434 1.723 6.605-20.833 5.434-1.723-6.605zM195.775 808.93l13.212-3.441 1.72 6.606-13.212 3.441-1.72-6.606zM173.205 814.735l17.024-4.437 1.722 6.606-17.024 4.437-1.722-6.606zM321.101 776.289l16.26-4.246 1.725 6.605-16.26 4.246-1.725-6.605zM292.75 783.638l20.325-5.304 1.724 6.605-20.325 5.304-1.724-6.605zM162.562 740.671l19.31-5.031 1.721 6.606-19.31 5.031-1.721-6.606zM266.359 713.466l13.718-3.584 1.726 6.605-13.718 3.584-1.726-6.605zM187.39 734.226l13.975-3.642 1.722 6.606-13.975 3.642-1.722-6.606zM207.101 728.951l17.784-4.643 1.724 6.605-17.784 4.643-1.724-6.605zM230.389 722.909l11.434-2.98 1.722 6.606-11.434 2.98-1.722-6.606zM246.517 718.836l14.481-3.78 1.724 6.605-14.481 3.78-1.724-6.605zM181.059 753.305l13.716-3.589 1.728 6.604-13.716 3.589-1.728-6.604zM219.098 743.351l11.433-2.982 1.723 6.605-11.433 2.982-1.723-6.605zM200.005 748.484l14.483-3.773 1.721 6.606-14.483 3.773-1.721-6.606zM251.509 697.746l20.579-5.368 1.723 6.605-20.579 5.368-1.723-6.605zM146.939 725.086l14.483-3.771 1.72 6.606-14.483 3.771-1.72-6.606zM230.745 703.339l14.737-3.839 1.721 6.606-14.737 3.839-1.721-6.606zM205.824 709.881l19.058-4.955 1.718 6.607-19.058 4.955-1.718-6.607zM187.578 714.54l12.195-3.181 1.723 6.605-12.195 3.181-1.723-6.605zM167.174 719.952l15.497-4.041 1.722 6.605-15.497 4.041-1.722-6.605zM275.633 691.446l18.544-4.844 1.725 6.605-18.544 4.844-1.725-6.605zM169.011 871.518l16.004-4.182 1.726 6.605-16.004 4.182-1.726-6.605zM198.683 903.247l19.308-5.039 1.724 6.605-19.308 5.039-1.724-6.605zM302.651 876.236l13.72-3.574 1.721 6.606-13.72 3.574-1.721-6.606zM223.577 896.763l13.975-3.642 1.722 6.606-13.975 3.642-1.722-6.606zM243.109 891.795l17.786-4.635 1.722 6.606-17.786 4.635-1.722-6.606zM266.676 885.652l11.434-2.979 1.721 6.606-11.434 2.979-1.721-6.606zM282.651 881.41l14.481-3.78 1.724 6.605-14.481 3.78-1.724-6.605zM217.326 916.118l13.719-3.58 1.724 6.605-13.719 3.58-1.724-6.605zM255.348 906.114l11.431-2.986 1.725 6.605-11.431 2.986-1.725-6.605zM236.166 911.039l14.481-3.779 1.724 6.605-14.481 3.779-1.724-6.605zM287.768 860.573l20.581-5.364 1.722 6.606-20.581 5.364-1.722-6.606zM183.203 887.922l14.481-3.78 1.724 6.605-14.481 3.78-1.724-6.605zM266.922 865.879l14.737-3.839 1.721 6.606-14.737 3.839-1.721-6.606zM242.073 872.388l19.054-4.97 1.723 6.605-19.054 4.97-1.723-6.605zM223.857 877.355l12.196-3.178 1.722 6.606-12.196 3.178-1.722-6.606zM203.423 882.541l15.499-4.041 1.722 6.606-15.499 4.041-1.722-6.606zM311.866 854.258l18.546-4.838 1.723 6.605-18.546 4.838-1.723-6.605z"></path>
</svg>
