<?xml version="1.0" encoding="utf-8"?>
<!-- Generated by IcoMoon.io -->
<!DOCTYPE svg PUBLIC "-//W3C//DTD SVG 1.1//EN" "http://www.w3.org/Graphics/SVG/1.1/DTD/svg11.dtd">
<svg version="1.1" xmlns="http://www.w3.org/2000/svg" xmlns:xlink="http://www.w3.org/1999/xlink" width="5851" height="1024" viewBox="0 0 5851 1024">
<g id="icomoon-ignore">
</g>
<path fill="#ee472c" d="M1029.851 675.84l248.686-236.983c8.777-8.777 14.629-20.48 14.629-35.109s-5.851-26.331-14.629-35.109l-260.389-248.686c-20.48-17.554-49.737-17.554-67.291 2.926s-17.554 49.737 2.926 67.291l225.28 213.577-228.206 213.577c-8.777 8.777-14.629 20.48-14.629 32.183 0 2.926 0 35.109 0 93.623-87.771-131.657-386.194-611.474-389.12-617.326-8.777-14.629-23.406-23.406-40.96-23.406s-32.183 8.777-40.96 23.406l-409.6 669.989c-14.629 23.406-5.851 52.663 14.629 67.291 8.777 5.851 17.554 5.851 26.331 5.851 17.554 0 32.183-8.777 40.96-23.406l368.64-602.697c102.4 163.84 356.937 573.44 365.714 588.069 17.554 29.257 58.514 40.96 93.623 29.257 38.034-11.703 61.44-43.886 61.44-84.846 2.926-43.886 2.926-78.994 2.926-99.474zM1313.646 119.954c-20.48-17.554-49.737-17.554-67.291 2.926s-17.554 49.737 2.926 67.291l225.28 213.577-228.206 213.577c-8.777 8.777-14.629 20.48-14.629 35.109v166.766c0 26.331 20.48 46.811 46.811 46.811v0c26.331 0 46.811-20.48 46.811-46.811v-146.286l248.686-236.983c8.777-8.777 14.629-20.48 14.629-35.109s-5.851-26.331-14.629-35.109l-260.389-245.76zM2024.594 105.326c-210.651 0-380.343 169.691-380.343 380.343s169.691 380.343 380.343 380.343c210.651 0 380.343-169.691 380.343-380.343s-169.691-380.343-380.343-380.343zM2024.594 772.389c-157.989 0-283.794-128.731-283.794-283.794 0-157.989 128.731-283.794 283.794-283.794 157.989 0 283.794 128.731 283.794 283.794s-128.731 283.794-283.794 283.794zM3341.166 105.326c-210.651 0-380.343 169.691-380.343 380.343s169.691 380.343 380.343 380.343c210.651 0 380.343-169.691 380.343-380.343s-169.691-380.343-380.343-380.343zM3341.166 772.389c-157.989 0-283.794-128.731-283.794-283.794 0-157.989 128.731-283.794 283.794-283.794 157.989 0 283.794 128.731 283.794 283.794s-125.806 283.794-283.794 283.794zM2565.851 105.326c-26.331 0-46.811 20.48-46.811 46.811v667.063c0 26.331 20.48 46.811 46.811 46.811s46.811-20.48 46.811-46.811v-664.137c2.926-26.331-17.554-49.737-46.811-49.737zM2794.057 105.326c-26.331 0-46.811 20.48-46.811 46.811v667.063c0 26.331 20.48 46.811 46.811 46.811s46.811-20.48 46.811-46.811v-664.137c2.926-26.331-20.48-49.737-46.811-49.737zM3867.794 125.806c-2.926-5.851-5.851-11.703-11.703-14.629v0c8.777-5.851 17.554-14.629 17.554-26.331 0-20.48-14.629-32.183-35.109-32.183h-38.034c-5.851 0-8.777 2.926-8.777 11.703v99.474c0 2.926 0 2.926 2.926 2.926h14.629c2.926 0 2.926 0 2.926-2.926v-46.811h17.554c8.777 0 14.629 2.926 17.554 14.629l8.777 29.257c0 2.926 2.926 2.926 5.851 2.926h14.629c5.851 0 2.926-2.926 2.926-2.926l-11.703-35.109zM3832.686 99.474h-23.406v-29.257h23.406c11.703 0 14.629 8.777 14.629 14.629 0 8.777-2.926 14.629-14.629 14.629zM3829.76 8.777c-55.589 0-96.549 43.886-96.549 96.549 0 55.589 40.96 96.549 96.549 96.549 52.663 0 96.549-40.96 96.549-96.549-2.926-52.663-43.886-96.549-96.549-96.549zM3826.834 187.246c-43.886 0-76.069-35.109-76.069-78.994s32.183-78.994 76.069-78.994c43.886 0 76.069 35.109 76.069 78.994 2.926 43.886-32.183 78.994-76.069 78.994z"></path>
<path fill="#fff" d="M4233.509 608.549c0 108.251-40.96 190.171-157.989 190.171h-99.474v-377.417h96.549c122.88 0 160.914 84.846 160.914 187.246zM3955.566 845.531h125.806c140.434 0 204.8-96.549 204.8-239.909s-73.143-234.057-210.651-234.057h-119.954c-23.406 0-32.183 11.703-32.183 32.183v409.6c0 23.406 11.703 32.183 32.183 32.183z"></path>
<path fill="#fff" d="M4441.234 394.971c0-17.554-14.629-35.109-35.109-35.109-17.554 0-35.109 14.629-35.109 35.109 0 17.554 14.629 32.183 35.109 32.183s35.109-14.629 35.109-32.183zM4432.457 836.754v-336.457c0-8.777-2.926-8.777-8.777-8.777h-29.257c-5.851 0-8.777 0-8.777 8.777v336.457c0 8.777 2.926 8.777 8.777 8.777h29.257c5.851 0 8.777 0 8.777-8.777z"></path>
<path fill="#fff" d="M4768.914 541.257v254.537c-35.109 11.703-73.143 17.554-90.697 17.554-67.291 0-105.326-46.811-105.326-140.434 0-102.4 46.811-143.36 111.177-143.36 23.406-2.926 55.589 0 84.846 11.703zM4684.069 485.669c-111.177 0-160.914 78.994-160.914 187.246 0 105.326 46.811 181.394 152.137 181.394 26.331 0 67.291-5.851 96.549-17.554v2.926c0 76.069-46.811 96.549-122.88 111.177-5.851 0-5.851 2.926-5.851 8.777l2.926 32.183c0 5.851 5.851 5.851 8.777 5.851 105.326-14.629 166.766-55.589 166.766-175.543v-304.274c0-5.851-2.926-8.777-8.777-11.703-40.96-14.629-90.697-20.48-128.731-20.48z"></path>
<path fill="#fff" d="M4979.566 394.971c0-17.554-14.629-35.109-35.109-35.109-17.554 0-35.109 14.629-35.109 35.109 0 17.554 14.629 32.183 35.109 32.183s35.109-14.629 35.109-32.183zM4970.789 836.754v-336.457c0-8.777-2.926-8.777-8.777-8.777h-29.257c-5.851 0-8.777 0-8.777 8.777v336.457c0 8.777 2.926 8.777 8.777 8.777h29.257c5.851 0 8.777 0 8.777-8.777z"></path>
<path fill="#fff" d="M5049.783 532.48h49.737v231.131c0 61.44 23.406 90.697 90.697 90.697 11.703 0 43.886 0 70.217-8.777 5.851-2.926 5.851-5.851 5.851-8.777l-5.851-26.331c0-5.851 0-5.851-8.777-5.851-17.554 2.926-40.96 5.851-52.663 5.851-38.034 0-49.737-17.554-49.737-49.737v-228.206h78.994c8.777 0 8.777-2.926 8.777-8.777v-23.406c0-5.851 0-8.777-8.777-8.777h-78.994v-78.994c0-5.851-2.926-8.777-8.777-8.777l-17.554 5.851c-8.777 2.926-8.777 2.926-8.777 11.703l-8.777 64.366-52.663 8.777c-8.777 2.926-8.777 2.926-8.777 8.777v17.554c0 8.777 0 11.703 5.851 11.703z"></path>
<path fill="#fff" d="M5588.114 816.274v-216.503c0-76.069-40.96-114.103-128.731-114.103-38.034 0-81.92 5.851-114.103 20.48-5.851 2.926-5.851 5.851-5.851 8.777l5.851 23.406c2.926 5.851 5.851 5.851 11.703 2.926 26.331-8.777 64.366-14.629 93.623-14.629 73.143 0 87.771 32.183 87.771 78.994v17.554h-90.697c-99.474 0-143.36 52.663-143.36 119.954 0 55.589 29.257 111.177 143.36 111.177 43.886 0 90.697-5.851 131.657-23.406 5.851-2.926 8.777-5.851 8.777-14.629zM5535.451 667.063v131.657c-32.183 11.703-73.143 14.629-90.697 14.629-49.737 0-93.623-14.629-93.623-70.217 0-70.217 64.366-76.069 96.549-76.069h87.771z"></path>
<path fill="#fff" d="M5792.914 836.754l-2.926-23.406c0-5.851-2.926-5.851-8.777-5.851-8.777 0-14.629 2.926-23.406 2.926-20.48 0-26.331-8.777-26.331-35.109v-412.526c0-8.777-2.926-8.777-8.777-8.777h-32.183c-8.777 0-8.777 0-8.777 8.777v427.154c0 43.886 14.629 64.366 58.514 64.366 14.629 0 32.183 0 46.811-8.777 5.851-2.926 5.851-2.926 5.851-8.777z"></path>
</svg>
