<?xml version="1.0" encoding="utf-8"?>
<!-- Generated by IcoMoon.io -->
<!DOCTYPE svg PUBLIC "-//W3C//DTD SVG 1.1//EN" "http://www.w3.org/Graphics/SVG/1.1/DTD/svg11.dtd">
<svg version="1.1" xmlns="http://www.w3.org/2000/svg" xmlns:xlink="http://www.w3.org/1999/xlink" width="709" height="1024" viewBox="0 0 709 1024">
<g id="icomoon-ignore">
</g>
<path fill="#c1c1c1" d="M508.062 519.877c35.446-47.262 55.138-110.277 55.138-169.354 0-114.215-94.523-208.738-208.738-208.738s-208.738 94.523-208.738 208.738c0 59.077 19.692 122.092 55.138 169.354-118.154 35.446-200.862 110.277-200.862 185.108v114.215c0 35.446 27.569 63.015 63.015 63.015h578.954c35.446 0 63.015-27.569 63.015-63.015v-114.215c3.938-74.831-78.769-149.662-196.923-185.108zM354.462 204.8c78.769 0 145.723 66.954 145.723 145.723 0 98.462-70.892 192.985-145.723 192.985s-145.723-94.523-145.723-192.985c0-78.769 66.954-145.723 145.723-145.723zM645.908 819.2h-582.892v-114.215c0-43.323 74.831-106.338 185.108-133.908 31.508 23.631 66.954 39.385 106.338 39.385s74.831-11.815 102.4-35.446c110.277 27.569 185.108 90.585 185.108 133.908v110.277h3.938z"></path>
</svg>
