<?xml version="1.0" encoding="utf-8"?>
<!-- Generated by IcoMoon.io -->
<!DOCTYPE svg PUBLIC "-//W3C//DTD SVG 1.1//EN" "http://www.w3.org/Graphics/SVG/1.1/DTD/svg11.dtd">
<svg version="1.1" xmlns="http://www.w3.org/2000/svg" xmlns:xlink="http://www.w3.org/1999/xlink" width="1050" height="1024" viewBox="0 0 1050 1024">
<g id="icomoon-ignore">
</g>
<path fill="#000" d="M1023.143 542.206c0 0 0 0 0 0s0-0.214 0 0c-0.214-0.214-0.214-0.214-0.214-0.214 0-0.214-0.214-0.214-0.214-0.428l-221.081-233.292c-0.428-0.428-1.071-0.857-1.928-0.857 0 0 0 0 0 0l-429.523 0.643v-254.072c0-16.495-3.856-28.064-11.568-35.347-8.141-7.498-19.923-10.497-37.49-9.212-0.428 0-0.857 0.214-1.071 0.214s-0.214 0-0.428 0l-226.437 18.423c-17.995 1.5-32.348 17.138-32.134 35.133l7.069 845.978-34.919 10.283c-4.713 1.285-8.141 4.499-8.569 8.355-0.214 0.428-0.214 0.857-0.214 1.5l0.214 20.994c-0.214 4.499 2.356 7.498 6.855 8.355l250.216 32.134c4.070 0.428 7.712 0.857 10.926 0.857 10.283 0 17.352-2.356 21.637-4.499l77.55-35.133c0.857-0.428 1.5-1.285 1.928-2.142 1.285 4.070 2.356 7.926 3.428 11.997 8.997 30.849 14.996 50.129 24.422 52.7 0.428 0.214 0.857 0.428 1.285 0.428 0.214 0 0.214 0 0.428 0l326.48-47.344c4.713-0.643 8.569-3.213 11.354-7.284 6.427-9.64 7.069-27.849 1.5-51.414-8.141-35.562-18.209-75.193-28.064-113.754-17.781-70.48-36.204-143.317-43.488-189.804l315.126-20.137c0.214 0 0.428 0 0.643 0 7.069-2.142 12.854-8.141 16.281-17.138 3.213-9.64 3.428-20.351 0-25.921zM798.634 312.556l216.582 228.365-803.99 44.773-84.619-272.067h18.209c-0.214 0.214-0.643 0.428-0.857 0.643-0.428 0.643-0.643 1.5-0.428 2.356l86.119 262.641c0.428 1.071 1.285 1.714 2.356 1.714 0 0 0 0 0.214 0l764.144-40.489c1.071 0 1.928-0.643 2.356-1.714 0.428-0.857 0.214-1.928-0.428-2.785l-205.228-222.795c-0.428-0.428-1.071-0.643-1.714-0.857l7.284 0.214zM110.112 337.192c0 0.214 0 0.428 0 0.643l67.91 229.436-80.335-2.999-6.641-468.512 227.508-12.639 0.643 225.151-196.017 0.214c-0.428 0-0.857 0.214-1.285 0.428-8.569 2.571-11.997 16.495-11.782 28.278zM115.254 336.763c-0.214-10.069 2.356-18.852 6.213-22.065l84.833 272.495c-0.214 0.214-0.428 0.428-0.428 0.643-0.428 0.428-0.643 0.643-1.071 1.071s-0.857 0.857-1.071 1.285c-0.214 0.428-0.643 0.857-0.857 1.285-0.428 0.428-0.643 0.857-1.071 1.5-0.214 0.428-0.428 0.857-0.857 1.285-0.214 0.428-0.643 1.071-0.857 1.5s-0.428 0.857-0.643 1.285c-0.214 0.643-0.428 1.071-0.643 1.714-0.214 0.428-0.428 0.857-0.428 1.5-0.214 0.643-0.428 1.285-0.643 1.714s-0.214 1.071-0.428 1.5c-0.214 0.643-0.214 1.285-0.428 1.928 0 0.428-0.214 1.071-0.214 1.5 0 0.643-0.214 1.285-0.214 1.928 0 0.428-0.214 1.071-0.214 1.5 0 0.214 0 0.214 0 0.428l-80.977-273.995zM790.065 317.697l200.73 217.868-756.646 40.060-84.405-257.285 640.321-0.643zM353.473 24.208c6.213 5.784 9.212 15.424 9.212 29.777v254.072h-15.638l-0.428-273.567c0-0.857 0-1.714-0.214-2.571 0-0.214 0-0.643-0.214-0.857 0-0.428-0.214-1.071-0.214-1.5s-0.214-0.643-0.214-1.071c0-0.428-0.214-0.857-0.428-1.285s-0.214-0.643-0.428-1.071c-0.214-0.428-0.214-0.857-0.428-1.071-0.214-0.428-0.214-0.643-0.428-1.071s-0.428-0.643-0.643-1.071c-0.214-0.428-0.428-0.643-0.643-1.071s-0.428-0.857-0.643-1.071c-0.214-0.214-0.428-0.643-0.643-0.857-0.428-0.643-0.857-1.285-1.5-1.928 5.998 1.071 10.283 3.213 13.496 6.213zM93.831 35.776l226.651-18.423c0.428 0 1.071 0 1.5 0 0.214 0 0.643 0 0.857 0s0.428 0 0.857 0c0.428 0 0.643 0 1.071 0.214 0.214 0 0.428 0 0.643 0.214 0.214 0 0.643 0.214 0.857 0.214s0.428 0.214 0.857 0.214c0.214 0 0.643 0.214 0.857 0.214s0.428 0.214 0.857 0.214c0.214 0.214 0.428 0.214 0.857 0.428 0.214 0.214 0.643 0.214 0.857 0.428s0.428 0.214 0.643 0.428c0.214 0.214 0.643 0.428 0.857 0.643s0.428 0.214 0.643 0.428c0.214 0.214 0.428 0.428 0.857 0.643 0.214 0.214 0.428 0.428 0.643 0.428 0.214 0.214 0.428 0.428 0.643 0.643s0.428 0.428 0.643 0.643c0.214 0.214 0.428 0.428 0.643 0.643s0.428 0.428 0.428 0.643c0.214 0.214 0.214 0.428 0.428 0.643s0.428 0.428 0.428 0.857c0.214 0.214 0.214 0.428 0.428 0.643s0.214 0.643 0.428 0.857c0 0.214 0.214 0.428 0.214 0.643 0.214 0.214 0.214 0.643 0.428 0.857 0 0.214 0.214 0.428 0.214 0.643 0 0.428 0.214 0.643 0.214 1.071 0 0.214 0 0.643 0.214 0.857 0 0.214 0 0.643 0.214 0.857 0 0.643 0 1.285 0 1.928l0.428 273.567h-12.639l-0.643-229.222c0-1.071-0.428-2.142-1.285-2.785s-1.714-1.071-2.785-1.071l-235.863 13.282c-2.142 0.214-3.642 1.714-3.642 3.856l6.855 476.010c0 1.928 1.714 3.642 3.642 3.856l86.547 3.428 13.496 45.844c2.142 8.141 5.141 13.282 9.212 14.782 0 0 0 0 0 0s0.214 0 0.214 0.214c0.214 0 0.643 0.214 0.857 0.214 0 0 0.214 0 0.214 0l135.391-8.569 0.428 261.141-2.785 21.423c-0.214 1.071 0.428 2.142 1.285 2.571 0.428 0.214 0.857 0.428 1.5 0.214v28.492l-264.997-32.348-6.641-846.192c0-13.71 11.354-26.35 25.279-27.421zM34.919 926.741l36.633-10.711 258.356 31.705-25.279 10.283c-8.997 2.785-20.566 2.999-35.562 0.643l-232.649-28.064c-3.428-0.428-4.285-1.714-4.499-1.714 0-0.214 0.643-1.5 2.999-2.142zM385.607 946.236c0 0-0.214 0 0 0l-74.979 34.062c-3.856 1.928-12.854 5.141-28.278 2.999l-250.002-32.134c-0.214 0-0.214 0-0.428 0 0 0 0-0.214 0-0.643l-0.214-13.068c0 0 0 0 0 0 0.428 0.214 0.643 0.214 1.071 0.214 0.214 0 0.428 0 0.428 0.214 0.643 0.214 1.071 0.214 1.714 0.214 0 0 0 0 0 0l13.282 1.5 219.582 26.564c1.928 0.214 3.856 0.643 5.57 0.857 0.643 0 1.071 0.214 1.714 0.214 1.285 0.214 2.571 0.214 3.642 0.428 0.643 0 1.285 0 1.928 0.214 1.071 0 1.928 0.214 2.999 0.214 0.643 0 1.5 0 2.142 0s1.071 0 1.714 0c0.214 0 0.643 0 0.857 0 1.071 0 2.142 0 2.999 0 0.643 0 1.285 0 1.928 0 1.071 0 1.928-0.214 2.999-0.214 0.643 0 1.071-0.214 1.714-0.214 1.071-0.214 2.142-0.428 2.999-0.643 0.428 0 0.857-0.214 1.285-0.214 1.5-0.214 2.785-0.643 4.070-1.071 0 0 0.214 0 0.214-0.214l38.132-15.638c0.214-0.214 0.643-0.214 0.857-0.428 0 0 0.214-0.214 0.214-0.214 0.214-0.214 0.214-0.214 0.428-0.428 0 0 0 0 0 0s0 0 0 0 0 0 0 0 0 0 0 0c0.214 0 0.214-0.214 0.214-0.428 0 0 0.214-0.214 0.214-0.214 0-0.214 0.214-0.214 0.214-0.428 0 0 0.214-0.214 0.214-0.214 0-0.214 0.214-0.428 0.214-0.643 0 0 0-0.214 0-0.214 0-0.214 0-0.643 0-0.857v-38.132c6.213-4.285 11.568-6.213 16.495-5.57-0.643 0-1.071 0-1.714 0 0 2.785 0.214 5.784 0 8.569 0 0.214 0 0.428-0.214 0.643v25.493c0 1.285 0.643 2.356 1.714 3.213 0.214 0.214 0.643 0.428 0.857 0.428 0 0 0.214 0 0.214 0 0.214 0 0.428 0 0.643 0 0 0 0.214 0 0.214 0s0 0 0.214 0c0.428 0 0.857 0 1.285-0.214l19.28-7.712c0.214 0 0.428-0.214 0.643-0.214 1.285 3.856 2.571 7.926 3.856 12.211-0.857 0.643-2.999 1.285-5.141 1.714zM370.397 910.46v-5.141c0-0.643-0.214-1.285-0.428-1.928 1.928 1.071 3.856 2.356 5.57 4.070 1.071 1.071 1.928 2.356 2.999 3.642l-8.141-0.643zM383.036 919.672c0.857 1.714 1.5 3.642 2.356 5.784l-1.5 0.643c0 0 0 0 0 0l-13.282 5.356v-13.068l12.425 1.285zM429.095 1000.221c0 0.214-0.214 0.214-0.214 0.428-0.643 1.285-1.285 2.356-1.928 3.428 0 0-0.214 0.214-0.214 0.214-0.214 0.428-0.643 0.857-0.857 1.285 0 0-0.214 0.214-0.214 0.214-0.428 0.428-0.643 0.857-1.071 1.285 0 0 0 0 0 0-0.428 0.428-0.643 0.643-1.071 1.071 0 0-0.214 0.214-0.214 0.214-0.214 0.214-0.643 0.643-0.857 0.857 0 0 0 0-0.214 0.214-7.069-2.999-14.353-28.278-20.137-48.844-6.641-23.136-13.496-46.915-22.708-56.341-5.141-4.927-10.497-7.498-16.281-7.498-5.57 0-11.354 2.356-17.781 6.641-0.428-0.214-0.857-0.643-1.071-1.071l1.928-15.853c4.285-4.713 8.355-7.712 12.211-9.212 0 0 0 0 0 0 1.285-0.428 2.785-0.643 4.070-0.857 0.214 0 0.643 0 0.857 0 0.428 0 0.857 0 1.285 0.214 0.428 0 0.643 0 1.071 0.214 0.214 0 0.643 0.214 0.857 0.214 0.428 0.214 0.857 0.214 1.071 0.428 0.428 0.214 0.643 0.214 1.071 0.428s0.643 0.428 1.071 0.428c0.428 0.214 0.857 0.428 1.071 0.643s0.643 0.428 0.857 0.643c0.428 0.214 0.857 0.643 1.285 0.857 0.214 0.214 0.428 0.214 0.428 0.428 2.999 2.571 5.998 6.213 8.997 11.14 0 0.214 0.214 0.214 0.214 0.214 0.428 0.857 1.071 1.714 1.5 2.785 0.214 0.214 0.214 0.428 0.428 0.643 0.428 0.857 1.071 1.714 1.5 2.785 0.214 0.428 0.428 0.643 0.643 1.071 0.428 0.857 0.857 1.714 1.285 2.785 0.214 0.428 0.428 1.071 0.643 1.5 0.428 0.857 0.857 1.714 1.285 2.571 0.214 0.643 0.643 1.285 0.857 2.142 0.428 0.857 0.643 1.714 1.071 2.571s0.857 1.928 1.071 2.785c0.214 0.643 0.643 1.285 0.857 2.142 0.643 1.714 1.285 3.428 1.928 5.356 2.999 8.569 5.57 17.567 7.498 25.493 4.499 17.138 7.712 29.349 15.424 29.349 0 0 0 0 0 0 0.857 0 1.5 0 2.142-0.214 0 0 0.214 0 0.214 0 0.643-0.214 1.285-0.428 1.928-0.643 0 0 0.214 0 0.214-0.214 0.643-0.214 1.285-0.643 1.928-1.071 0 0 0.214-0.214 0.214-0.214 0.643-0.428 1.285-1.071 1.714-1.5 0 0 0 0 0 0s0 0 0-0.214c0.214-0.214 0.428-0.428 0.643-0.857 0.428-0.428 0.643-0.857 1.071-1.5 0 0 0 0 0 0 0.428-0.857 1.071-1.714 1.5-2.571 0.214-0.214 0.214-0.428 0.214-0.643 0.428-0.857 0.857-1.714 1.285-2.785 0.214-0.428 0.428-1.071 0.643-1.5s0.214-0.857 0.428-1.285c5.356-17.352 6.427-49.272 2.785-95.545 0-0.214 0-0.214 0-0.428-0.643-8.569-1.5-17.138-2.356-26.136 0 0.214 0 0.428 0 0.643 0.428 3.213 0.643 6.213 0.857 9.212 0 0.857 0.214 1.714 0.214 2.571 0.214 2.999 0.643 5.784 0.857 8.569 0 0.428 0 0.857 0.214 1.285 0.214 3.213 0.643 6.427 0.857 9.64 0 0.428 0 1.071 0.214 1.5 0.214 2.571 0.428 5.141 0.643 7.712 0 0.643 0 1.285 0.214 1.928 0.428 5.998 0.643 11.568 1.071 17.138 0 0.428 0 0.857 0 1.5 0 2.356 0.214 4.499 0.214 6.855 0 0.428 0 0.857 0 1.285 0.214 5.141 0.214 10.069 0.428 14.782 0 0.428 0 0.857 0 1.285 0 2.142 0 4.070 0 5.998 0 0.214 0 0.428 0 0.643 0 2.356 0 4.499 0 6.641 0 0 0 0 0 0.214 0 1.928 0 3.856-0.214 5.784 0 0.428 0 0.643 0 1.071 0 1.928-0.214 3.642-0.214 5.57 0 0 0 0 0 0-0.214 1.928-0.214 3.856-0.428 5.57 0 0.214 0 0.214 0 0.428-0.214 1.5-0.214 3.213-0.428 4.713 0 0.214 0 0.428 0 0.643-0.214 3.213-0.643 6.427-1.071 9.212 0 0.214 0 0.428 0 0.643-0.214 1.285-0.428 2.571-0.643 3.642 0 0.214 0 0.428 0 0.428-0.428 2.571-0.857 5.141-1.5 7.498 0 0.214 0 0.428-0.214 0.643-0.214 1.071-0.428 1.928-0.643 2.999 0 0 0 0.214 0 0.214-0.214 1.071-0.643 2.142-0.857 2.999 0 0 0 0 0 0.214-0.214 0.857-0.643 1.714-0.857 2.571 0 0.214-0.214 0.428-0.214 0.428-0.214 0.857-0.643 1.714-0.857 2.356 0 0 0 0 0 0-0.214 0.857-0.643 1.5-1.071 2.356 0 0 0 0.214-0.214 0.214 0 0.428-0.214 1.071-0.428 1.714zM348.117 873.399c0.428-67.695 1.071-214.44 1.714-246.574l12.854-0.857v242.075c-4.927 0.857-10.069 2.785-14.567 5.356zM431.023 862.902l-60.626 7.284v-244.646l23.779-1.5c14.353 64.482 30.849 163.026 36.847 238.862zM399.531 623.612h0.643c0.428 2.356 0.857 4.927 1.5 7.284 0.428 1.928 0.643 3.856 1.071 5.57 0.428 2.356 0.857 4.713 1.285 7.069 0.428 2.142 0.857 4.499 1.285 6.641 0 0 0 0.214 0 0.214-2.142-9.426-4.070-18.423-5.784-26.778zM431.451 868.044c4.285 59.555 0.428 85.262-4.499 95.759 0 0 0 0 0 0.214-0.214 0.214-0.214 0.643-0.428 0.857-0.214 0.428-0.428 0.857-0.857 1.285 0 0 0 0.214-0.214 0.214-0.428 0.428-0.643 1.071-1.071 1.5 0 0 0 0 0 0-0.214 0.428-0.643 0.643-1.071 1.071-0.214 0.214-0.428 0.214-0.428 0.428-0.214 0.214-0.428 0.428-0.857 0.643-0.214 0-0.214 0.214-0.428 0.214-0.214 0.214-0.643 0.214-0.857 0.428-0.214 0-0.214 0.214-0.428 0.214-0.428 0.214-0.857 0.214-1.5 0.214 0 0 0 0 0 0-3.642 0-7.284-13.71-10.497-25.493-2.142-8.141-4.499-17.138-7.712-25.921 0-0.214 0-0.214-0.214-0.428-0.643-1.5-1.071-2.999-1.714-4.499-0.214-0.643-0.428-1.071-0.643-1.5-0.428-1.071-0.857-2.142-1.285-2.999-0.214-0.643-0.428-1.071-0.643-1.714-0.428-1.071-0.857-1.928-1.285-2.999-0.214-0.428-0.428-1.071-0.643-1.5-0.643-1.285-1.285-2.571-1.714-3.856-0.214-0.428-0.428-0.857-0.643-1.5-0.428-0.857-0.857-1.5-1.071-2.356-0.214-0.643-0.643-1.071-0.857-1.5-0.428-0.643-0.643-1.285-1.071-1.928-0.214-0.428-0.643-1.071-0.857-1.5-0.428-0.643-0.857-1.285-1.285-1.928-0.214-0.428-0.643-1.071-0.857-1.5-0.428-0.857-1.071-1.5-1.5-2.356-0.214-0.428-0.643-0.643-0.857-1.071-0.428-0.428-0.857-1.071-1.071-1.5s-0.643-0.643-0.857-1.071c-0.428-0.428-0.857-1.071-1.285-1.5-0.214-0.214-0.428-0.428-0.643-0.857-0.643-0.643-1.285-1.285-1.928-1.928 0 0-0.214-0.214-0.214-0.214-0.643-0.428-1.285-1.071-1.714-1.5-0.214-0.214-0.428-0.214-0.643-0.428s-0.643-0.428-0.857-0.643l57.198-6.855zM729.439 796.064c9.64 38.346 19.709 78.192 28.064 113.54 5.141 21.851 4.713 39.203-0.857 47.344-1.928 2.999-4.713 4.713-7.712 5.141l-318.768 46.273c0.214-0.428 0.428-0.643 0.857-1.071 0.214-0.214 0.428-0.643 0.643-0.857 0.214-0.428 0.643-1.071 0.857-1.5 0.214-0.214 0.428-0.643 0.428-0.857 0.428-0.857 0.857-1.5 1.285-2.356 0-0.214 0.214-0.428 0.214-0.643 0.428-0.857 0.643-1.714 1.071-2.571 0.214-0.428 0.214-0.857 0.428-1.071 0.214-0.643 0.428-1.285 0.643-1.928 0.214-0.428 0.214-0.857 0.428-1.285 0.214-0.643 0.428-1.285 0.643-1.928 0.214-0.428 0.214-1.071 0.428-1.5 0.214-0.643 0.428-1.285 0.643-1.928s0.214-1.071 0.428-1.714c0.214-0.643 0.428-1.285 0.428-1.928 0.214-0.643 0.214-1.285 0.428-1.714 0.214-0.643 0.214-1.285 0.428-1.928s0.214-1.285 0.428-1.928c0.214-0.643 0.214-1.5 0.428-2.142s0.214-1.285 0.428-1.928c0.214-0.643 0.214-1.5 0.428-2.142 0-0.643 0.214-1.285 0.214-2.142 0-0.643 0.214-1.5 0.214-2.356 0-0.643 0.214-1.5 0.214-2.142 0-0.857 0.214-1.5 0.214-2.356s0.214-1.5 0.214-2.356c0-0.857 0.214-1.714 0.214-2.356 0-0.857 0.214-1.5 0.214-2.356s0.214-1.714 0.214-2.571c0-0.857 0.214-1.714 0.214-2.356 0-0.857 0-1.714 0.214-2.571 0-0.857 0-1.714 0.214-2.571 0-0.857 0-1.714 0.214-2.785 0-0.857 0-1.714 0-2.571s0-1.928 0-2.785c0-0.857 0-1.714 0-2.571s0-1.928 0-2.999c0-0.857 0-1.714 0-2.571 0-1.071 0-2.142 0-2.999 0-1.714 0-3.428 0-5.141 0-1.071 0-2.142 0-3.213s0-1.928 0-2.999c0-1.071 0-1.928 0-2.999s0-2.142 0-3.213c0-1.071 0-1.928 0-2.999s0-2.142-0.214-3.213c0-1.071 0-1.928-0.214-2.999 0-1.071 0-2.142-0.214-3.213 0-1.071 0-2.142-0.214-2.999 0-1.071-0.214-2.142-0.214-3.213s-0.214-2.142-0.214-3.213c0-1.071-0.214-2.142-0.214-3.428 0-1.071-0.214-2.142-0.214-3.213s-0.214-2.356-0.214-3.428c0-1.071-0.214-2.142-0.214-3.213s-0.214-2.356-0.214-3.428c0-1.071-0.214-2.142-0.214-3.213 0-1.285-0.214-2.356-0.214-3.642 0-1.071-0.214-2.142-0.214-3.213 0-1.285-0.214-2.356-0.214-3.642 0-1.071-0.214-2.142-0.214-3.213-0.214-1.285-0.214-2.356-0.428-3.642 0-1.071-0.214-2.142-0.428-3.428s-0.214-2.356-0.428-3.642c-0.214-1.071-0.214-2.356-0.428-3.428-0.214-1.285-0.214-2.571-0.428-3.642s-0.214-2.142-0.428-3.213c-0.214-1.285-0.214-2.571-0.428-3.856-0.214-1.071-0.214-2.142-0.428-3.213-0.214-1.285-0.214-2.785-0.428-4.070-0.214-1.071-0.214-2.142-0.428-2.999-0.214-1.5-0.428-2.785-0.428-4.285-0.214-1.071-0.214-2.142-0.428-3.213-0.428-2.785-0.643-5.356-1.071-8.141-0.214-1.071-0.214-2.142-0.428-3.213-0.214-1.285-0.428-2.785-0.643-4.070-0.214-1.071-0.214-2.142-0.428-3.213-0.214-1.285-0.428-2.785-0.643-4.070-0.214-1.071-0.214-2.356-0.428-3.428-0.214-1.285-0.428-2.785-0.643-4.070-0.214-1.071-0.214-2.142-0.428-3.428s-0.428-2.785-0.643-4.070c-0.214-1.071-0.428-2.356-0.428-3.428-0.214-1.285-0.428-2.571-0.643-4.070-0.214-1.285-0.428-2.356-0.428-3.642-0.214-1.285-0.428-2.571-0.643-4.070-0.214-1.285-0.428-2.356-0.643-3.642s-0.428-2.785-0.643-4.070c-0.214-1.285-0.428-2.356-0.643-3.642s-0.428-2.785-0.643-4.070c-0.214-1.285-0.428-2.356-0.643-3.642s-0.428-2.785-0.643-4.070c-0.214-1.285-0.428-2.356-0.643-3.642s-0.428-2.785-0.643-4.070c-0.214-1.285-0.428-2.356-0.643-3.642s-0.428-2.785-0.643-4.070c-0.214-1.285-0.428-2.356-0.643-3.642s-0.428-2.785-0.643-4.070c-0.214-1.285-0.428-2.571-0.643-3.642-0.214-1.285-0.428-2.785-0.643-4.070-0.214-1.071-0.428-2.142-0.643-3.428-0.214-1.5-0.428-2.999-0.857-4.499-0.214-1.071-0.428-2.142-0.643-2.999-0.214-1.5-0.643-2.999-0.857-4.713-0.214-0.857-0.214-1.714-0.428-2.571-0.214-1.714-0.643-3.428-0.857-5.141 0-0.214 0-0.643-0.214-0.857-0.857-4.713-1.714-9.426-2.571-14.139 0 0 0 0 0 0-0.428-1.714-0.643-3.642-1.071-5.356-0.214-0.857-0.214-1.5-0.428-2.356-0.214-1.714-0.643-3.428-0.857-4.927-0.214-0.857-0.428-1.714-0.428-2.571-0.214-1.714-0.643-3.213-0.857-4.927-0.214-0.857-0.428-1.714-0.428-2.571-0.214-1.5-0.643-3.213-0.857-4.713-0.214-0.857-0.428-1.928-0.643-2.785-0.214-1.5-0.643-2.999-0.857-4.713-0.214-0.857-0.428-1.928-0.428-2.785-0.214-1.714-0.643-3.213-0.857-4.927 0-0.428-0.214-1.071-0.214-1.5l280.636-17.781c7.712 47.13 26.136 120.181 44.131 190.875zM1018.002 565.985c-1.5 4.285-5.356 11.568-12.639 13.925l-799.491 50.986c-0.214-0.214-0.214-0.428-0.428-0.643-0.214-0.428-0.428-0.857-0.643-1.071-0.214-0.428-0.428-0.857-0.643-1.285s-0.428-0.857-0.428-1.285c-0.214-0.428-0.428-1.071-0.428-1.5-0.214-0.428-0.214-0.857-0.428-1.285s-0.214-1.071-0.428-1.5c0-0.428-0.214-0.857-0.214-1.285s-0.214-1.071-0.214-1.5c0-0.428-0.214-0.857-0.214-1.285s0-1.071-0.214-1.5c0-0.428 0-0.857 0-1.285 0-0.643 0-1.071 0-1.714 0-0.428 0-0.857 0-1.285 0-0.643 0.214-1.285 0.214-1.928 0-0.428 0-0.643 0-1.071 0.214-0.857 0.214-1.928 0.428-2.785 0-0.428 0.214-0.643 0.214-1.071 0.214-0.643 0.214-1.071 0.428-1.714 0.214-0.428 0.214-0.857 0.428-1.071 0.214-0.428 0.428-1.071 0.428-1.5 0.214-0.428 0.214-0.643 0.428-1.071s0.428-0.857 0.643-1.285c0.214-0.428 0.428-0.643 0.643-1.071s0.428-0.857 0.643-1.285c0.214-0.428 0.428-0.643 0.643-0.857 0.214-0.428 0.428-0.857 0.857-1.071 0.214-0.214 0.428-0.643 0.643-0.857 0.214-0.428 0.643-0.643 0.857-1.071 0.214-0.214 0.428-0.428 0.643-0.643s0.428-0.428 0.643-0.428l809.131-44.987c1.5 3.428 1.5 11.354-1.5 19.28z"></path>
</svg>
