<?xml version="1.0" encoding="utf-8"?>
<!-- Generated by IcoMoon.io -->
<!DOCTYPE svg PUBLIC "-//W3C//DTD SVG 1.1//EN" "http://www.w3.org/Graphics/SVG/1.1/DTD/svg11.dtd">
<svg version="1.1" xmlns="http://www.w3.org/2000/svg" xmlns:xlink="http://www.w3.org/1999/xlink" width="819" height="1024" viewBox="0 0 819 1024">
<g id="icomoon-ignore">
</g>
<path fill="#fc291c" d="M808.96 368.64c-10.24-87.040-48.64-168.96-112.64-232.96-89.6-89.6-207.36-133.12-332.8-117.76-181.76 17.92-330.24 163.84-350.72 345.6-17.92 158.72 53.76 307.2 189.44 391.68 23.040 12.8 40.96 33.28 58.88 56.32l138.24 192c5.12 10.24 17.92 10.24 25.6 0l140.8-192c15.36-23.040 35.84-40.96 58.88-56.32 128-84.48 199.68-230.4 184.32-386.56zM409.6 640c-120.32 0-217.6-97.28-217.6-217.6s97.28-217.6 217.6-217.6 217.6 97.28 217.6 217.6-97.28 217.6-217.6 217.6z"></path>
</svg>
