<?xml version="1.0" encoding="utf-8"?>
<!-- Generated by IcoMoon.io -->
<!DOCTYPE svg PUBLIC "-//W3C//DTD SVG 1.1//EN" "http://www.w3.org/Graphics/SVG/1.1/DTD/svg11.dtd">
<svg version="1.1" xmlns="http://www.w3.org/2000/svg" xmlns:xlink="http://www.w3.org/1999/xlink" width="1078" height="1024" viewBox="0 0 1078 1024">
<g id="icomoon-ignore">
</g>
<path fill="#a3a3a3" d="M712.758 708.716h-568.589c-8.084 0-16.168-6.737-16.168-16.168v-282.947c0-8.084 6.737-16.168 16.168-16.168v0c8.084 0 16.168 6.737 16.168 16.168v253.305c0 8.084 6.737 16.168 16.168 16.168h505.263c8.084 0 16.168-6.737 16.168-16.168v-253.305c0-8.084 6.737-16.168 16.168-16.168v0c8.084 0 16.168 6.737 16.168 16.168v284.295c-1.347 8.084-9.432 14.821-17.516 14.821z"></path>
<path fill="#a3a3a3" d="M602.274 393.432c-105.095 0-189.979-84.884-189.979-189.979s84.884-188.632 189.979-188.632 189.979 84.884 189.979 189.979-86.232 188.632-189.979 188.632zM602.274 45.811c-87.579 0-157.642 71.411-157.642 157.642s71.411 157.642 157.642 157.642c87.579 0 157.642-71.411 157.642-157.642s-71.411-157.642-157.642-157.642z"></path>
<path fill="#a3a3a3" d="M254.653 393.432c-105.095 0-189.979-84.884-189.979-189.979s86.232-188.632 189.979-188.632 189.979 84.884 189.979 188.632-84.884 189.979-189.979 189.979zM254.653 45.811c-87.579 0-157.642 71.411-157.642 157.642s71.411 157.642 157.642 157.642c87.579 0 157.642-71.411 157.642-157.642s-70.063-157.642-157.642-157.642z"></path>
<path fill="#a3a3a3" d="M792.253 614.4h-79.495v-30.989h47.158v-206.147h32.337z"></path>
<path fill="#a3a3a3" d="M1028.042 708.716c-1.347 0-4.042 0-5.389-1.347l-253.305-94.316c-6.737-2.695-10.779-8.084-10.779-14.821v-220.968c0-6.737 4.042-12.126 10.779-14.821l253.305-94.316c5.389-1.347 10.779-1.347 14.821 1.347s6.737 8.084 6.737 13.474v410.947c0 5.389-2.695 9.432-6.737 13.474-2.695 1.347-5.389 1.347-9.432 1.347zM792.253 587.453l220.968 83.537v-365.137l-220.968 83.537v198.063z"></path>
<path fill="#a3a3a3" d="M144.168 583.411h-63.326c-8.084 0-16.168-6.737-16.168-16.168v-72.758l-26.947-26.947c-2.695-2.695-4.042-6.737-4.042-10.779v-47.158c0-8.084 6.737-16.168 16.168-16.168h94.316c8.084 0 16.168 6.737 16.168 16.168v157.642c0 8.084-8.084 16.168-16.168 16.168zM97.011 551.074h30.989v-126.653h-63.326v25.6l26.947 26.947c2.695 2.695 4.042 6.737 4.042 10.779v63.326z"></path>
<path fill="#a3a3a3" d="M254.653 266.779c-35.032 0-63.326-28.295-63.326-63.326s28.295-63.326 63.326-63.326 63.326 28.295 63.326 63.326-28.295 63.326-63.326 63.326zM254.653 172.463c-17.516 0-30.989 14.821-30.989 30.989s14.821 30.989 30.989 30.989 30.989-14.821 30.989-30.989-13.474-30.989-30.989-30.989z"></path>
<path fill="#a3a3a3" d="M602.274 266.779c-35.032 0-63.326-28.295-63.326-63.326s28.295-63.326 63.326-63.326c35.032 0 63.326 28.295 63.326 63.326s-28.295 63.326-63.326 63.326zM602.274 172.463c-17.516 0-30.989 14.821-30.989 30.989s14.821 30.989 30.989 30.989 30.989-14.821 30.989-30.989-13.474-30.989-30.989-30.989z"></path>
<path fill="#a3a3a3" d="M491.789 772.042h-126.653c-8.084 0-16.168-6.737-16.168-16.168v-63.326c0-8.084 6.737-16.168 16.168-16.168h126.653c8.084 0 16.168 6.737 16.168 16.168v63.326c0 9.432-8.084 16.168-16.168 16.168zM381.305 741.053h94.316v-30.989h-94.316v30.989z"></path>
<path fill="#a3a3a3" d="M633.263 1009.179v0c-8.084 0-16.168-6.737-16.168-16.168v-9.432c0-2.695 0-4.042-1.347-6.737l-83.537-195.368c-2.695-5.389-8.084-9.432-14.821-9.432h-179.2c-6.737 0-12.126 4.042-14.821 9.432l-83.537 195.368c-1.347 1.347-1.347 4.042-1.347 6.737v9.432c0 8.084-6.737 16.168-16.168 16.168v0c-8.084 0-16.168-6.737-16.168-16.168v-12.126c0-4.042 1.347-8.084 2.695-12.126l88.926-208.842c5.389-12.126 16.168-18.863 29.642-18.863h200.758c12.126 0 24.253 8.084 29.642 18.863l88.926 208.842c1.347 4.042 2.695 8.084 2.695 12.126v12.126c0 9.432-6.737 16.168-16.168 16.168z"></path>
<path fill="#a3a3a3" d="M428.463 1009.179v0c-8.084 0-16.168-6.737-16.168-16.168v-220.968c0-8.084 6.737-16.168 16.168-16.168v0c8.084 0 16.168 6.737 16.168 16.168v220.968c0 9.432-8.084 16.168-16.168 16.168z"></path>
<path fill="#a3a3a3" d="M618.442 520.084h-379.958c-8.084 0-16.168-6.737-16.168-16.168v-63.326c0-8.084 6.737-16.168 16.168-16.168h378.611c8.084 0 16.168 6.737 16.168 16.168v63.326c0 9.432-6.737 16.168-14.821 16.168zM254.653 487.747h347.621v-30.989h-347.621v30.989z"></path>
<path fill="#a3a3a3" d="M334.147 583.411h-94.316c-8.084 0-16.168-6.737-16.168-16.168v0c0-8.084 6.737-16.168 16.168-16.168h94.316c8.084 0 16.168 6.737 16.168 16.168v0c-1.347 8.084-8.084 16.168-16.168 16.168z"></path>
<path fill="#a3a3a3" d="M618.442 583.411v0c-8.084 0-16.168-6.737-16.168-16.168v0c0-8.084 6.737-16.168 16.168-16.168v0c8.084 0 16.168 6.737 16.168 16.168v0c-1.347 8.084-8.084 16.168-16.168 16.168z"></path>
<path fill="#a3a3a3" d="M555.116 583.411v0c-8.084 0-16.168-6.737-16.168-16.168v0c0-8.084 6.737-16.168 16.168-16.168v0c8.084 0 16.168 6.737 16.168 16.168v0c-1.347 8.084-8.084 16.168-16.168 16.168z"></path>
<path fill="#a3a3a3" d="M491.789 583.411v0c-8.084 0-16.168-6.737-16.168-16.168v0c0-8.084 6.737-16.168 16.168-16.168v0c8.084 0 16.168 6.737 16.168 16.168v0c0 8.084-8.084 16.168-16.168 16.168z"></path>
</svg>
